<?xml version="1.0" encoding="utf-8"?>
<!-- Generator: Adobe Illustrator 27.0.0, SVG Export Plug-In . SVG Version: 6.00 Build 0)  -->
<svg version="1.1" id="Layer_1" xmlns="http://www.w3.org/2000/svg" xmlns:xlink="http://www.w3.org/1999/xlink" x="0px" y="0px"
	 viewBox="0 0 33 34" style="enable-background:new 0 0 33 34;" xml:space="preserve">
<style type="text/css">
	.st0{clip-path:url(#SVGID_00000167393999410824488230000001769764534847346839_);fill:#5252FF;}
</style>
<g>
	<defs>
		<rect id="SVGID_1_" y="0.5" width="33" height="33"/>
	</defs>
	<clipPath id="SVGID_00000109029587677542497410000017953139604060086192_">
		<use xlink:href="#SVGID_1_"  style="overflow:visible;"/>
	</clipPath>
	<path style="clip-path:url(#SVGID_00000109029587677542497410000017953139604060086192_);fill:#5252FF;" d="M33,19.1
		c0,1.1-1,2-2.1,2h-3.6v1c0,1.4-0.3,2.7-0.9,3.9l3.9,3.9c0.8,0.8,0.8,2.1,0,2.9c-0.8,0.8-2.1,0.8-2.9,0l-3.5-3.5
		c-1.6,1.3-3.6,2.1-5.8,2.1V15.7c0-0.4-0.3-0.8-0.8-0.8h-1.5c-0.4,0-0.8,0.3-0.8,0.8v15.7c-2.2,0-4.2-0.8-5.8-2.1l-3.5,3.5
		c-0.8,0.8-2.1,0.8-2.9,0c-0.8-0.8-0.8-2.1,0-2.9l3.9-3.9c-0.6-1.2-0.9-2.5-0.9-3.9v-1H2.1c-1.1,0-2.1-0.9-2.1-2C0,18,0.9,17,2.1,17
		h3.6v-3.8l-3-3c-0.8-0.8-0.8-2.1,0-2.9c0.8-0.8,2.1-0.8,2.9,0l3.5,3.5h14.8l3.5-3.5c0.8-0.8,2.1-0.8,2.9,0c0.8,0.8,0.8,2.1,0,2.9
		l-3,3V17h3.6C32.1,17,33,18,33,19.1z M16.6,0.5c-4,0-7.2,3.2-7.2,7.2h14.4C23.8,3.7,20.6,0.5,16.6,0.5z"/>
</g>
</svg>
