<svg width="90" height="74" viewBox="0 0 90 74" fill="none" xmlns="http://www.w3.org/2000/svg">
<g clip-path="url(#clip0_105_388)">
<rect width="89.334" height="73.4131" transform="translate(0.65625)" fill="#2D364F"/>
<path d="M37.4368 73.4131L43.9034 66.6946L37.2666 60.4318L37.4368 73.4131Z" fill="#EAD27C"/>
<path d="M43.9043 66.6946L50.1518 72.5909L43.9043 66.6946Z" fill="#2A4C9B"/>
<path d="M31.5957 42.5501L38.0367 36.6819L31.5957 42.5501Z" fill="#2A4C9B"/>
<path d="M56.1521 42.5336L49.6925 36.6819L43.6758 42.0168L50.1517 48.1434L56.1521 42.5336Z" fill="#EBD17A"/>
<path d="M31.7092 30.5883L25.2939 36.487L31.595 42.5501L50.1509 25.6433V0.60144L37.4951 12.4294V25.2698L31.7092 30.5883Z" fill="#86C892"/>
<path d="M56.1517 42.5336L62.8071 48.7048L50.1514 60.7488V72.5909L75.4606 49.5293V24.4874L56.1517 42.5336Z" fill="#EBD17A"/>
<path d="M56.1517 42.5336L50.1514 48.1433L56.1517 42.5336Z" fill="#2A4C9B"/>
<path d="M50.1514 60.7488L62.8071 48.7048L56.1517 42.5336L50.1514 48.1433V60.7488Z" fill="#D6A93A"/>
<path d="M31.5951 42.55L24.8418 48.7048L31.5951 42.55Z" fill="#2A4C9B"/>
<path d="M37.2668 60.4318L24.8418 48.7048L37.2668 60.4318Z" fill="#2A4C9B"/>
<path d="M24.8421 48.7048V36.9051L12.1863 48.5404V23.8791L12.1816 23.8744L12.1863 48.7659L37.4372 73.4131L37.2671 60.4318L24.8421 48.7048Z" fill="#8696CA"/>
<path d="M24.8418 36.9051V48.7048L31.5951 42.5501L25.294 36.4869L24.8418 36.9051Z" fill="#344E8B"/>
<path d="M24.8423 24.2573L37.4957 12.4293V0L12.1865 23.8697V23.8791L25.2945 36.4869L24.8423 24.2573Z" fill="#86C892"/>
<path d="M31.7093 30.5882L37.4952 25.2697V12.4293L24.8418 24.2573L31.7093 30.5882Z" fill="#459D52"/>
<path d="M31.7093 30.5883L24.8418 24.2573L25.294 36.487L31.7093 30.5883Z" fill="#266054"/>
<path d="M24.8423 36.0523L12.1865 23.879V48.5403L24.8423 36.905L25.2945 36.4869L24.8423 36.0523Z" fill="#90D0F1"/>
<path d="M43.6757 42.0168L38.0366 36.6819L31.5957 42.55L37.1019 47.845L43.6757 42.0168Z" fill="#8696CA"/>
<path d="M43.9043 66.6946L50.1518 72.5909V60.7489L43.9043 66.6946Z" fill="#8B93CD"/>
<path d="M37.2671 60.4318L43.9038 66.6946L50.1513 60.7489V48.1434L43.6754 42.0168L37.1016 47.8451L37.2671 60.4318Z" fill="#797E7A"/>
<path d="M37.2668 60.4317L37.1013 47.845L31.5951 42.55L24.8418 48.7048L37.2668 60.4317Z" fill="#5368AF"/>
<path d="M50.1511 0.60144V25.6433L38.0361 36.682L43.9036 31.3376L49.6918 36.682L56.1514 42.5337L75.4603 24.4875L50.1511 0.60144Z" fill="#FEFEFE"/>
<path d="M38.0361 36.682L43.6752 42.0169L49.6918 36.682L43.9036 31.3376L38.0361 36.682Z" fill="#3C4E5A"/>
<path d="M78.1389 63.1827C76.6517 63.1827 75.1667 63.1756 73.6794 63.1897C73.3927 63.1921 73.2995 63.1286 73.3018 62.8209C73.3158 60.3285 73.3135 57.836 73.3018 55.3459C73.3018 55.0758 73.3671 54.9842 73.6491 54.9842C76.661 54.9936 79.6751 54.9959 82.687 54.9818C83.0343 54.9818 83.0203 55.1486 83.025 55.3929C83.032 55.6537 83.0063 55.7946 82.6777 55.7923C79.9665 55.7782 77.2577 55.7899 74.5466 55.7782C74.2109 55.7782 74.0641 55.8322 74.0851 56.2222C74.1224 56.9222 74.1107 57.6269 74.0874 58.3293C74.0781 58.63 74.1643 58.7052 74.4604 58.7029C76.9594 58.6911 79.4607 58.6958 81.9597 58.6958C82.5098 58.6958 82.4935 58.6958 82.4935 59.222C82.4935 59.471 82.3863 59.4922 82.1858 59.4922C80.843 59.4851 79.5026 59.4898 78.1599 59.4898C76.9244 59.4898 75.6866 59.5016 74.4511 59.4804C74.1433 59.4757 74.0827 59.572 74.0897 59.8586C74.1107 60.5728 74.113 61.2916 74.0897 62.0058C74.0781 62.3229 74.176 62.3981 74.4814 62.3957C77.1785 62.384 79.8756 62.3887 82.5727 62.391C82.983 62.391 83.1695 62.68 83.018 63.0723C82.9481 63.2508 82.7942 63.178 82.6777 63.178C81.1647 63.1827 79.6518 63.1827 78.1389 63.1827Z" fill="white"/>
<path d="M18.359 54.9654C18.6597 54.9889 18.9651 54.9889 19.2611 55.0405C20.3708 55.2379 20.9629 56.046 20.9023 57.2534C20.8976 57.3568 20.9023 57.4625 20.9023 57.5659C20.9023 58.6653 20.9023 59.767 20.9023 60.8664C20.8976 62.4403 20.1959 63.1662 18.6457 63.1756C16.909 63.185 15.1723 63.185 13.4333 63.1756C11.925 63.1662 11.2024 62.438 11.1907 60.9275C11.1814 59.7083 11.1837 58.4867 11.1907 57.2675C11.1907 57.0044 11.2117 56.7343 11.2723 56.4782C11.4868 55.5832 12.0789 55.0687 13.0556 55.017C14.7387 54.9278 16.4241 54.9912 18.1072 54.9865C18.1702 55.0194 18.2331 55.017 18.2914 54.9748C18.3147 54.9748 18.3357 54.9701 18.359 54.963V54.9654ZM16.0815 55.7805C15.2003 55.7805 14.3168 55.7688 13.4356 55.7829C12.4332 55.7993 12.0043 56.2034 11.9856 57.2064C11.96 58.4656 11.9623 59.7247 11.9856 60.9862C12.002 61.94 12.3936 62.3605 13.3377 62.3746C15.1397 62.4028 16.944 62.4004 18.746 62.3746C19.7227 62.3605 20.091 61.9423 20.1003 60.958C20.1097 59.7388 20.1097 58.5173 20.1003 57.2981C20.0957 56.2409 19.6598 55.7993 18.6084 55.7852C17.7669 55.7735 16.923 55.7852 16.0815 55.7852V55.7805Z" fill="white"/>
<path d="M60.4451 63.2226C59.8857 63.1169 59.3192 63.1685 58.7551 63.1638C57.4286 63.1544 56.0999 63.1685 54.7735 63.1544C53.4167 63.1427 52.7127 62.4333 52.7011 61.0661C52.6894 59.6895 52.6964 58.3129 52.6964 56.9363C52.8176 55.7452 53.3888 55.1415 54.5194 55.0147C55.1791 54.9959 55.8435 55.1016 56.5008 54.9559C57.6314 54.963 58.7644 54.9653 59.895 54.9771C60.2889 54.9818 60.6899 54.9724 61.0652 55.1039C61.9977 55.4328 62.3963 56.0741 62.4033 57.244C62.4126 58.6229 62.4103 60.0019 62.4126 61.3808C62.3637 61.5288 62.3077 61.6768 62.2658 61.8295C62.0676 62.5578 61.5594 62.943 60.8624 63.1192C60.7225 63.1544 60.5827 63.1873 60.4428 63.2202L60.4451 63.2226ZM53.4937 57.6574C53.4937 58.8085 53.4797 59.962 53.4983 61.113C53.5077 61.8342 53.9296 62.3369 54.5753 62.344C56.5451 62.3675 58.5173 62.3651 60.4871 62.3487C61.0652 62.344 61.5478 61.8648 61.5548 61.2869C61.5757 59.8187 61.5711 58.3481 61.5501 56.8799C61.5408 56.302 61.0839 55.8345 60.5151 55.8275C58.86 55.8087 57.2048 55.8251 55.5497 55.8275C55.4845 55.8181 55.4215 55.804 55.3562 55.8016C53.8294 55.7358 53.4447 56.1211 53.496 57.6598L53.4937 57.6574Z" fill="white"/>
<path d="M5.5564 63.1805C4.66124 63.1805 3.76608 63.1899 2.87092 63.1805C1.50021 63.1617 0.793877 62.558 0.71928 61.1837C0.640021 59.7296 0.619041 58.2661 0.737929 56.8119C0.826513 55.7078 1.46058 55.0736 2.5469 55.0289C4.54468 54.9444 6.54714 54.9397 8.54492 55.0289C9.74313 55.083 10.4122 55.9052 10.3935 57.1197C10.3912 57.3147 10.3329 57.4063 10.1511 57.3593C9.96925 57.3123 9.64289 57.5449 9.62424 57.1667C9.56596 56.0696 8.95987 55.776 7.99944 55.783C6.35365 55.7948 4.7102 55.783 3.06441 55.7877C1.90117 55.7877 1.47457 56.2247 1.47457 57.4016C1.47457 58.555 1.47224 59.7084 1.47457 60.8619C1.47923 61.9331 1.88951 62.3771 2.94552 62.3865C4.66823 62.4029 6.39328 62.4029 8.11833 62.3865C9.16734 62.3771 9.44008 62.1093 9.61492 61.0169C9.67786 60.634 9.96459 60.8666 10.1464 60.8172C10.3259 60.7679 10.3865 60.8595 10.3912 61.0545C10.4168 62.2972 9.71283 63.0936 8.47499 63.1664C7.99011 63.1946 7.50057 63.1828 7.0157 63.1852C6.52849 63.1875 6.04128 63.1852 5.55407 63.1852L5.5564 63.1805Z" fill="white"/>
<path d="M31.2079 54.9653C31.3734 55.0264 31.3943 55.1674 31.3943 55.32C31.3943 57.984 31.3943 60.6503 31.3943 63.3142C31.3943 63.3612 31.3734 63.4082 31.3477 63.5209C28.3942 61.1107 25.4779 58.731 22.4754 56.2808C22.4754 57.2252 22.4754 58.0756 22.4754 58.9283C22.4731 60.211 22.4661 61.4936 22.4707 62.7762C22.4707 63.0417 22.4637 63.2155 22.1071 63.1991C21.8017 63.185 21.6758 63.138 21.6805 62.788C21.7015 61.3597 21.6898 59.9314 21.6875 58.5031C21.6875 58.3316 21.6595 58.1625 21.6455 57.991C21.7294 57.1594 21.6642 56.3231 21.6828 55.4892C21.6875 55.2378 21.6828 54.9888 21.6828 54.7422C21.874 54.6787 21.9416 54.8244 22.0325 54.8996C24.7319 57.1007 27.4291 59.3065 30.1262 61.5124C30.1472 61.5288 30.1658 61.5476 30.1891 61.5594C30.3104 61.6251 30.3966 61.8248 30.5481 61.7426C30.6647 61.6792 30.6041 61.4983 30.6041 61.3714C30.6064 59.4357 30.6064 57.5001 30.6064 55.5644C30.6064 55.1932 30.7844 54.992 31.1403 54.9606L31.1729 54.9677H31.2055L31.2079 54.9653Z" fill="white"/>
<path d="M63.164 60.7207C63.1617 58.933 63.157 57.143 63.1523 55.3553C63.1523 55.118 63.213 54.9724 63.4904 55.0005C63.7398 55.024 63.9869 54.9817 63.9822 55.3811C63.9659 56.6661 63.9752 57.9511 63.9752 59.2361C63.9752 59.4357 63.9613 59.6354 64.0708 59.8163C63.9496 59.9455 63.9636 60.1076 63.9636 60.2673C63.9636 60.8382 63.9846 61.409 63.9566 61.9775C63.9403 62.3064 64.0335 62.4027 64.3669 62.4003C67.0757 62.3863 69.7868 62.398 72.4956 62.3863C72.7986 62.3863 72.8989 62.4591 72.9012 62.7809C72.9058 63.1192 72.7986 63.1967 72.4769 63.1944C69.5303 63.1826 66.5838 63.1779 63.6372 63.1991C63.2363 63.2014 63.164 63.0792 63.1757 62.7128C63.199 62.0527 63.1687 61.3902 63.1617 60.7278L63.164 60.7207Z" fill="white"/>
<path d="M18.2952 54.9773C18.2364 55.0224 18.1729 55.0224 18.1094 54.9892C18.1682 54.9394 18.2317 54.9418 18.2952 54.9773Z" fill="white"/>
<path d="M50.2608 55.0217C51.8646 55.5104 52.4801 57.5118 51.4077 58.818C51.1909 59.0811 51.2632 59.222 51.4613 59.3982C51.7714 59.8727 51.9252 60.3895 51.9089 60.9627C51.8926 61.5688 51.8833 62.1796 51.9113 62.7833C51.9299 63.1991 51.6572 63.178 51.4007 63.1991C51.0977 63.225 51.1187 63.0088 51.1187 62.8021C51.1187 62.1937 51.1163 61.5876 51.1163 60.9792C51.1163 60.6456 51.0417 60.3308 50.8949 60.0301C50.7457 59.8257 50.5918 59.6308 50.3098 59.619C50.1 59.4781 49.8622 59.4828 49.6267 59.4828C47.5357 59.4828 45.4423 59.4875 43.3513 59.4757C43.0576 59.4757 42.969 59.5532 42.9737 59.8516C42.9923 60.8453 42.9667 61.839 42.9876 62.8327C42.9946 63.1686 42.8338 63.185 42.5797 63.1874C42.3163 63.1897 42.1764 63.1521 42.1787 62.8256C42.1927 60.3332 42.1881 57.8407 42.1811 55.3506C42.1811 55.0899 42.237 54.9724 42.5261 54.9748C44.9062 54.9842 47.2886 54.9795 49.6687 54.9842C49.8645 54.9842 50.0627 55.0053 50.2585 55.0194L50.2608 55.0217ZM50.2818 58.5924C50.9602 58.3364 51.2865 57.5353 51.0464 56.7131C50.9298 56.3114 50.7387 55.9802 50.2841 55.9003C50.1116 55.7735 49.9065 55.7923 49.7153 55.7923C47.5847 55.7852 45.4517 55.7899 43.321 55.7805C43.0646 55.7805 42.9737 55.8604 42.9783 56.1211C42.9923 56.8635 42.997 57.6058 42.9783 58.3481C42.9713 58.6441 43.0925 58.6982 43.3513 58.6958C45.4703 58.6864 47.587 58.6888 49.706 58.6888C49.9041 58.6888 50.1023 58.6888 50.2841 58.5924H50.2818Z" fill="white"/>
<path d="M36.6443 55.8768C36.607 55.7969 36.5394 55.7805 36.4602 55.7899C35.0848 55.7265 33.7094 55.7335 32.334 55.7899C32.0217 55.609 32.1895 55.3177 32.2082 55.0875C32.2245 54.9113 32.4483 54.9888 32.5788 54.9865C34.136 54.9747 35.6909 54.97 37.2481 54.9653C38.6421 54.9724 40.0361 54.9771 41.4278 54.9841C41.8544 54.9841 42.0363 55.2613 41.8824 55.663C41.8148 55.8416 41.6633 55.7805 41.5467 55.7805C40.3229 55.7852 39.1013 55.7946 37.8775 55.7758C37.5302 55.7711 37.4276 55.8745 37.4299 56.2245C37.4439 57.8407 37.4299 59.4569 37.4253 61.0731C37.4206 61.0849 37.4089 61.0989 37.4113 61.106C37.4183 61.1271 37.4322 61.1483 37.4439 61.1671C37.4579 61.1812 37.4695 61.2 37.4789 61.2188C37.3437 61.8695 37.4486 62.5319 37.3786 63.1873C36.4741 63.2014 36.642 63.2437 36.642 62.4662C36.642 60.4412 36.6606 58.4162 36.6676 56.3913C36.6676 56.2198 36.649 56.0483 36.6397 55.8791L36.6443 55.8768Z" fill="white"/>
<path d="M37.449 61.1695C37.4373 61.1483 37.4233 61.1295 37.4163 61.1083C37.414 61.0989 37.4256 61.0872 37.4303 61.0754C37.4373 61.1083 37.4443 61.1389 37.4513 61.1718L37.449 61.1695Z" fill="white"/>
<path d="M32.332 55.7899C33.7074 55.7335 35.0828 55.7288 36.4582 55.7899C35.3695 55.8792 34.2809 55.8111 33.1922 55.8275C32.9055 55.8322 32.6141 55.8721 32.332 55.7899Z" fill="white"/>
<path d="M86.345 45.9517H83.9346V55.7312H86.345V45.9517Z" fill="#FEDC60"/>
<path d="M89.9902 52.0547V49.6257H80.2857V52.0547H89.9902Z" fill="#FEDC60"/>
</g>
<defs>
<clipPath id="clip0_105_388">
<rect width="89.334" height="73.4131" fill="white" transform="translate(0.65625)"/>
</clipPath>
</defs>
</svg>
