<svg width="28" height="28" viewBox="0 0 28 28" fill="none" xmlns="http://www.w3.org/2000/svg">
<g clip-path="url(#clip0_122_606)">
<path d="M18.4084 25.1146V20.778C18.4504 20.2437 18.3782 19.7066 18.1966 19.2023C18.015 18.6981 17.7281 18.2382 17.3551 17.8534C20.8736 17.4612 24.5714 16.1278 24.5714 10.0096C24.5711 8.4451 23.9693 6.94062 22.8906 5.80753C23.4014 4.43878 23.3652 2.92587 22.7897 1.58306C22.7897 1.58306 21.4675 1.19087 18.4084 3.24147C15.8401 2.54541 13.1328 2.54541 10.5645 3.24147C7.50544 1.19087 6.18319 1.58306 6.18319 1.58306C5.60765 2.92587 5.57154 4.43878 6.08235 5.80753C4.99556 6.94903 4.39315 8.4671 4.40152 10.0432C4.40152 16.1166 8.09933 17.45 11.6178 17.887C11.2492 18.268 10.9649 18.7223 10.7834 19.2204C10.6019 19.7185 10.5273 20.2492 10.5645 20.778V25.1146M10.5645 21.7529C4.9618 23.4337 4.9618 18.9515 2.7207 18.3913L10.5645 21.7529Z" stroke="white" stroke-width="1.5" stroke-linecap="round" stroke-linejoin="round"/>
</g>
<defs>
<clipPath id="clip0_122_606">
<rect width="26.8931" height="26.8931" fill="white" transform="translate(0.479614 0.462524)"/>
</clipPath>
</defs>
</svg>
