<svg width="16" height="15" viewBox="0 0 16 15" fill="none" xmlns="http://www.w3.org/2000/svg">
<path fill-rule="evenodd" clip-rule="evenodd" d="M7.9375 1C4.34765 1 1.4375 3.91015 1.4375 7.5C1.4375 11.0899 4.34765 14 7.9375 14C11.5274 14 14.4375 11.0899 14.4375 7.5C14.4375 3.91015 11.5274 1 7.9375 1ZM0.4375 7.5C0.4375 3.35786 3.79536 0 7.9375 0C12.0796 0 15.4375 3.35786 15.4375 7.5C15.4375 11.6421 12.0796 15 7.9375 15C3.79536 15 0.4375 11.6421 0.4375 7.5Z" fill="white"/>
<path fill-rule="evenodd" clip-rule="evenodd" d="M0.4375 7.5C0.4375 7.22386 0.661358 7 0.9375 7H14.9375C15.2136 7 15.4375 7.22386 15.4375 7.5C15.4375 7.77614 15.2136 8 14.9375 8H0.9375C0.661358 8 0.4375 7.77614 0.4375 7.5Z" fill="white"/>
<path fill-rule="evenodd" clip-rule="evenodd" d="M7.93672 0C8.07718 0 8.21116 0.0590803 8.30589 0.162788C10.1385 2.16912 11.18 4.77283 11.2366 7.48959C11.2367 7.49292 11.2367 7.49625 11.2367 7.49958C11.2367 7.50319 11.2367 7.5068 11.2366 7.51041C11.18 10.2272 10.1385 12.8309 8.30589 14.8372C8.21116 14.9409 8.07718 15 7.93672 15C7.79626 15 7.66228 14.9409 7.56755 14.8372C5.73491 12.8309 4.69342 10.2272 4.63683 7.51041C4.63668 7.50347 4.63668 7.49653 4.63683 7.48959C4.69342 4.77283 5.73491 2.16912 7.56755 0.162788C7.66228 0.0590803 7.79626 0 7.93672 0ZM5.63683 7.5C5.6867 9.78199 6.49948 11.9759 7.93672 13.7355C9.37396 11.9759 10.1867 9.78199 10.2366 7.5C10.1867 5.21801 9.37396 3.02414 7.93672 1.26451C6.49948 3.02414 5.6867 5.21801 5.63683 7.5Z" fill="white"/>
</svg>
