<?xml version="1.0" encoding="utf-8"?>
<!-- Generator: Adobe Illustrator 27.0.0, SVG Export Plug-In . SVG Version: 6.00 Build 0)  -->
<svg version="1.1" id="Layer_1" xmlns="http://www.w3.org/2000/svg" xmlns:xlink="http://www.w3.org/1999/xlink" x="0px" y="0px"
	 viewBox="0 0 35 35" style="enable-background:new 0 0 35 35;" xml:space="preserve">
<style type="text/css">
	.st0{clip-path:url(#SVGID_00000124861519977174922560000002759283532761504702_);}
	.st1{fill:#5252FF;}
</style>
<g>
	<defs>
		<rect id="SVGID_1_" width="35" height="35"/>
	</defs>
	<clipPath id="SVGID_00000030473474427330296250000003554682951184366224_">
		<use xlink:href="#SVGID_1_"  style="overflow:visible;"/>
	</clipPath>
	<g style="clip-path:url(#SVGID_00000030473474427330296250000003554682951184366224_);">
		<path class="st1" d="M26.7,14h-8.3v3.1c0,2.2-1.8,3.9-3.9,3.9s-3.9-1.8-3.9-3.9v-6.6L7,12.5c-1.1,0.6-1.7,1.8-1.7,3v2.6l-4.4,2.5
			C0,21.1-0.3,22.2,0.2,23l4.4,7.6c0.5,0.8,1.6,1.1,2.4,0.6l5.7-3.3h7.5c1.9,0,3.5-1.6,3.5-3.5h0.9c1,0,1.8-0.8,1.8-1.8v-3.5h0.4
			c0.7,0,1.3-0.6,1.3-1.3v-2.6C28,14.6,27.4,14,26.7,14z M34.8,12l-4.4-7.6c-0.5-0.8-1.6-1.1-2.4-0.6L22.3,7h-5.6
			c-0.7,0-1.3,0.2-1.9,0.5l-1.8,1.1c-0.5,0.3-0.8,0.9-0.8,1.5v6.9c0,1.2,1,2.2,2.2,2.2s2.2-1,2.2-2.2v-4.8h10.1
			c1.7,0,3.1,1.4,3.1,3.1v1.6l4.4-2.5C35,13.9,35.2,12.8,34.8,12z"/>
	</g>
</g>
</svg>
