<svg width="182" height="182" viewBox="0 0 182 182" fill="none" xmlns="http://www.w3.org/2000/svg">
<circle cx="91" cy="91" r="91" fill="#00ADB5"/>
<path d="M118.597 95.5317C120.354 98.694 121.37 101.899 121.202 105.439C120.928 111.167 117.91 115.261 113.679 118.542C108.662 122.434 102.953 124.58 96.6959 125.173C96.3231 125.207 95.895 125.326 95.583 125.187C94.7794 124.835 93.799 124.54 93.3102 123.887C92.6834 123.05 93.1501 122.071 93.8598 121.298C96.4749 118.451 97.6458 115.05 97.4829 111.147C97.4083 109.382 97.0769 109.211 95.4256 109.793C92.3713 110.866 89.295 111.871 86.2131 112.85C85.6498 113.029 84.9428 113.16 84.4237 112.967C83.0346 112.453 82.4961 113.112 81.8775 114.281C79.4778 118.817 75.5979 121.531 70.8701 122.848C67.3133 123.839 63.657 124.472 60.0229 125.148C58.3052 125.466 57.1288 124.427 57.289 122.766C57.8302 117.182 58.8631 111.712 61.3733 106.651C62.9391 103.489 65.4272 101.26 68.4069 99.5939C69.1828 99.1596 69.3568 98.7593 69.3044 97.8225C69.227 96.4174 69.3568 94.9356 69.7351 93.5844C70.4725 90.953 71.4169 88.3811 72.3255 85.8036C72.8474 84.3218 72.6265 83.9329 71.0496 83.8534C67.3133 83.6632 64.0299 84.7902 61.2518 87.3961C61.0778 87.5579 60.9204 87.8162 60.7216 87.856C59.9815 88.0036 59.0923 88.3754 58.5151 88.1001C57.9379 87.8219 57.2862 86.8511 57.3194 86.218C57.7971 76.5893 61.0088 68.2123 68.6968 62.2767C73.419 58.6318 78.699 58.6233 84.0232 61.0276C84.7081 61.3371 85.3681 61.7061 86.1551 62.1063C86.5915 61.6067 87.0582 61.0844 87.5138 60.5507C96.0773 50.4735 106.878 43.9928 119.103 39.8114C126.421 37.3077 133.927 35.718 141.612 35.0367C144.252 34.804 145.188 35.6556 144.97 38.2161C143.852 51.3676 140.574 63.8834 134.482 75.556C130.721 82.7634 125.822 89.0482 119.807 94.4076C119.42 94.7511 119.048 95.1088 118.603 95.5232L118.597 95.5317ZM117.485 45.0062C117.123 45.1509 116.902 45.2276 116.689 45.3269C113.544 46.8172 110.313 48.1401 107.275 49.8319C93.8515 57.309 84.8628 68.9674 78.202 82.7861C77.8816 83.4503 77.9231 83.8705 78.4533 84.4098C84.6363 90.7287 90.8 97.0646 96.9444 103.423C97.4691 103.965 97.8861 104.036 98.524 103.679C99.96 102.87 101.451 102.16 102.884 101.345C117.755 92.8776 128.848 80.9523 134.866 64.3801C135.117 63.6903 135.387 63.1311 134.714 62.4441C129.218 56.8491 123.764 51.2143 118.291 45.5994C118.045 45.3468 117.722 45.1793 117.487 45.009L117.485 45.0062ZM74.4932 80.0865C77.3984 75.2267 80.2952 70.3782 83.2307 65.4645C79.8313 63.6279 76.2385 62.9352 72.6872 64.8797C66.3578 68.3457 63.8365 74.5341 61.9145 81.4973C66.1811 79.5642 70.2709 78.8545 74.4932 80.0837V80.0865ZM99.797 120.362C105.522 118.888 110.476 116.583 114.218 112.093C117.25 108.453 117.766 104.357 116.007 99.943C115.789 99.398 115.488 98.8899 115.317 98.5464C110.465 101.604 105.767 104.562 101.142 107.477C102.401 111.82 101.598 116.024 99.7943 120.362H99.797ZM61.7599 120.237C61.8897 120.424 62.0222 120.611 62.152 120.796C65.3664 119.831 68.6167 118.974 71.7842 117.872C75.0566 116.734 77.2023 114.224 78.7791 111.133C79.232 110.245 79.232 109.626 78.445 108.899C77.0891 107.647 75.8492 106.262 74.5568 104.936C72.7305 103.057 70.7597 102.934 68.6444 104.567C63.5217 108.522 63.0329 114.557 61.7599 120.24V120.237ZM122.577 43.3626C127.313 48.2536 132.104 53.1986 136.934 58.189C138.707 52.1994 139.991 46.048 140.56 39.7262C137.42 39.4906 125.501 41.9716 122.577 43.3654V43.3626ZM75.8298 88.1625C75.0483 90.7599 74.3248 93.2863 73.5184 95.7872C73.1732 96.8602 73.466 97.6607 74.1812 98.396C77.2272 101.53 80.2538 104.684 83.3439 107.772C83.8051 108.232 84.6474 108.751 85.1582 108.618C87.8866 107.9 90.5653 106.983 93.3019 106.12C87.4144 100.068 81.7312 94.2259 75.8326 88.1625H75.8298Z" fill="white"/>
<path d="M55.7615 110.659C55.3141 111.431 55.0821 112.09 54.6458 112.541C50.0644 117.299 45.4582 122.028 40.841 126.749C39.8082 127.805 38.4302 127.864 37.6017 126.967C36.718 126.01 36.7981 124.798 37.9055 123.654C42.4647 118.942 47.0433 114.25 51.6054 109.54C52.3675 108.754 53.2706 108.274 54.2426 108.865C54.8529 109.237 55.2285 110.009 55.7587 110.659H55.7615Z" fill="white"/>
<path d="M40.0647 146.341C39.4075 145.788 38.6453 145.41 38.2946 144.786C37.7892 143.889 38.0543 142.938 38.811 142.163C41.4372 139.483 44.0468 136.786 46.662 134.095C48.6172 132.085 50.564 130.07 52.5275 128.071C53.7425 126.834 54.8941 126.689 55.8551 127.614C56.8327 128.554 56.7167 129.883 55.4961 131.143C50.9976 135.781 46.4991 140.417 41.9729 145.027C41.498 145.509 40.849 145.81 40.0675 146.341H40.0647Z" fill="white"/>
<path d="M73.6647 129.099C73.1924 129.882 72.9467 130.527 72.5131 130.978C67.9649 135.699 63.3891 140.397 58.8077 145.084C57.6451 146.27 56.3941 146.338 55.4801 145.347C54.6682 144.465 54.7897 143.102 55.8418 142.018C60.4039 137.308 64.9769 132.616 69.5472 127.915C70.3039 127.135 71.2124 126.658 72.1817 127.296C72.7782 127.691 73.1455 128.446 73.6647 129.099Z" fill="white"/>
<path d="M56.5536 93.0961C57.1114 93.5333 57.9371 93.8625 58.1608 94.4388C58.4121 95.086 58.4093 96.23 58.0089 96.6842C56.0013 98.9608 53.8611 101.118 51.6905 103.236C50.8124 104.093 49.7575 103.934 48.929 103.06C48.0923 102.18 48.0177 101.09 48.8324 100.204C50.8262 98.0411 52.8946 95.949 54.9767 93.8739C55.3164 93.5361 55.866 93.4225 56.5536 93.0933V93.0961Z" fill="white"/>
<path d="M79.9773 134.598C79.4692 134.158 78.6987 133.791 78.4502 133.195C78.2017 132.599 78.1934 131.509 78.5662 131.092C80.6511 128.758 82.8327 126.504 85.0944 124.35C85.8953 123.586 86.9861 123.805 87.74 124.665C88.4911 125.519 88.5767 126.621 87.8339 127.433C85.7848 129.675 83.6336 131.818 81.4851 133.959C81.1814 134.263 80.6511 134.322 79.9801 134.595L79.9773 134.598Z" fill="white"/>
<path d="M113.091 78.6757C107.278 78.6842 102.531 73.8216 102.525 67.8518C102.52 61.8708 107.237 57.0024 113.05 56.9939C118.874 56.9854 123.601 61.8282 123.61 67.8093C123.618 73.796 118.901 78.6672 113.091 78.6757ZM113.085 74.3297C116.582 74.324 119.409 71.3832 119.382 67.778C119.357 64.2297 116.57 61.3655 113.119 61.3399C109.617 61.3144 106.753 64.224 106.748 67.8149C106.742 71.4059 109.592 74.3382 113.083 74.3297H113.085Z" fill="white"/>
<path d="M97.8908 85.446C97.46 85.1054 96.6481 84.7733 96.4106 84.1942C96.1482 83.5526 96.1317 82.4569 96.5072 81.9573C97.4986 80.6401 98.664 79.3968 99.9674 78.4175C100.5 78.0172 101.685 78.1279 102.373 78.4572C103.328 78.9114 103.613 80.1718 103.005 80.9467C101.82 82.4626 100.36 83.7513 98.9843 85.1025C98.8076 85.2757 98.4652 85.2729 97.8908 85.446Z" fill="white"/>
<path d="M94.2795 89.2328C94.3181 90.3797 93.451 91.359 92.3243 91.4328C91.1313 91.5123 90.1482 90.5983 90.1123 89.3748C90.0764 88.1485 91.0043 87.1521 92.1862 87.1521C93.3019 87.1521 94.2408 88.0832 94.2795 89.23V89.2328Z" fill="white"/>
</svg>
