<svg width="182" height="182" viewBox="0 0 182 182" fill="none" xmlns="http://www.w3.org/2000/svg">
<circle cx="91" cy="91" r="91" fill="#00ADB5"/>
<path d="M92.8707 66.5782C92.744 66.7769 92.7 66.8138 92.6945 66.8564C92.3953 69.1212 93.3212 70.2536 95.4722 70.2536C100.722 70.2536 105.972 70.2536 111.222 70.2536C111.643 70.2536 112.07 70.2337 112.485 70.282C113.589 70.4097 114.198 71.0653 114.145 72.2119C114.093 73.3954 113.361 73.9062 112.271 73.9119C109.223 73.9232 106.178 73.9204 103.131 73.9204C99.7117 73.9204 96.2926 73.9204 92.7413 73.9204V79.5682H94.2884C102.96 79.5682 111.632 79.5682 120.304 79.5682C122.715 79.5682 123.194 79.0801 123.197 76.6223C123.2 74.156 123.247 71.6897 123.158 69.229C123.139 68.6926 122.759 67.9718 122.327 67.6823C120.122 66.2064 119.142 63.7714 119.849 61.1603C120.463 58.8927 122.649 57.2437 125.028 57.2494C127.412 57.2579 129.545 58.9069 130.159 61.2142C130.853 63.831 129.878 66.2263 127.637 67.6993C127.23 67.9661 126.85 68.6217 126.834 69.1127C126.754 71.6244 126.798 74.1389 126.795 76.6507C126.792 81.1349 124.78 83.2351 120.472 83.2351C111.8 83.2379 103.128 83.2351 94.4564 83.2351C93.9058 83.2351 93.3552 83.2351 92.7055 83.2351V88.7183C93.19 88.7467 93.6828 88.7977 94.1756 88.7977C107.065 88.8034 119.957 88.7864 132.846 88.829C133.87 88.8318 134.423 88.4997 134.96 87.6171C136.24 85.5027 138.79 84.6002 140.964 85.3381C143.299 86.1271 144.799 88.2131 144.799 90.6624C144.799 93.1514 143.214 95.2942 140.827 96.0321C138.644 96.7075 136.13 95.7426 134.875 93.5885C134.393 92.7626 133.881 92.5043 132.981 92.5071C119.998 92.5355 107.012 92.527 94.0297 92.5298C93.6195 92.5298 93.2093 92.5781 92.7027 92.6121V98.0187C93.2423 98.0443 93.7819 98.0925 94.3215 98.0925C103.04 98.0982 111.759 98.0925 120.477 98.0982C124.733 98.0982 126.787 100.204 126.792 104.552C126.795 107.115 126.751 109.678 126.831 112.238C126.847 112.726 127.236 113.379 127.64 113.648C129.876 115.118 130.853 117.525 130.154 120.139C129.537 122.446 127.401 124.09 125.017 124.098C122.644 124.107 120.455 122.446 119.844 120.179C119.139 117.565 120.111 115.135 122.333 113.665C122.743 113.393 123.139 112.743 123.156 112.255C123.236 109.55 123.208 106.842 123.186 104.135C123.172 102.404 122.528 101.782 120.714 101.776C115.511 101.762 110.308 101.771 105.105 101.771C101.03 101.771 96.956 101.771 92.7413 101.771V107.419C93.2726 107.419 93.7736 107.419 94.2719 107.419C100.037 107.419 105.804 107.407 111.569 107.436C112.202 107.438 112.981 107.467 113.424 107.833C113.843 108.176 114.187 109.05 114.06 109.556C113.917 110.126 113.289 110.745 112.73 110.98C112.122 111.236 111.348 111.088 110.646 111.088C105.163 111.094 99.6787 111.136 94.1948 111.057C92.8734 111.037 92.4247 111.46 92.5899 112.768C92.667 113.376 92.6036 114 92.6036 114.769C96.221 114.769 99.6787 114.746 103.134 114.775C105.889 114.798 107.959 116.412 108.634 119.055C108.785 119.651 108.805 120.295 108.807 120.917C108.824 124.155 108.838 127.393 108.802 130.631C108.794 131.44 109.014 131.9 109.73 132.34C111.96 133.705 112.876 136.242 112.177 138.706C111.514 141.042 109.432 142.622 107.015 142.628C104.535 142.634 102.473 141.036 101.798 138.592C101.14 136.208 102.071 133.694 104.243 132.357C104.942 131.926 105.212 131.5 105.201 130.671C105.157 127.433 105.193 124.195 105.179 120.956C105.171 119.154 104.565 118.533 102.809 118.524C99.5741 118.51 96.3394 118.51 93.1074 118.533C92.7193 118.535 92.1687 118.598 91.9732 118.856C90.8555 120.329 89.3689 120.426 87.775 120.221C78.5692 119.035 71.351 114.485 66.3792 106.402C55.6262 88.9254 65.6387 65.2273 85.2836 61.5378C86.5252 61.305 87.7943 61.0638 89.0413 61.1064C89.8645 61.1348 90.8363 61.4782 91.4391 62.0288C92.1054 62.639 92.7082 62.8461 93.5369 62.8376C96.6312 62.8064 99.7255 62.8348 102.817 62.8206C104.573 62.8121 105.174 62.199 105.182 60.3883C105.196 57.1983 105.16 54.0083 105.204 50.8183C105.215 49.9612 105.017 49.456 104.24 48.9877C102.068 47.6736 101.143 45.1335 101.804 42.7524C102.484 40.3059 104.543 38.7194 107.026 38.7251C109.443 38.7308 111.527 40.3173 112.182 42.653C112.876 45.1222 111.96 47.6509 109.727 49.0132C109.003 49.456 108.796 49.9214 108.805 50.7246C108.838 54.0111 108.832 57.2976 108.816 60.5842C108.796 64.2141 106.52 66.5527 102.99 66.5726C100.037 66.5896 97.0854 66.5754 94.1315 66.5754C93.6745 66.5754 93.2203 66.5754 92.8707 66.5754V66.5782ZM88.9037 116.41V64.9407C78.7867 65.04 65.6909 74.5675 65.6386 90.5943C65.5863 106.576 78.605 116.276 88.9037 116.41ZM107.043 42.4402C105.862 42.514 105.242 43.2036 105.251 44.285C105.259 45.3776 105.895 46.0786 107.032 46.0446C108.138 46.0134 108.791 45.3606 108.774 44.2367C108.758 43.1157 108.07 42.5253 107.043 42.4402ZM125.074 120.346C126.143 120.196 126.801 119.591 126.757 118.453C126.715 117.321 126.035 116.685 124.942 116.722C123.847 116.759 123.216 117.457 123.249 118.581C123.282 119.719 123.99 120.267 125.074 120.343V120.346ZM107.046 135.283C105.851 135.337 105.229 136.021 105.253 137.114C105.275 138.192 105.906 138.919 107.04 138.885C108.141 138.85 108.783 138.172 108.777 137.057C108.769 135.922 108.075 135.348 107.046 135.283ZM124.964 64.6597C126.035 64.5717 126.735 64.0211 126.759 62.8802C126.784 61.7506 126.151 61.0666 125.055 61.0354C123.96 61.007 123.285 61.6541 123.252 62.7809C123.219 63.9161 123.885 64.5149 124.964 64.6597ZM141.176 90.6028C141.064 89.5725 140.521 88.8687 139.409 88.8772C138.319 88.8857 137.658 89.53 137.653 90.668C137.647 91.8061 138.311 92.4617 139.395 92.4702C140.491 92.4788 141.077 91.809 141.174 90.6028H141.176Z" fill="white"/>
<path d="M92.6066 46.1326C92.6066 48.4514 92.6286 50.7729 92.601 53.0917C92.5708 55.7992 91.2769 57.153 88.6396 57.3119C74.1013 58.1889 61.4846 69.7598 59.0015 84.4981C56.0366 102.1 65.8728 118.209 82.5776 122.988C84.5487 123.553 86.6189 123.8 88.6644 124.01C91.2879 124.283 92.5873 125.557 92.601 128.276C92.6258 132.916 92.6286 137.554 92.601 142.194C92.5845 144.998 91.0622 146.457 88.334 146.329C87.354 146.284 86.3684 146.187 85.3994 146.031C83.2438 145.688 81.6581 143.857 81.2672 141.323C81.0387 139.844 80.802 138.368 80.5983 136.887C80.4936 136.132 80.1716 135.754 79.3925 135.558C75.453 134.576 71.7448 132.973 68.2706 130.827C67.4502 130.322 66.9079 130.325 66.1674 130.946C65.0084 131.92 63.7613 132.788 62.517 133.651C60.3229 135.175 57.9994 135.11 56.0779 133.271C53.815 131.105 51.6099 128.866 49.5287 126.519C47.7035 124.461 47.6897 122.066 49.2341 119.756C50.0847 118.484 50.9326 117.204 51.8576 115.992C52.3697 115.323 52.4082 114.815 51.9705 114.068C49.8287 110.407 48.3008 106.479 47.2107 102.353C47.0895 101.898 46.4977 101.373 46.0352 101.26C44.6284 100.914 43.1776 100.749 41.7434 100.522C38.9601 100.079 37.2038 98.2771 37.0936 95.4106C36.9725 92.283 36.967 89.1412 37.0881 86.0136C37.2038 83.0279 38.9244 81.2655 41.8039 80.8199C43.2382 80.5985 44.689 80.4282 46.093 80.0735C46.5445 79.96 47.1006 79.4008 47.2245 78.9354C48.3064 74.8599 49.8094 70.9717 51.9237 67.3503C52.3834 66.5613 52.3697 66.022 51.8108 65.304C50.8748 64.1006 50.0352 62.815 49.1873 61.5378C47.6897 59.2787 47.6869 56.9032 49.4653 54.891C51.6071 52.4701 53.8673 50.1485 56.2183 47.9433C58.06 46.2149 60.3449 46.2064 62.4371 47.6453C63.7228 48.528 64.9974 49.439 66.2087 50.4267C66.8969 50.9886 67.409 51.0511 68.188 50.5657C71.698 48.3889 75.4585 46.8138 79.42 45.7126C79.8715 45.5877 80.4138 45.0087 80.5294 44.5405C80.868 43.1413 81.0305 41.6938 81.2369 40.2606C81.6857 37.1131 83.2356 35.5437 86.2665 35.2116C87.0566 35.1236 87.8522 35.0215 88.6451 35.0016C91.0264 34.9448 92.5432 36.4093 92.5956 38.887C92.6479 41.3022 92.6066 43.7202 92.6121 46.1355L92.6066 46.1326ZM88.8873 127.895C69.0993 126.851 55.1832 109.516 54.8033 91.9736C54.6133 83.255 56.8927 75.3509 61.9967 68.4032C68.7138 59.2588 77.7765 54.4539 88.8901 53.5089V38.8018C88.3285 38.8018 87.8632 38.7791 87.4007 38.8046C85.292 38.9324 85.1131 39.0743 84.7442 41.1688C84.4276 42.9738 84.089 44.7789 83.8935 46.5981C83.7421 48.0228 83.0732 48.7238 81.738 49.0161C76.9699 50.0549 72.5542 52.0018 68.4716 54.7321C67.442 55.4217 66.6023 55.3337 65.6581 54.6044C63.9705 53.3017 62.2279 52.0784 60.5266 50.7956C59.764 50.2223 59.0566 50.2053 58.3848 50.8893C56.3862 52.9214 54.4041 54.9705 52.4082 57.0054C51.5493 57.8824 51.6154 58.7196 52.3256 59.6902C53.5947 61.4243 54.7702 63.2293 56.0146 64.9833C56.5844 65.7865 56.6367 66.5641 56.1109 67.3928C53.3167 71.8061 51.3979 76.5968 50.3132 81.7451C50.1013 82.7555 49.5259 83.3061 48.499 83.465C46.4178 83.7857 44.3504 84.2171 42.2664 84.5378C41.2175 84.6996 40.6339 85.2246 40.6312 86.3258C40.6174 89.2207 40.6147 92.1155 40.6284 95.0104C40.6339 96.0974 41.1983 96.6508 42.2526 96.8154C44.243 97.1248 46.2141 97.5704 48.2072 97.84C49.4626 98.0103 50.1205 98.6091 50.3848 99.8778C51.4309 104.884 53.325 109.536 56.0338 113.827C56.6285 114.769 56.5899 115.592 55.9485 116.486C54.7234 118.195 53.5837 119.969 52.3339 121.657C51.5603 122.699 51.6181 123.556 52.5046 124.453C54.4426 126.411 56.3642 128.389 58.283 130.365C59.0483 131.154 59.7888 131.134 60.6477 130.475C62.3766 129.153 64.1605 127.901 65.9003 126.59C66.6767 126.005 67.4172 125.923 68.2321 126.468C72.5157 129.34 77.1488 131.344 82.1482 132.451C83.1144 132.666 83.6705 133.251 83.8219 134.318C84.1275 136.467 84.5515 138.598 84.8543 140.746C85.0195 141.913 85.6169 142.455 86.718 142.475C87.4063 142.486 88.0973 142.475 88.8956 142.475V127.893L88.8873 127.895Z" fill="white"/>
</svg>
