<?xml version="1.0" encoding="utf-8"?>
<!-- Generator: Adobe Illustrator 26.3.1, SVG Export Plug-In . SVG Version: 6.00 Build 0)  -->
<svg version="1.1" id="Layer_1" xmlns="http://www.w3.org/2000/svg" xmlns:xlink="http://www.w3.org/1999/xlink" x="0px" y="0px"
	 viewBox="0 0 133 133" style="enable-background:new 0 0 133 133;" xml:space="preserve">
<style type="text/css">
	.st0{fill:#171A40;}
</style>
<g>
	<g>
		<path class="st0" d="M66.5,128c-2,0-4-0.1-5.9-0.3c-12.1-1.2-22.9-5.6-32.4-13.2c-9.4-7.6-16.1-17.1-19.9-28.6
			c-1.1-3.3-1.9-6.7-2.4-10.1C5.3,72.3,5,68.7,5.2,65.1c0.5-15.3,5.8-28.7,16-40.1C28.3,17.2,37,11.6,47.1,8.2c3-1,6.1-1.8,9.3-2.3
			c1.9-0.3,3.8-0.5,5.7-0.7C64.5,5,67,5,69.4,5.1c1.3,0.1,2.7,0.2,4,0.3c2.5,0.3,4.9,0.7,7.3,1.3c11.1,2.7,20.8,8,28.9,16.1
			c7.9,7.9,13.3,17.2,16.2,28c0.7,2.6,1.2,5.3,1.5,8c0.4,3.2,0.6,6.5,0.4,9.8c-0.1,1.9-0.2,3.8-0.4,5.6c-0.5,4-1.4,7.9-2.6,11.7
			c-5.1,15.2-15.9,27.9-30.1,35.3c-5,2.6-10.2,4.4-15.7,5.6c-2.1,0.4-4.3,0.8-6.5,1C70.5,127.9,68.5,128,66.5,128z M74.9,70.1
			L74.9,70.1c0-0.2-0.1-0.3-0.1-0.5c-1.5-5.1-3-10.3-4.4-15.4c-0.1-0.4-0.2-0.7-0.2-1.1c0-4.6-0.1-9.2-0.1-13.8
			c0-5.8-0.1-11.6-0.1-17.4c0-1.6,0-3.1,0-4.7c0-0.2,0.1-0.4-0.2-0.6c-0.4,0-0.9,0-1.4-0.1c-1.8-0.1-3.7,0-5.5,0.1
			c-1.8,0.1-3.7,0.4-5.5,0.7c-1.7,0.3-3.4,0.7-5.1,1.2c-0.2,0.1-0.3,0.1-0.5,0.2c0,0.3,0,0.5,0,0.8c0,9.5,0,19,0,28.4
			c0,0.4,0,0.8-0.2,1.1c-2,7-4,14-6,20.9c-3.4,11.9-6.8,23.7-10.3,35.6c-0.7,2.4-0.4,4.7,0.9,6.8c1.9,3,4.6,4.5,8.1,4.5
			c7.1,0,14.3,0,21.4,0c7.7,0,15.5,0,23.2,0c0.4,0,0.8,0,1.2-0.1c1-0.3,2-0.6,3-1.1c4.3-2.3,5.2-7.4,4.3-10.5
			c-1.4-4.7-2.7-9.4-4.1-14.1c-4-14-8.1-28-12.1-41.9c-0.1-0.5-0.2-0.9-0.2-1.4c0-9.4,0-18.9,0-28.3c0-0.3,0-0.5,0-0.8
			c-0.2-0.1-0.3-0.1-0.4-0.2c-2.1-0.6-4.3-1.1-6.4-1.5c-0.2,0-0.5-0.1-0.7,0c0,0.2,0,0.4,0,0.6c0,11.8,0,23.7,0,35.5
			c0,0.4,0.1,0.7,0.1,1c0.9,3.2,1.8,6.4,2.7,9.5c0.6,2,1.1,4,1.7,5.9c0,0.1,0.1,0.3,0,0.4c-0.1,0-0.1,0-0.1,0c-0.9,0-1.9,0-2.8,0
			C75.1,70.1,75,70.1,74.9,70.1z"/>
		<path class="st0" d="M74.9,70.1c0.5,1.6,0.9,3.2,1.4,4.8c3.1,10.7,6.2,21.4,9.2,32.1c0.3,1.1,0.6,2.2,1,3.4
			c0.1,0.2,0.1,0.4,0.2,0.6c-0.1,0-0.2,0.1-0.3,0.1c-0.2,0-0.3,0-0.5,0c-13.8,0-27.6,0-41.4,0c-0.5,0-1.1,0-1.6-0.2
			c-0.2-0.1-0.4-0.1-0.6-0.2c-1.3-0.6-2-2-1.6-3.4c1.1-3.9,2.3-7.9,3.4-11.8c2.3-8.1,4.7-16.3,7-24.4c0.1-0.3,0.1-0.5,0.3-0.8
			c0.2,0,0.5,0,0.7,0c7.3,0,14.6,0,21.9,0C74.4,70.1,74.7,70.1,74.9,70.1C74.9,70.1,74.9,70.1,74.9,70.1z M52.2,82.9
			c-0.5,0-0.9,0.2-1.2,0.6c-0.3,0.4-0.5,0.9-0.6,1.3c-1.4,4.8-2.7,9.5-4.1,14.3c-0.3,1.2-0.7,2.3-1,3.5c-0.1,0.4-0.1,0.8,0,1.2
			c0.2,0.5,0.6,0.9,1.1,1c0.6,0.1,1.8-0.4,1.8-1.1c0-0.1,0.1-0.2,0.1-0.4c0.4-1.3,0.8-2.7,1.2-4c1.4-4.7,2.7-9.4,4.1-14.1
			c0.1-0.4,0.2-0.8,0.1-1.2C53.5,83.3,53,82.9,52.2,82.9z"/>
		<path class="st0" d="M89.9,110.2c-0.1-0.1-0.1-0.1-0.1-0.2c-3.8-13.2-7.6-26.4-11.4-39.6c0-0.1,0-0.1,0-0.2
			c0.4-0.1,2.1-0.1,3.1-0.1c0.2,0.2,0.2,0.4,0.3,0.7c0.8,2.7,1.6,5.5,2.4,8.2c2.7,9.2,5.3,18.5,8,27.7c0.3,1.1,0,2-0.7,2.8
			C91,110,90.5,110.2,89.9,110.2z"/>
	</g>
</g>
</svg>
