<svg width="38" height="38" viewBox="0 0 38 38" fill="none" xmlns="http://www.w3.org/2000/svg">
<path d="M26.917 3.16675H11.0837C6.7114 3.16675 3.16699 6.71116 3.16699 11.0834V26.9167C3.16699 31.289 6.7114 34.8334 11.0837 34.8334H26.917C31.2892 34.8334 34.8337 31.289 34.8337 26.9167V11.0834C34.8337 6.71116 31.2892 3.16675 26.917 3.16675Z" stroke="white" stroke-width="1.5" stroke-linecap="round" stroke-linejoin="round"/>
<path d="M25.3335 18.0025C25.5289 19.3202 25.3038 20.666 24.6903 21.8484C24.0768 23.0309 23.106 23.9897 21.9161 24.5886C20.7262 25.1876 19.3777 25.396 18.0625 25.1844C16.7473 24.9727 15.5323 24.3518 14.5903 23.4098C13.6484 22.4679 13.0274 21.2529 12.8158 19.9377C12.6042 18.6224 12.8126 17.274 13.4115 16.0841C14.0105 14.8942 14.9693 13.9234 16.1517 13.3099C17.3342 12.6963 18.68 12.4713 19.9977 12.6667C21.3418 12.866 22.5862 13.4923 23.547 14.4531C24.5079 15.414 25.1342 16.6584 25.3335 18.0025Z" stroke="white" stroke-width="1.5" stroke-linecap="round" stroke-linejoin="round"/>
<path d="M27.708 10.2917H27.7249" stroke="white" stroke-width="1.5" stroke-linecap="round" stroke-linejoin="round"/>
</svg>
