<svg width="16" height="15" viewBox="0 0 16 15" fill="none" xmlns="http://www.w3.org/2000/svg">
<path fill-rule="evenodd" clip-rule="evenodd" d="M7.93848 1C4.34863 1 1.43848 3.91015 1.43848 7.5C1.43848 11.0899 4.34863 14 7.93848 14C11.5283 14 14.4385 11.0899 14.4385 7.5C14.4385 3.91015 11.5283 1 7.93848 1ZM0.438477 7.5C0.438477 3.35786 3.79634 0 7.93848 0C12.0806 0 15.4385 3.35786 15.4385 7.5C15.4385 11.6421 12.0806 15 7.93848 15C3.79634 15 0.438477 11.6421 0.438477 7.5Z" fill="white"/>
<path fill-rule="evenodd" clip-rule="evenodd" d="M0.438477 7.5C0.438477 7.22386 0.662334 7 0.938477 7H14.9385C15.2146 7 15.4385 7.22386 15.4385 7.5C15.4385 7.77614 15.2146 8 14.9385 8H0.938477C0.662334 8 0.438477 7.77614 0.438477 7.5Z" fill="white"/>
<path fill-rule="evenodd" clip-rule="evenodd" d="M7.9377 0C8.07816 0 8.21214 0.0590803 8.30687 0.162788C10.1395 2.16912 11.181 4.77283 11.2376 7.48959C11.2377 7.49292 11.2377 7.49625 11.2377 7.49958C11.2377 7.50319 11.2377 7.5068 11.2376 7.51041C11.181 10.2272 10.1395 12.8309 8.30687 14.8372C8.21214 14.9409 8.07816 15 7.9377 15C7.79724 15 7.66325 14.9409 7.56852 14.8372C5.73589 12.8309 4.6944 10.2272 4.6378 7.51041C4.63766 7.50347 4.63766 7.49653 4.6378 7.48959C4.6944 4.77283 5.73589 2.16912 7.56852 0.162788C7.66325 0.0590803 7.79724 0 7.9377 0ZM5.63781 7.5C5.68768 9.78199 6.50046 11.9759 7.9377 13.7355C9.37493 11.9759 10.1877 9.78199 10.2376 7.5C10.1877 5.21801 9.37493 3.02414 7.9377 1.26451C6.50046 3.02414 5.68768 5.21801 5.63781 7.5Z" fill="white"/>
</svg>
