<svg width="38" height="38" viewBox="0 0 38 38" fill="none" xmlns="http://www.w3.org/2000/svg">
<path d="M25.333 12.6667C27.8526 12.6667 30.2689 13.6676 32.0505 15.4492C33.8321 17.2308 34.833 19.6472 34.833 22.1667V33.2501H28.4997V22.1667C28.4997 21.3269 28.166 20.5214 27.5722 19.9276C26.9783 19.3337 26.1729 19.0001 25.333 19.0001C24.4932 19.0001 23.6877 19.3337 23.0938 19.9276C22.5 20.5214 22.1663 21.3269 22.1663 22.1667V33.2501H15.833V22.1667C15.833 19.6472 16.8339 17.2308 18.6155 15.4492C20.3971 13.6676 22.8135 12.6667 25.333 12.6667V12.6667Z" stroke="white" stroke-width="1.5" stroke-linecap="round" stroke-linejoin="round"/>
<path d="M9.50033 14.25H3.16699V33.25H9.50033V14.25Z" stroke="white" stroke-width="1.5" stroke-linecap="round" stroke-linejoin="round"/>
<path d="M6.33366 9.50008C8.08256 9.50008 9.50033 8.08232 9.50033 6.33342C9.50033 4.58451 8.08256 3.16675 6.33366 3.16675C4.58476 3.16675 3.16699 4.58451 3.16699 6.33342C3.16699 8.08232 4.58476 9.50008 6.33366 9.50008Z" stroke="white" stroke-width="1.5" stroke-linecap="round" stroke-linejoin="round"/>
</svg>
