<svg width="97" height="43" viewBox="0 0 97 43" fill="none" xmlns="http://www.w3.org/2000/svg">
<path d="M26.9432 0.388702H11.6299V8.18688C11.6567 8.18688 11.6836 8.18841 11.7104 8.19148C13.248 8.30822 14.4501 9.48324 14.544 10.8457C14.641 12.2465 14.28 12.9576 13.9698 13.4737C13.6164 14.062 12.8274 14.9529 11.6299 16.1648V32.3786H26.9432C35.1323 32.3786 43.5242 26.2992 43.5242 16.3829C43.5242 6.46658 35.6036 0.388702 26.9432 0.388702Z" fill="#00ADB5"/>
<path d="M12.9644 25.0996C13.2747 24.5466 14.8331 23.4315 15.3342 22.8493C15.8353 22.2687 21.1088 18.1892 22.1707 14.2878C22.5375 12.9407 22.7702 11.4539 22.4436 8.76133C22.1378 6.25 21.0342 4.7386 19.2834 3.03827C17.5907 1.39323 14.5945 0.453214 11.6297 0.391774C11.5268 0.390238 11.4239 0.388702 11.3225 0.388702C8.52763 0.388702 6.17426 1.30107 4.29066 2.74182C1.50628 4.87377 0.660675 8.05017 0.310204 11.8487H8.22339C8.33525 10.0792 9.12269 8.04249 11.6297 8.18688C11.6565 8.18688 11.6834 8.18841 11.7102 8.19148C13.2478 8.30822 14.4498 9.48324 14.5438 10.8457C14.6407 12.2465 14.2798 12.9576 13.9696 13.4737C13.6162 14.062 12.8272 14.9529 11.6297 16.1648C10.9093 16.8944 10.0429 17.7407 9.0347 18.7068C5.70299 21.8909 0 27.3421 0 27.3421V32.3786H22.979V25.0996H12.9644Z" fill="white"/>
<path d="M70.1164 9.31121H64.136V9.31582L63.9675 11.0054C63.9675 11.0054 61.7423 8.87499 56.7433 8.89649C51.61 8.92107 46.6452 12.2557 46.1755 19.8235C45.6967 27.5325 50.3513 32.4308 56.5748 32.4308C62.2151 32.4308 63.8616 30.3465 63.8616 30.3465L64.1375 32.3985L70.1179 32.4016V9.31121H70.1164ZM58.1556 25.6233C55.5517 25.6233 53.4399 23.4484 53.4399 20.7666C53.4399 18.0847 55.5517 15.9113 58.1556 15.9113C60.7595 15.9113 62.8698 18.0847 62.8698 20.7666C62.8698 23.4484 60.7595 25.6233 58.1556 25.6233Z" fill="white"/>
<path d="M73.2119 9.31122H80.9864L85.0787 21.4071L89.253 9.31122H96.9992V10.1099L84.685 42.6113H76.8434V41.808L81.1848 30.3127L73.2119 10.093V9.31122Z" fill="white"/>
<path d="M37.6917 13.1788C37.6917 9.53548 34.8238 6.58179 31.2863 6.58179C27.7488 6.58179 24.8809 9.53548 24.8809 13.1788C24.8809 15.79 26.3543 18.0479 28.4929 19.1169V20.7574C28.4929 21.0861 28.751 21.3518 29.0701 21.3518H33.3429C33.662 21.3518 33.92 21.0861 33.92 20.7574V19.1937C36.1437 18.16 37.6932 15.856 37.6932 13.1804L37.6917 13.1788Z" fill="white"/>
<path d="M33.0839 9.54313C32.6588 9.54313 32.3158 9.89794 32.3158 10.3342C32.3158 10.4862 32.3591 10.6291 32.4306 10.7489L31.4434 11.7657L31.4553 11.778H31.4434V21.2473H31.8863V11.9546L32.7632 11.0515C32.8602 11.0975 32.969 11.1237 33.0824 11.1237C33.5059 11.1237 33.8489 10.7688 33.8489 10.3326C33.8489 9.89641 33.5059 9.5416 33.0824 9.5416L33.0839 9.54313ZM33.0839 10.755C32.8572 10.755 32.6737 10.5661 32.6737 10.3326C32.6737 10.0992 32.8572 9.91023 33.0839 9.91023C33.3106 9.91023 33.4925 10.0992 33.4925 10.3326C33.4925 10.5661 33.3091 10.755 33.0839 10.755Z" fill="#00ADB5"/>
<path d="M34.7321 13.0221C34.4488 13.0221 34.2191 13.2586 34.2191 13.5505C34.2191 13.6042 34.2296 13.6534 34.243 13.7025L32.6935 15.2984V13.6718L33.6942 12.7257C33.7911 12.7717 33.9 12.7979 34.0133 12.7979C34.4369 12.7979 34.7799 12.443 34.7799 12.0068C34.7799 11.5706 34.4369 11.2158 34.0133 11.2158C33.5898 11.2158 33.2453 11.5706 33.2453 12.0068C33.2453 12.1589 33.2885 12.3017 33.3601 12.4215L32.249 13.4814L32.261 13.4936H32.249V21.2872H32.692V15.942L34.5398 14.0389C34.5994 14.0635 34.6635 14.0773 34.7307 14.0773C35.014 14.0773 35.2437 13.8408 35.2437 13.5489C35.2437 13.2571 35.014 13.0206 34.7307 13.0206L34.7321 13.0221ZM34.0148 11.632C34.2146 11.632 34.3772 11.7995 34.3772 12.0053C34.3772 12.2111 34.2146 12.3785 34.0148 12.3785C33.815 12.3785 33.6524 12.2111 33.6524 12.0053C33.6524 11.7995 33.815 11.632 34.0148 11.632ZM34.7321 13.8285C34.5845 13.8285 34.4622 13.7041 34.4622 13.5505C34.4622 13.3969 34.583 13.2725 34.7321 13.2725C34.8813 13.2725 35.0021 13.3969 35.0021 13.5505C35.0021 13.7041 34.8813 13.8285 34.7321 13.8285Z" fill="#00ADB5"/>
<path d="M34.3828 17.2722V16.1371C34.5498 16.0618 34.6662 15.8913 34.6662 15.6917C34.6662 15.4229 34.4559 15.2063 34.1949 15.2063C33.9339 15.2063 33.7236 15.4244 33.7236 15.6917C33.7236 15.8898 33.84 16.0603 34.007 16.1371V17.2737C33.8414 17.349 33.7236 17.5195 33.7236 17.7192C33.7236 17.988 33.9354 18.2045 34.1949 18.2045C34.4544 18.2045 34.6662 17.9864 34.6662 17.7192C34.6662 17.5195 34.5498 17.349 34.3828 17.2737V17.2722ZM33.9265 15.6917C33.9265 15.5396 34.0458 15.4152 34.1949 15.4152C34.344 15.4152 34.4633 15.5381 34.4633 15.6917C34.4633 15.8453 34.344 15.9681 34.1949 15.9681C34.0458 15.9681 33.9265 15.8453 33.9265 15.6917ZM34.1949 17.9941C34.0473 17.9941 33.9265 17.8712 33.9265 17.7176C33.9265 17.564 34.0458 17.4412 34.1949 17.4412C34.344 17.4412 34.4633 17.564 34.4633 17.7176C34.4633 17.8712 34.344 17.9941 34.1949 17.9941Z" fill="#00ADB5"/>
<path d="M36.9046 12.7395C36.9046 12.4707 36.6943 12.2541 36.4333 12.2541C36.1723 12.2541 35.962 12.4722 35.962 12.7395C35.962 12.9422 36.0843 13.1173 36.2558 13.1895V15.942L35.6369 16.5794C35.5698 16.541 35.4937 16.518 35.4117 16.518C35.1507 16.518 34.9404 16.7361 34.9404 17.0034C34.9404 17.2706 35.1522 17.4887 35.4117 17.4887C35.6712 17.4887 35.883 17.2706 35.883 17.0034C35.883 16.9496 35.8725 16.8989 35.8576 16.8513L36.5973 16.0895V13.1926C36.7763 13.1235 36.9046 12.9468 36.9046 12.738V12.7395ZM35.4117 17.2798C35.2641 17.2798 35.1433 17.157 35.1433 17.0034C35.1433 16.8498 35.2626 16.7269 35.4117 16.7269C35.5608 16.7269 35.6801 16.8498 35.6801 17.0034C35.6801 17.157 35.5608 17.2798 35.4117 17.2798ZM36.4333 13.016C36.2856 13.016 36.1648 12.8931 36.1648 12.7395C36.1648 12.5859 36.2842 12.463 36.4333 12.463C36.5824 12.463 36.7017 12.5859 36.7017 12.7395C36.7017 12.8931 36.5824 13.016 36.4333 13.016Z" fill="#00ADB5"/>
<path d="M28.7202 10.334C28.7202 10.7703 29.0633 11.1251 29.4868 11.1251C29.6016 11.1251 29.709 11.099 29.806 11.0529L30.6829 11.956V21.2487H31.1258V11.7794H31.1139L31.1258 11.7671L30.1385 10.7503C30.2116 10.629 30.2534 10.4876 30.2534 10.3356C30.2534 9.89937 29.9104 9.54456 29.4853 9.54456C29.0603 9.54456 28.7188 9.89937 28.7188 10.3356L28.7202 10.334ZM29.0782 10.334C29.0782 10.1006 29.2616 9.91165 29.4868 9.91165C29.712 9.91165 29.8969 10.1006 29.8969 10.334C29.8969 10.5675 29.7135 10.7564 29.4868 10.7564C29.2601 10.7564 29.0782 10.5675 29.0782 10.334Z" fill="#00ADB5"/>
<path d="M27.3257 13.5489C27.3257 13.8408 27.5554 14.0773 27.8387 14.0773C27.9059 14.0773 27.97 14.0635 28.0296 14.0389L29.8774 15.942V21.2872H30.3204V13.4936H30.3084L30.3204 13.4814L29.2093 12.4215C29.2824 12.3002 29.3241 12.1589 29.3241 12.0068C29.3241 11.5706 28.9811 11.2158 28.5561 11.2158C28.131 11.2158 27.7895 11.5706 27.7895 12.0068C27.7895 12.443 28.1325 12.7979 28.5561 12.7979C28.6709 12.7979 28.7783 12.7717 28.8752 12.7257L29.8759 13.6718V15.2984L28.3264 13.7025C28.3398 13.6549 28.3503 13.6042 28.3503 13.5505C28.3503 13.2586 28.1206 13.0221 27.8372 13.0221C27.5539 13.0221 27.3242 13.2586 27.3242 13.5505L27.3257 13.5489ZM28.9185 12.0053C28.9185 12.2111 28.7559 12.3785 28.5561 12.3785C28.3562 12.3785 28.1937 12.2111 28.1937 12.0053C28.1937 11.7995 28.3562 11.632 28.5561 11.632C28.7559 11.632 28.9185 11.7995 28.9185 12.0053ZM27.5673 13.5489C27.5673 13.3969 27.6881 13.2709 27.8372 13.2709C27.9864 13.2709 28.1072 13.3953 28.1072 13.5489C28.1072 13.7025 27.9864 13.827 27.8372 13.827C27.6881 13.827 27.5673 13.7025 27.5673 13.5489Z" fill="#00ADB5"/>
<path d="M27.9043 17.7176C27.9043 17.9864 28.1146 18.203 28.3756 18.203C28.6366 18.203 28.8468 17.9849 28.8468 17.7176C28.8468 17.5195 28.7305 17.349 28.5635 17.2722V16.1355C28.729 16.0603 28.8468 15.8898 28.8468 15.6901C28.8468 15.4213 28.6351 15.2047 28.3756 15.2047C28.1161 15.2047 27.9043 15.4229 27.9043 15.6901C27.9043 15.8898 28.0206 16.0603 28.1877 16.1355V17.2706C28.0206 17.3459 27.9043 17.5164 27.9043 17.7161V17.7176ZM28.3756 15.9681C28.2279 15.9681 28.1071 15.8452 28.1071 15.6916C28.1071 15.5396 28.2264 15.4152 28.3756 15.4152C28.5247 15.4152 28.644 15.538 28.644 15.6916C28.644 15.8437 28.5247 15.9681 28.3756 15.9681ZM28.1071 17.7176C28.1071 17.5655 28.2264 17.4411 28.3756 17.4411C28.5247 17.4411 28.644 17.564 28.644 17.7176C28.644 17.8697 28.5247 17.9941 28.3756 17.9941C28.2264 17.9941 28.1071 17.8712 28.1071 17.7176Z" fill="#00ADB5"/>
<path d="M25.9732 13.1941V16.091L26.713 16.8528C26.698 16.9005 26.6876 16.9511 26.6876 17.0049C26.6876 17.2737 26.8979 17.4903 27.1589 17.4903C27.4199 17.4903 27.6301 17.2722 27.6301 17.0049C27.6301 16.7376 27.4184 16.5195 27.1589 16.5195C27.0768 16.5195 27.0008 16.5426 26.9337 16.581L26.3148 15.9435V13.1911C26.4863 13.1189 26.6086 12.9453 26.6086 12.741C26.6086 12.4722 26.3968 12.2556 26.1373 12.2556C25.8778 12.2556 25.666 12.4738 25.666 12.741C25.666 12.9499 25.7943 13.1265 25.9732 13.1957V13.1941ZM26.8904 17.0034C26.8904 16.8513 27.0097 16.7269 27.1589 16.7269C27.308 16.7269 27.4273 16.8498 27.4273 17.0034C27.4273 17.1554 27.308 17.2798 27.1589 17.2798C27.0097 17.2798 26.8904 17.157 26.8904 17.0034ZM25.8688 12.7395C25.8688 12.5874 25.9881 12.463 26.1373 12.463C26.2864 12.463 26.4057 12.5859 26.4057 12.7395C26.4057 12.8915 26.2864 13.016 26.1373 13.016C25.9881 13.016 25.8688 12.8931 25.8688 12.7395Z" fill="#00ADB5"/>
<path d="M33.4501 21.8648H29.1222C28.7845 21.8648 28.5107 22.1467 28.5107 22.4945C28.5107 22.8423 28.7845 23.1243 29.1222 23.1243H33.4501C33.7878 23.1243 34.0616 22.8423 34.0616 22.4945C34.0616 22.1467 33.7878 21.8648 33.4501 21.8648Z" fill="white"/>
<path d="M33.4501 23.3839H29.1222C28.7845 23.3839 28.5107 23.6658 28.5107 24.0136C28.5107 24.3614 28.7845 24.6434 29.1222 24.6434H33.4501C33.7878 24.6434 34.0616 24.3614 34.0616 24.0136C34.0616 23.6658 33.7878 23.3839 33.4501 23.3839Z" fill="white"/>
<path d="M32.4254 24.9014H30.1466C29.8089 24.9014 29.5352 25.1834 29.5352 25.5312C29.5352 25.879 29.8089 26.1609 30.1466 26.1609H32.4254C32.7631 26.1609 33.0369 25.879 33.0369 25.5312C33.0369 25.1834 32.7631 24.9014 32.4254 24.9014Z" fill="white"/>
</svg>
