<?xml version="1.0" encoding="utf-8"?>
<!-- Generator: Adobe Illustrator 26.3.1, SVG Export Plug-In . SVG Version: 6.00 Build 0)  -->
<svg version="1.1" id="Layer_1" xmlns="http://www.w3.org/2000/svg" xmlns:xlink="http://www.w3.org/1999/xlink" x="0px" y="0px"
	 viewBox="0 0 176.8 26.1" style="enable-background:new 0 0 176.8 26.1;" xml:space="preserve">
<style type="text/css">
	.st0{fill:#FFFFFF;}
</style>
<g>
	<g>
		<path class="st0" d="M23.7,12.5c0,5.2-4.2,9.4-9.4,9.4c-5.2,0-9.4-4.2-9.4-9.4c0-5.2,4.2-9.4,9.5-9.4C19.5,3.1,23.7,7.4,23.7,12.5
			z M15.4,4.9c0,0.2,0,0.4,0,0.5c0,1.5,0,3.1,0,4.6c0,0.3,0.1,0.6,0.1,0.9c0.1,0.6,0.3,1.1,0.5,1.7c0,0.1,0,0.2,0.1,0.3
			c-0.2,0-0.3,0-0.4,0.1c0.6,2.1,1.2,4.1,1.8,6.2c-0.1,0-0.2,0-0.3,0c-2,0-4,0-6,0c-0.1,0-0.2,0-0.3,0c-0.2-0.1-0.4-0.3-0.3-0.5
			c0-0.1,0-0.2,0.1-0.2c0.5-1.7,1-3.4,1.5-5c0-0.1,0.1-0.3,0.1-0.4c1.2,0,2.3,0,3.5,0c0-0.1,0-0.3-0.1-0.4c-0.2-0.6-0.3-1.2-0.5-1.7
			c-0.1-0.3-0.1-0.6-0.1-0.9c0-1.5,0-3.1,0-4.6c0-0.2,0-0.4,0-0.6c-0.9-0.1-1.8,0-2.8,0.3c0,0.2,0,0.3,0,0.5c0,1.2,0,2.5,0,3.7
			c0,0.2,0,0.4-0.1,0.7c-0.3,1.2-0.7,2.4-1,3.6c-0.5,1.6-0.9,3.1-1.3,4.7c-0.1,0.2-0.1,0.5-0.1,0.7c0.1,0.7,0.7,1.1,1.4,1.2
			c1.1,0,2.2,0,3.4,0c1.1,0,2.2,0,3.3,0c0.7,0,1.3-0.5,1.4-1.2c0-0.3,0-0.6-0.1-0.9c-0.8-2.7-1.5-5.4-2.3-8
			c-0.1-0.2-0.1-0.5-0.1-0.7c0-1.2,0-2.5,0-3.7c0-0.1,0-0.3,0-0.5C16.1,5.1,15.8,5,15.4,4.9z M12.4,15.3c0-0.1-0.1-0.2-0.2-0.2
			c-0.1,0-0.2,0.1-0.3,0.2c0,0,0,0.1-0.1,0.2c-0.2,0.8-0.5,1.6-0.7,2.4c0,0.1-0.1,0.2,0,0.3c0,0.1,0.1,0.2,0.2,0.2
			c0.1,0,0.2,0,0.2-0.1c0.1-0.1,0.1-0.2,0.1-0.3c0.2-0.7,0.4-1.4,0.6-2.2C12.3,15.6,12.3,15.5,12.4,15.3z"/>
		<path class="st0" d="M56.3,9.6c0.1-0.2,0.2-0.5,0.4-0.7c0.9,0,1.7,0,2.6,0c0,3.4,0,6.8,0,10.2c-0.9,0-1.8,0-2.7,0
			c-0.1-0.2-0.2-0.4-0.3-0.7c-0.1,0.1-0.2,0.1-0.3,0.2c-2.4,1.7-7.1,0.9-8.1-3.3c-0.3-1.3-0.2-2.6,0.4-3.9c0.8-1.7,2.2-2.7,4.1-2.9
			c1.4-0.2,2.6,0.1,3.7,0.9C56.2,9.6,56.2,9.6,56.3,9.6z M53.6,16.4c1.3,0,2.3-1,2.3-2.3c0-1.3-1-2.4-2.3-2.3c-1.3,0-2.3,1-2.3,2.3
			C51.3,15.4,52.3,16.4,53.6,16.4z"/>
		<path class="st0" d="M144.2,19.5c-1.3,0-2.6-0.3-3.6-1.1c-1.3-1-2-2.3-2.1-3.9c-0.1-0.7,0-1.4,0.2-2.1c0.4-1.4,1.3-2.5,2.6-3.1
			c2-1,4-1,6,0.1c2,1.1,2.9,3.2,2.7,5.2c-0.2,2.9-2.5,4.8-5.3,5C144.5,19.5,144.4,19.5,144.2,19.5z M142,14c0,1,0.5,1.8,1.4,2.2
			c1.6,0.6,3.1-0.6,3-2.3c-0.1-1.1-0.7-1.9-1.6-2.1C143.3,11.4,142,12.4,142,14z"/>
		<path class="st0" d="M100.8,19.5c-1.7,0-3.2-0.5-4.3-1.7c-1.2-1.2-1.6-2.7-1.5-4.3c0.3-3,2.5-4.7,5-4.9c1.5-0.2,3,0.1,4.3,1
			c1.4,1,2.1,2.3,2.2,4c0.1,1.6-0.3,3.1-1.5,4.3c-1,1-2.2,1.4-3.5,1.6C101.3,19.5,101,19.5,100.8,19.5z M103,14c0-1.1-0.6-2-1.6-2.2
			c-1.6-0.4-3,0.7-2.9,2.4c0.1,0.9,0.5,1.7,1.4,2C101.4,16.7,103,15.8,103,14z"/>
		<path class="st0" d="M46.8,12.9c-2.4,0.9-4.7,1.7-7.1,2.6c0.5,1,1.4,1.3,2.1,1.1c0.8-0.2,1.5-0.6,1.8-1.5c0-0.1,0.1-0.2,0.2-0.3
			c1-0.4,2-0.7,2.9-1.1c0.1,0,0.1,0,0.2,0c0.1,0.7,0,1.4-0.3,2c-0.7,1.8-2,2.9-3.8,3.4c-3.4,1-6.7-1.2-7.1-4.7
			c-0.2-2.2,0.9-4.3,3-5.4c1.6-0.8,3.2-1,4.8-0.3c1.8,0.7,2.8,2.1,3.2,3.9C46.8,12.8,46.8,12.8,46.8,12.9z M42.9,12.3
			c-0.3-0.7-1.4-1.2-2.5-0.8c-1,0.4-1.5,1.2-1.3,2.2C40.4,13.2,41.6,12.7,42.9,12.3z"/>
		<path class="st0" d="M70.6,23c0-1,0-2,0-3c0.2,0,0.3,0,0.5,0c0.4,0,0.8,0,1.2-0.1c0.6-0.1,1-0.3,1.2-0.8c0-0.1,0.1-0.1,0.1-0.2
			c0.2-0.3,0.2-0.7,0-1.1c-1.3-2.8-2.5-5.6-3.8-8.4c-0.1-0.1-0.1-0.3-0.2-0.5c1.3,0,2.5,0,3.8,0c0.7,1.8,1.4,3.7,2.1,5.5
			c0,0,0.1,0,0.1,0c0.7-1.8,1.3-3.7,2-5.5c1.3,0,2.5,0,3.8,0c-0.1,0.2-0.1,0.3-0.2,0.4c-1.4,3.1-2.7,6.3-4.1,9.4
			c-0.4,0.8-0.8,1.7-1.3,2.4c-0.7,0.9-1.5,1.5-2.7,1.7c-0.4,0.1-0.7,0.1-1.1,0.1C71.6,23,71.1,23,70.6,23z"/>
		<path class="st0" d="M161.5,19.1c-1.2,0-2.3,0-3.5,0c0-0.2,0-0.3,0-0.5c0-1.7,0-3.5,0-5.2c0-0.3,0-0.6-0.1-1
			c-0.2-0.6-0.6-0.9-1.2-0.9c-0.8,0-1.4,0.4-1.7,1.2c-0.1,0.3-0.1,0.7-0.1,1c0,1.6,0,3.2,0,4.8c0,0.2,0,0.3,0,0.5
			c-1.2,0-2.3,0-3.5,0c0-3.4,0-6.8,0-10.3c0.3,0,0.5,0,0.7,0c0.5,0,1,0,1.5,0c0.2,0,0.3,0.1,0.4,0.2c0.1,0.3,0.2,0.5,0.4,0.8
			c0.1-0.1,0.2-0.2,0.3-0.2c1.3-1.1,2.8-1.4,4.4-0.9c1.4,0.4,2.1,1.4,2.4,2.8c0.1,0.4,0.1,0.8,0.1,1.2c0,2,0,4,0,5.9
			C161.5,18.9,161.5,19,161.5,19.1z"/>
		<path class="st0" d="M113.3,8.9c1.1,0,2.2,0,3.3,0c0.1,0,0.1,0,0.2,0c0,0.2,0,0.3,0,0.5c0,1.7,0,3.4,0,5.1c0,0.3,0,0.5,0.1,0.8
			c0.2,0.7,0.7,1.1,1.4,1.1c0.7,0,1.3-0.4,1.4-1c0.1-0.3,0.1-0.6,0.1-0.8c0-1.7,0-3.4,0-5.1c0-0.2,0-0.3,0-0.5c1.2,0,2.3,0,3.5,0
			c0,0.1,0.1,0.2,0.1,0.3c0,2,0,3.9,0,5.9c0,2.3-1.6,4.2-4.4,4.4c-0.8,0.1-1.5,0-2.3-0.2c-2.1-0.5-3.4-2.2-3.5-4.4
			c0-1.4,0-2.7,0-4.1c0-0.5,0-1,0-1.5C113.3,9.2,113.3,9.1,113.3,8.9z"/>
		<path class="st0" d="M85.2,15.8c1.1,0,2.2,0,3.3,0c0,0.1,0.1,0.2,0.1,0.2c0.1,0.4,0.3,0.7,0.7,0.8c0.4,0.1,0.9,0.1,1.2-0.2
			c0.3-0.3,0.3-0.8-0.1-1c-0.3-0.2-0.6-0.2-0.9-0.3c-0.6-0.1-1.1-0.2-1.7-0.4c-0.4-0.1-0.9-0.3-1.2-0.5c-0.8-0.5-1.2-1.2-1.3-2.1
			c-0.2-1.8,0.9-2.8,2-3.3c1.7-0.7,3.3-0.7,5,0.1C93.4,9.7,94,10.8,94,12c-1.1,0-2.1,0-3.2,0c0-0.1-0.1-0.1-0.1-0.1
			c-0.1-0.9-1.1-1-1.6-0.8c-0.3,0.1-0.4,0.3-0.5,0.6c0,0.3,0.2,0.5,0.4,0.6c0.5,0.1,1,0.3,1.5,0.4c0.5,0.1,1,0.2,1.5,0.3
			c0.2,0.1,0.5,0.2,0.7,0.3c0.9,0.4,1.3,1.1,1.5,2.1c0.2,1.4-0.4,2.7-1.7,3.4c-0.9,0.5-1.9,0.7-2.9,0.6c-0.9,0-1.8-0.2-2.6-0.6
			c-1.1-0.6-1.7-1.6-1.8-2.8c0-0.1,0-0.1,0-0.2C85.1,15.9,85.1,15.9,85.2,15.8z"/>
		<path class="st0" d="M69.5,12c-1.1,0-2.2,0-3.2,0c0,0-0.1-0.1-0.1-0.1c-0.1-0.8-1.1-1-1.6-0.7c-0.3,0.1-0.4,0.3-0.4,0.6
			c0,0.3,0.2,0.5,0.4,0.6c0.5,0.1,1,0.3,1.5,0.4c0.5,0.1,1,0.2,1.5,0.3c1,0.3,1.8,0.9,2.1,2c0.3,1.2,0,2.3-0.9,3.2
			c-0.5,0.5-1.2,0.8-1.9,1c-1.2,0.3-2.5,0.3-3.7-0.1c-1.4-0.5-2.2-1.4-2.5-2.8c0-0.2,0-0.4,0-0.6c1.1,0,2.2,0,3.4,0
			c0,0.1,0.1,0.2,0.1,0.3c0.1,0.5,0.4,0.7,0.9,0.8c0.3,0,0.6,0,0.9-0.1c0.3-0.1,0.4-0.3,0.5-0.6c0-0.3-0.2-0.5-0.4-0.6
			c-0.4-0.1-0.9-0.2-1.3-0.3c-0.6-0.1-1.2-0.2-1.8-0.4c-0.4-0.1-0.7-0.3-1-0.6c-0.4-0.3-0.7-0.8-0.8-1.3c-0.4-1.6,0.1-3,1.6-3.8
			c1-0.5,2.1-0.6,3.2-0.6c0.6,0,1.3,0.2,1.9,0.5c1.1,0.5,1.8,1.4,1.9,2.7C69.5,11.8,69.5,11.9,69.5,12z"/>
		<path class="st0" d="M171.7,12c-1.1,0-2.2,0-3.3,0c0-0.1-0.1-0.1-0.1-0.2c-0.1-0.8-1.3-0.9-1.8-0.5c-0.3,0.2-0.4,0.8,0.1,1.1
			c0.3,0.2,0.7,0.2,1.1,0.3c0.5,0.1,1.1,0.2,1.6,0.3c0.2,0.1,0.5,0.1,0.7,0.2c1.3,0.5,1.9,1.5,1.8,2.9c-0.1,1.3-0.8,2.3-1.9,2.8
			c-0.9,0.4-1.8,0.5-2.7,0.5c-0.7,0-1.4-0.1-2.1-0.4c-1.4-0.6-2.2-1.6-2.3-3.1c0-0.1,0-0.1,0-0.2c1.1,0,2.2,0,3.3,0c0,0,0,0.1,0,0.1
			c0.2,0.8,0.7,1.1,1.4,1c0.2,0,0.4-0.1,0.5-0.2c0.4-0.3,0.3-0.8-0.1-1.1c-0.3-0.2-0.6-0.2-1-0.3c-0.6-0.1-1.1-0.2-1.7-0.3
			c-0.3-0.1-0.5-0.2-0.8-0.3c-1.3-0.6-1.8-1.7-1.7-3.1c0.1-1.1,0.7-1.9,1.7-2.4c1-0.5,2.1-0.6,3.2-0.6c0.6,0,1.1,0.2,1.7,0.4
			c1.1,0.5,1.9,1.3,2.1,2.5C171.7,11.6,171.7,11.8,171.7,12z"/>
		<path class="st0" d="M35.1,16.1c0,1.1,0,2,0,3c-0.1,0-0.2,0-0.2,0c-0.9,0-1.8,0-2.7,0c-1.7-0.1-2.9-1.2-3.1-2.9
			c0-0.3-0.1-0.6-0.1-0.9c0-1.1,0-2.2,0-3.2c0-0.2,0-0.3,0-0.5c-0.6,0-1.2,0-1.9,0c0-0.2,0-0.4,0-0.6c0-0.1,0.1-0.3,0.2-0.4
			c1.4-1.5,2.8-3,4.3-4.5c0.3-0.3,0.6-0.2,0.9-0.2c0,1,0,2,0,3c0.9,0,1.7,0,2.6,0c0,0.9,0,1.8,0,2.7c-0.8,0-1.6,0-2.4,0
			c0,0.2,0,0.3,0,0.4c0,0.9,0,1.9,0,2.8c0,0.1,0,0.3,0,0.4c0.1,0.5,0.4,0.7,0.8,0.8c0.3,0,0.7,0,1,0.1
			C34.6,16.1,34.8,16.1,35.1,16.1z"/>
		<path class="st0" d="M124.2,11.6c-0.1-0.5-0.1-0.9,0.3-1.2c1.3-1.4,2.6-2.8,3.9-4.2c0.3-0.3,0.6-0.4,1-0.3c0,1,0,1.9,0,2.9
			c0.9,0,1.7,0,2.5,0c0.1,0.3,0.1,2.1,0,2.7c-0.8,0-1.6,0-2.4,0c0,0.1,0,0.2,0,0.3c0,1,0,1.9,0,2.9c0,0.1,0,0.2,0,0.3
			c0.1,0.5,0.4,0.8,0.9,0.9c0.3,0,0.6,0,1,0c0.2,0,0.4,0,0.6,0c0,1,0,2,0,3c-0.1,0-0.1,0-0.2,0c-0.9,0-1.7,0-2.6,0
			c-2-0.1-3.3-1.4-3.3-3.4c0-1.2,0-2.4,0-3.6c0-0.2,0-0.3,0-0.5C125.4,11.6,124.8,11.6,124.2,11.6z"/>
		<path class="st0" d="M107.9,5.2c1.2,0,2.3,0,3.4,0c0.1,0.3,0.1,13.2,0,13.9c-0.3,0.1-3,0.1-3.5,0C107.9,14.5,107.9,9.8,107.9,5.2z
			"/>
		<path class="st0" d="M133.6,19.1c0-3.4,0-6.8,0-10.2c1.2,0,2.3,0,3.5,0c0.1,0.3,0.1,9.6,0,10.2C136.8,19.2,134.2,19.2,133.6,19.1z
			"/>
		<path class="st0" d="M133.6,4.6c1.1,0,2.3,0,3.4,0c0,1,0,2,0,3c-1.1,0-2.2,0-3.4,0C133.6,7.3,133.5,5.5,133.6,4.6z"/>
		<path class="st0" d="M17.9,19.2c-0.6-2-1.2-4-1.8-6.1c0.2,0,0.3,0,0.5,0c0.2,0.7,0.4,1.3,0.6,2c0.3,1.2,0.7,2.3,1,3.5
			C18.3,18.9,18.2,19,17.9,19.2z"/>
	</g>
</g>
</svg>
