<svg width="206" height="74" viewBox="0 0 206 74" fill="none" xmlns="http://www.w3.org/2000/svg">
<g clip-path="url(#clip0_105_455)">
<rect width="204.73" height="73.4131" transform="translate(0.516602)" fill="#2D364F"/>
<path d="M113.608 39.0661C113.689 43.0741 111.234 46.3849 107.105 47.8348C102.7 49.3819 97.6909 47.8292 95.1447 44.1212C91.658 39.0439 94.207 31.9306 100.117 30.0641C102.655 29.2641 105.129 29.3086 107.578 30.2196C111.435 31.6556 113.519 34.7692 113.608 39.0633V39.0661ZM103.693 33.161C100.14 33.1416 97.6353 35.5025 97.6102 38.8966C97.5852 42.2352 100.067 44.7711 103.37 44.7795C107.11 44.7878 109.64 42.4325 109.643 38.9411C109.643 35.6108 107.141 33.1805 103.69 33.161H103.693Z" fill="white"/>
<path d="M83.152 48.4125C80.7617 48.3986 78.5328 47.8153 76.4624 46.5988C75.9114 46.2738 75.6443 45.9544 76.0478 45.3128C76.4596 44.6573 76.6405 43.6768 77.211 43.3629C77.6005 43.1463 78.491 43.8268 79.1533 44.1101C81.2849 45.0267 83.4498 45.4211 85.7205 44.6128C86.4746 44.3434 86.8892 43.824 86.9059 43.0852C86.9226 42.3241 86.469 41.777 85.7288 41.552C83.8616 40.9881 81.9694 40.5048 80.1189 39.8966C77.5393 39.0439 76.1841 37.3746 76.1869 35.2192C76.1897 32.8611 77.6729 30.964 80.169 30.0974C83.3941 28.9781 86.4829 29.4558 89.4994 30.8584C89.9919 31.089 90.184 31.4195 89.9419 31.9417C89.9279 31.9695 89.9196 31.9972 89.9057 32.025C89.5745 32.7277 89.4104 33.711 88.8566 34.0387C88.442 34.2859 87.5209 33.6999 86.8336 33.4666C85.1806 32.9083 83.5082 32.6277 81.7969 33.1638C80.9899 33.4166 80.2859 33.8387 80.2107 34.797C80.13 35.8025 80.8313 36.2691 81.6327 36.5246C83.3468 37.0718 85.1194 37.4523 86.8057 38.0773C87.8465 38.4633 88.9512 38.9911 89.7109 39.766C91.8619 41.963 91.0577 45.6933 88.1999 47.2681C86.636 48.1292 84.9385 48.4542 83.1548 48.418L83.152 48.4125Z" fill="white"/>
<path d="M184.685 44.9989C182.937 47.0876 180.73 48.1375 178.201 48.3486C174.842 48.6291 171.79 47.7653 169.497 45.135C167.104 42.3908 166.486 39.1938 167.705 35.7886C168.91 32.4166 171.403 30.4057 174.945 29.7252C178.268 29.0891 181.259 29.7502 183.828 32.0056C184.857 32.9083 184.835 32.936 183.828 33.8221C183.31 34.2776 182.817 35.0359 182.255 35.0914C181.732 35.1442 181.148 34.4276 180.569 34.0859C178.318 32.7583 176.017 32.7166 173.832 34.1248C171.845 35.4053 170.907 37.3745 171.297 39.7105C172.098 44.5239 177.669 46.4599 181.379 43.2463C182.027 42.6852 182.383 42.7213 182.912 43.3101C183.43 43.8879 184.036 44.3878 184.687 44.9989H184.685Z" fill="white"/>
<path d="M205.232 40.5548C204.058 40.5548 202.981 40.5548 201.904 40.5548C199.255 40.5548 196.603 40.5548 193.954 40.5548C192.59 40.5548 192.571 40.5798 192.571 41.8991C192.571 43.7045 192.546 45.5072 192.579 47.3126C192.593 48.0597 192.284 48.3569 191.564 48.3319C190.932 48.3125 190.297 48.2986 189.666 48.3347C188.898 48.3791 188.586 48.0792 188.592 47.2903C188.62 44.1934 188.622 41.0964 188.586 37.9995C188.578 37.2412 188.842 37.0079 189.58 37.0218C192.71 37.0829 195.843 37.1023 198.974 37.1357C199.366 37.1412 199.759 37.1301 200.148 37.1523C200.989 37.1995 201.334 36.8524 201.309 35.9774C201.261 34.2054 201.317 32.4305 201.286 30.6557C201.275 29.9668 201.503 29.6558 202.221 29.6946C202.942 29.7335 203.666 29.7141 204.389 29.6946C204.943 29.6808 205.235 29.8863 205.232 30.4779C205.224 33.786 205.23 37.0912 205.23 40.552L205.232 40.5548Z" fill="white"/>
<path d="M138.64 29.6668C140.96 29.6668 143.281 29.6863 145.599 29.6557C146.364 29.6474 146.67 29.8974 146.654 30.7001C146.595 33.5221 146.965 33.1332 144.205 33.1554C143.362 33.1638 142.516 33.1971 141.675 33.1443C140.891 33.0943 140.629 33.3637 140.635 34.1664C140.668 38.4077 140.651 42.649 140.651 46.8904C140.651 48.2569 140.596 48.3069 139.23 48.3152C136.068 48.3347 136.719 48.3374 136.692 45.8432C136.65 42.0519 136.683 38.2633 136.678 34.472C136.678 33.1943 136.628 33.1554 135.359 33.1554C134.154 33.1554 132.949 33.1388 131.744 33.161C131.04 33.1749 130.673 32.9249 130.692 32.1694C130.762 29.2641 130.222 29.6918 133.13 29.6557C134.966 29.6335 136.806 29.6502 138.642 29.6502V29.6613L138.64 29.6668Z" fill="white"/>
<path d="M117.942 38.9494C117.942 36.2413 117.967 33.536 117.928 30.8279C117.917 29.9974 118.151 29.6502 119.044 29.6419C121.924 29.6113 121.924 29.5808 121.924 32.4611C121.924 36.0719 121.924 39.6799 121.924 43.2907C121.924 44.8156 121.927 44.8017 123.407 44.7961C125.697 44.7878 127.988 44.8211 130.275 44.7934C131.138 44.7822 131.435 45.1155 131.424 45.9683C131.388 48.6097 131.619 48.318 129.123 48.3208C125.809 48.3236 122.495 48.3236 119.18 48.3208C118.062 48.3208 117.942 48.2014 117.939 47.0737C117.936 44.3656 117.939 41.6603 117.939 38.9522L117.942 38.9494Z" fill="white"/>
<path d="M150.992 47.832V44.6628H162.351V47.832H150.992Z" fill="white"/>
<path d="M162.39 29.9196V32.9416H150.962C150.962 32.0194 150.942 31.0751 150.984 30.1335C150.989 30.0057 151.309 29.7891 151.482 29.7891C155.03 29.7752 158.575 29.7863 162.123 29.7974C162.201 29.7974 162.282 29.8668 162.387 29.9196H162.39Z" fill="white"/>
<path d="M156.608 37.0106C158.141 37.0106 159.674 37.0051 161.205 37.0106C162.268 37.0162 162.438 37.1717 162.426 38.1855C162.404 40.1465 162.844 40.2993 160.32 40.2826C157.495 40.2631 154.668 40.2576 151.844 40.2937C151.129 40.302 150.923 40.0715 150.92 39.3688C150.92 37.0106 150.892 37.0106 153.266 37.0106C154.379 37.0106 155.489 37.0106 156.602 37.0106H156.608Z" fill="white"/>
<path d="M205.235 43.1185C205.235 44.6933 205.276 46.1293 205.199 47.557C205.185 47.8236 204.717 48.243 204.419 48.2819C203.624 48.3847 202.805 48.3125 201.993 48.318C201.453 48.3208 201.244 48.0264 201.244 47.5292C201.244 46.271 201.214 45.0128 201.272 43.7573C201.283 43.5351 201.659 43.1629 201.882 43.149C202.953 43.0851 204.03 43.1212 205.232 43.1212L205.235 43.1185Z" fill="white"/>
<path d="M192.559 32.3083C192.559 34.6581 192.559 34.6665 190.225 34.6526C188.33 34.6415 188.602 34.8803 188.588 33.0499C188.583 32.2111 188.6 31.3723 188.583 30.5335C188.572 29.9363 188.814 29.6447 189.434 29.6586C190.183 29.6752 190.934 29.6669 191.686 29.653C192.345 29.6391 192.596 29.9641 192.568 30.5974C192.54 31.1668 192.562 31.7362 192.562 32.3056L192.559 32.3083Z" fill="white"/>
<path d="M53.0904 29.0086C53.0904 25.6616 50.3689 22.9452 47.0157 22.9452C43.6626 22.9452 40.9411 25.6616 40.9411 29.0086C40.9411 32.3555 43.6598 35.0719 47.0157 35.0719C48.4655 35.0719 49.7929 34.5664 50.8364 33.722L55.4696 36.4107V57.3533L32.5039 70.8661L36.8477 73.4103L59.5908 59.8726V33.6193L53.0904 30.039C53.0904 30.039 53.0904 29.4363 53.0904 29.0086ZM47.0157 31.5278C45.6216 31.5278 44.4946 30.4001 44.4946 29.0113C44.4946 27.6226 45.6244 26.4949 47.0157 26.4949C48.4071 26.4949 49.5369 27.6226 49.5369 29.0113C49.5369 30.4001 48.4071 31.5278 47.0157 31.5278Z" fill="url(#paint0_linear_105_455)"/>
<path d="M49.2141 50.3652C49.2141 50.3652 49.74 50.0652 50.1101 49.8541C53.018 48.1904 54.0254 44.4823 52.3585 41.577C50.6889 38.6717 46.9768 37.669 44.066 39.3328C41.1553 40.9993 40.148 44.7045 41.8176 47.6098C42.5383 48.8653 43.6375 49.7624 44.8925 50.2457L44.8619 55.5953L26.6602 66.0138L3.48857 52.8511L3.43848 57.8756L26.5211 70.8328L49.3393 57.7729L49.2168 50.3624L49.2141 50.3652ZM48.3403 46.7766C47.1326 47.4682 45.591 47.0516 44.8981 45.8461C44.2052 44.6407 44.6226 43.1019 45.8303 42.4103C47.038 41.7187 48.5796 42.1353 49.2725 43.3408C49.9654 44.5462 49.548 46.085 48.3403 46.7766Z" fill="url(#paint1_linear_105_455)"/>
<path d="M29.518 57.059C29.518 57.059 30.0384 57.3701 30.4029 57.5867C33.283 59.3005 37.0146 58.3589 38.7316 55.4841C40.4513 52.6066 39.5051 48.8847 36.625 47.1709C33.7422 45.4544 30.0161 46.396 28.2964 49.2735C27.5534 50.5151 27.3085 51.9122 27.5005 53.2399L22.8145 55.8341L4.79641 45.1072L4.93276 18.4984L0.516602 20.9176V47.3515L23.1066 60.8003L29.518 57.0618V57.059ZM31.349 51.09C32.0614 49.8957 33.6114 49.5041 34.8079 50.2179C36.0045 50.929 36.3969 52.476 35.6817 53.6704C34.9693 54.8647 33.4194 55.2564 32.2228 54.5425C31.0262 53.8287 30.6339 52.2844 31.349 51.09Z" fill="url(#paint2_linear_105_455)"/>
<path d="M14.043 43.3879C14.043 43.3879 14.043 43.9907 14.043 44.4184C14.0458 47.7653 16.7701 50.479 20.1233 50.4762C23.4792 50.4734 26.1951 47.7542 26.1923 44.4073C26.1896 41.0576 23.4681 38.3467 20.1121 38.3495C18.6623 38.3495 17.335 38.8578 16.2915 39.7021L11.6555 37.0163L11.6388 16.0736L34.5933 2.54145L30.2495 0L7.51758 13.5572L7.53984 39.8105L14.043 43.3851V43.3879ZM20.1177 41.8936C21.5118 41.8936 22.6416 43.0185 22.6416 44.4101C22.6416 45.8016 21.5146 46.9293 20.1205 46.9293C18.7263 46.9293 17.5966 45.8044 17.5966 44.4128C17.5966 43.0213 18.7236 41.8936 20.1177 41.8936Z" fill="url(#paint3_linear_105_455)"/>
<path d="M17.998 22.9731C17.998 22.9731 17.4637 23.2592 17.088 23.4591C14.1328 25.0423 13.0253 28.7226 14.6114 31.6695C16.2004 34.6193 19.8847 35.7248 22.8371 34.1416C25.7924 32.5556 26.9027 28.8809 25.3137 25.9312C24.6264 24.6563 23.5523 23.7286 22.314 23.2119L22.4921 17.8652L40.9776 7.95492L63.7736 21.7537L63.9628 16.7319L41.2503 3.13867L18.0815 15.5626L17.998 22.9731ZM18.7716 26.5839C19.9988 25.9256 21.5292 26.3867 22.186 27.6088C22.8427 28.8309 22.3835 30.3613 21.1591 31.0168C19.932 31.6751 18.4015 31.214 17.7448 29.9919C17.0853 28.767 17.5472 27.2394 18.7716 26.5839Z" fill="url(#paint4_linear_105_455)"/>
<path d="M44.119 13.0267L37.7021 16.7569C37.7021 16.7569 37.1845 16.4459 36.8172 16.2264C33.9399 14.5071 30.2082 15.4432 28.4857 18.3151C26.7632 21.1899 27.701 24.9118 30.5783 26.6311C33.4584 28.3504 37.1873 27.4144 38.9098 24.5424C39.6555 23.3008 39.9004 21.9037 39.7112 20.5761L44.4001 17.9874L62.407 28.742L62.2344 55.3508L66.6506 52.9372L66.6896 26.5033L44.119 13.0239V13.0267ZM35.8627 22.7231C35.1475 23.9174 33.5976 24.3035 32.4038 23.5897C31.2072 22.8759 30.8204 21.3288 31.5356 20.1372C32.2507 18.9429 33.8007 18.5568 34.9945 19.2706C36.1883 19.9844 36.5779 21.5315 35.8627 22.7231Z" fill="url(#paint5_linear_105_455)"/>
</g>
<defs>
<linearGradient id="paint0_linear_105_455" x1="33.4278" y1="0.288809" x2="48.7206" y2="63.4853" gradientUnits="userSpaceOnUse">
<stop stop-color="#FF8C30"/>
<stop offset="0.57" stop-color="#EF0740"/>
<stop offset="0.62" stop-color="#D20B45"/>
<stop offset="0.67" stop-color="#B7104B"/>
<stop offset="0.73" stop-color="#A2134F"/>
<stop offset="0.8" stop-color="#931652"/>
<stop offset="0.88" stop-color="#8A1754"/>
<stop offset="1" stop-color="#881855"/>
</linearGradient>
<linearGradient id="paint1_linear_105_455" x1="16.9513" y1="4.13859" x2="32.2441" y2="67.3378" gradientUnits="userSpaceOnUse">
<stop offset="0.17" stop-color="#FF8C30"/>
<stop offset="0.24" stop-color="#FE8630"/>
<stop offset="0.32" stop-color="#FC7732"/>
<stop offset="0.41" stop-color="#F95E35"/>
<stop offset="0.51" stop-color="#F53A39"/>
<stop offset="0.62" stop-color="#EF0E3F"/>
<stop offset="0.63" stop-color="#EF0740"/>
<stop offset="1" stop-color="#881855"/>
</linearGradient>
<linearGradient id="paint2_linear_105_455" x1="9.47414" y1="5.9495" x2="24.7669" y2="69.146" gradientUnits="userSpaceOnUse">
<stop offset="0.28" stop-color="#FF8C30"/>
<stop offset="0.34" stop-color="#FD7F31"/>
<stop offset="0.46" stop-color="#F95C35"/>
<stop offset="0.62" stop-color="#F2253C"/>
<stop offset="0.7" stop-color="#EF0740"/>
<stop offset="1" stop-color="#881855"/>
</linearGradient>
<linearGradient id="paint3_linear_105_455" x1="16.9287" y1="4.14409" x2="32.2215" y2="67.3433" gradientUnits="userSpaceOnUse">
<stop stop-color="#FF8C30"/>
<stop offset="0.45" stop-color="#EF0740"/>
<stop offset="1" stop-color="#881855"/>
</linearGradient>
<linearGradient id="paint4_linear_105_455" x1="33.3502" y1="0.172261" x2="48.643" y2="63.3715" gradientUnits="userSpaceOnUse">
<stop stop-color="#FF8C30"/>
<stop offset="0.45" stop-color="#EF0740"/>
<stop offset="1" stop-color="#881855"/>
</linearGradient>
<linearGradient id="paint5_linear_105_455" x1="40.8465" y1="-1.64426" x2="56.1394" y2="61.555" gradientUnits="userSpaceOnUse">
<stop stop-color="#FF8C30"/>
<stop offset="0.52" stop-color="#EF0740"/>
<stop offset="0.53" stop-color="#E90741"/>
<stop offset="0.59" stop-color="#C60D48"/>
<stop offset="0.65" stop-color="#AB124D"/>
<stop offset="0.7" stop-color="#971551"/>
<stop offset="0.76" stop-color="#8B1754"/>
<stop offset="0.82" stop-color="#881855"/>
</linearGradient>
<clipPath id="clip0_105_455">
<rect width="204.73" height="73.4131" fill="white" transform="translate(0.516602)"/>
</clipPath>
</defs>
</svg>
