<?xml version="1.0" encoding="utf-8"?>
<!-- Generator: Adobe Illustrator 26.3.1, SVG Export Plug-In . SVG Version: 6.00 Build 0)  -->
<svg version="1.1" id="Layer_1" xmlns="http://www.w3.org/2000/svg" xmlns:xlink="http://www.w3.org/1999/xlink" x="0px" y="0px"
	 viewBox="0 0 35 35" style="enable-background:new 0 0 35 35;" xml:space="preserve">
<style type="text/css">
	.st0{fill:#FFFFFF;}
	.st1{fill:#171A40;}
</style>
<circle class="st0" cx="17.5" cy="17.5" r="17.5"/>
<g>
	<path class="st1" d="M2.4,17.5c0-0.5,0-1.1,0.1-1.7c0.2-2,0.8-3.9,1.9-5.7C5.9,7.4,8,5.4,10.7,4c1.2-0.6,2.4-1,3.7-1.3
		c0.5-0.1,1-0.2,1.6-0.2c0.7-0.1,1.3-0.1,2-0.1c0.5,0,1,0,1.4,0.1C25.2,3.2,30.1,7.3,31.9,13c0.2,0.8,0.4,1.6,0.5,2.3
		c0.1,1,0.2,2,0.1,3c-0.2,3.8-1.6,7-4.3,9.8c-1.8,1.9-4,3.2-6.5,3.9c-0.7,0.2-1.5,0.4-2.2,0.5c-0.9,0.1-1.7,0.2-2.6,0.1
		c-0.5,0-0.9,0-1.4-0.1c-0.8-0.1-1.6-0.3-2.4-0.5c-2.4-0.7-4.4-1.9-6.2-3.7c-1.9-1.9-3.2-4.1-4-6.6c-0.2-0.7-0.3-1.4-0.4-2.1
		C2.4,18.9,2.4,18.2,2.4,17.5z M19.6,18.4L19.6,18.4c0,0,0-0.1,0-0.1c-0.4-1.3-0.7-2.6-1.1-3.8c0-0.1,0-0.2,0-0.2c0-0.9,0-1.8,0-2.6
		c0-1.6,0-3.2,0-4.7c0-0.5,0-1,0-1.5c0,0,0-0.1,0-0.1c0,0-0.1,0-0.1,0c-0.1,0-0.2,0-0.3,0c-0.5,0-0.9,0-1.4,0
		c-0.5,0-0.9,0.1-1.3,0.2c-0.4,0.1-0.9,0.2-1.3,0.3c0,0-0.1,0-0.1,0c0,0.1,0,0.1,0,0.2c0,2.2,0,4.5,0,6.7c0,0.3,0,0.6-0.1,0.8
		c-0.8,2.8-1.6,5.6-2.4,8.4c-0.5,1.8-1,3.5-1.5,5.2c-0.1,0.3-0.1,0.7,0,1c0.1,0.5,0.4,0.9,0.8,1.3c0.4,0.3,0.9,0.5,1.4,0.5
		c1.6,0,3.1,0,4.7,0c2.1,0,4.2,0,6.4,0c0.1,0,0.2,0,0.3,0c0.3-0.1,0.6-0.2,0.8-0.3c0.2-0.1,0.5-0.3,0.6-0.6c0.4-0.6,0.5-1.3,0.3-2
		c-0.3-0.9-0.5-1.9-0.8-2.8c-1-3.6-2.1-7.3-3.1-10.9c0-0.1,0-0.2,0-0.4c0-2.3,0-4.6,0-6.9c0-0.1,0-0.1,0-0.2c-0.1-0.1-0.4-0.2-1-0.3
		c-0.5-0.1-0.7-0.1-0.9-0.1c0,0.1,0,0.1,0,0.2c0,2.9,0,5.8,0,8.6c0,0,0,0.1,0,0.1c0,0.1,0,0.1,0,0.2c0.1,0.4,0.3,0.9,0.4,1.4
		c0.2,0.8,0.5,1.6,0.7,2.4c0,0,0,0.1,0,0.2c0,0,0,0,0,0C20.1,18.4,19.8,18.4,19.6,18.4z"/>
	<path class="st1" d="M19.6,18.4c0,0,0,0.1,0,0.2c0.3,0.9,0.5,1.8,0.8,2.8c0.7,2.3,1.3,4.6,2,6.9c0,0.1,0,0.1,0,0.2c0,0,0,0-0.1,0
		c0,0-0.1,0-0.1,0c-3.4,0-6.8,0-10.1,0c-0.1,0-0.3,0-0.4,0c0,0-0.1,0-0.1,0c-0.4-0.1-0.5-0.5-0.4-0.9c0.2-0.6,0.4-1.2,0.5-1.9
		c0.7-2.4,1.4-4.7,2-7.1c0,0,0-0.1,0.1-0.2c0,0,0.1,0,0.1,0c0.1,0,0.2,0,0.3,0c1.7,0,3.4,0,5.2,0C19.5,18.4,19.5,18.4,19.6,18.4
		C19.6,18.4,19.6,18.4,19.6,18.4z M14.4,22c0-0.1,0-0.1,0-0.1c0-0.1-0.1-0.2-0.1-0.2c-0.2-0.1-0.4-0.1-0.5,0.1
		c-0.1,0.1-0.1,0.2-0.1,0.3c-0.4,1.5-0.8,2.9-1.3,4.4c0,0,0,0.1,0,0.1c0,0.2,0.1,0.4,0.3,0.5c0.2,0,0.4-0.1,0.4-0.3c0,0,0-0.1,0-0.1
		c0.2-0.6,0.4-1.3,0.6-1.9c0.2-0.8,0.5-1.7,0.7-2.5C14.3,22,14.3,22,14.4,22z"/>
	<path class="st1" d="M20.4,18.4c0.3,0,0.5,0,0.8,0c0,0.1,0,0.1,0.1,0.2c0.3,0.9,0.5,1.8,0.8,2.8c0.6,2,1.2,4,1.7,6
		c0.1,0.2,0,0.5-0.1,0.7c-0.1,0.1-0.2,0.2-0.4,0.2c0,0,0,0,0,0C22.3,25,21.3,21.7,20.4,18.4C20.4,18.4,20.4,18.4,20.4,18.4z"/>
</g>
</svg>
