<?xml version="1.0" encoding="utf-8"?>
<!-- Generator: Adobe Illustrator 26.3.1, SVG Export Plug-In . SVG Version: 6.00 Build 0)  -->
<svg version="1.1" id="Layer_1" xmlns="http://www.w3.org/2000/svg" xmlns:xlink="http://www.w3.org/1999/xlink" x="0px" y="0px"
	 viewBox="0 0 200 200" style="enable-background:new 0 0 200 200;" xml:space="preserve">
<style type="text/css">
	.st0{fill:#4CAF50;}
	.st1{fill:#FFFFFF;}
</style>
<g>
	<path class="st0" d="M9.9,192.3c2.5-7.4,4.8-14.4,7.2-21.4c1.3-3.8,2.5-7.5,3.8-11.3c0.7-1.9,0.5-3.5-0.7-5.2
		c-4.9-6.8-8.5-14.2-11.3-22C5.4,123,3.6,113.1,3.3,103C2.7,87,5.9,71.8,13,57.4c11.5-23,29.3-39.2,53.3-48.4
		C75.9,5.4,86,3.4,96.3,3.2c40.6,0,69.2,18.9,88.3,49.5c8,13.4,12,28.1,12.2,43.7c0.4,41.3-18.1,71.5-54.5,90.7
		c-11.9,6.3-24.8,9.1-38.3,9.6c-19.6,0.7-37.8-3.9-54.5-14.2c-2-1.2-3.7-1.6-6.1-0.8c-10.5,3.5-21.1,6.8-31.6,10.1
		C11.3,192,10.8,192.1,9.9,192.3z M131.6,155c15.1,0.1,26.2-9.6,27.7-24.2c0.3-2.6-0.1-4.9-2.8-6.2c-7.3-3.5-14.6-7.1-21.9-10.5
		c-3.7-1.7-6.3-0.8-8.8,2.4c-2,2.7-4,5.4-6.1,8.1c-2.5,3-4.6,3.4-8.3,1.9c-16.1-6.5-28-17.7-37-32.3C73,92,73.1,90,74.9,88
		c2-2.2,4-4.3,5.8-6.7c1.6-2.1,3.1-4.3,1.8-7.2c-3.3-7.9-6.5-15.8-10-23.6c-0.6-1.4-2.1-3-3.5-3.4c-5.3-1.3-10.7-1.1-15.2,2.5
		c-5.6,4.5-8.9,10.6-10.3,17.6c-1.7,8.7,0,17,3.9,24.8c5.6,11.5,13.6,21.4,22.2,30.7c12.7,13.7,27.9,23.4,45.8,28.7
		C120.8,153.1,131.6,155.2,131.6,155z"/>
	<path class="st1" d="M115.6,151.5c-17.9-5.3-33.2-15-45.8-28.7c-8.6-9.3-16.6-19.2-22.2-30.7c-3.9-7.8-5.6-16.1-3.9-24.8
		c1.4-7,4.7-13.1,10.3-17.6c4.5-3.6,9.9-3.8,15.2-2.5c1.4,0.3,2.8,2,3.5,3.4c3.5,7.8,6.6,15.7,10,23.6c1.2,2.9-0.3,5.1-1.8,7.2
		c-1.8,2.4-3.8,4.5-5.8,6.7c-1.8,2-1.9,4-0.5,6.2c9,14.5,20.9,25.8,37,32.3c3.7,1.5,5.8,1.1,8.3-1.9c2.1-2.6,4.1-5.4,6.1-8.1
		c2.5-3.3,5.2-4.2,8.8-2.4c7.4,3.4,14.6,7,21.9,10.5c2.7,1.3,3,3.6,2.8,6.2c-1.5,14.7-12.6,24.3-27.7,24.2
		C131.6,155.2,120.8,153.1,115.6,151.5z"/>
</g>
<g id="MyMKtz_00000178903207295342982320000000911762347551457677_">
	
		<image style="overflow:visible;" width="428" height="412" id="MyMKtz_00000144334896645872756910000007766283550619953831_" xlink:href="47067D6CF07E9E5B.png"  transform="matrix(0.5 0 0 0.5 -792.1847 -411.7183)">
	</image>
</g>
</svg>
