<svg width="364" height="159" viewBox="0 0 364 159" fill="none" xmlns="http://www.w3.org/2000/svg">
<path d="M101.048 0.125504H43.6162V29.3718C43.7169 29.3718 43.8176 29.3776 43.9182 29.3891C49.6849 29.8269 54.193 34.2338 54.5454 39.3434C54.9089 44.597 53.5554 47.2641 52.392 49.1997C51.0664 51.406 48.1076 54.7471 43.6162 59.2922V120.101H101.048C131.76 120.101 163.233 97.3003 163.233 60.1102C163.233 22.92 133.527 0.125504 101.048 0.125504Z" fill="#00ADB5"/>
<path d="M48.622 92.8013C49.7854 90.7275 55.6303 86.5454 57.5096 84.3621C59.389 82.1846 79.1666 66.8846 83.149 52.2528C84.525 47.2008 85.3975 41.6246 84.1726 31.5263C83.026 22.1078 78.887 16.4394 72.3205 10.0625C65.9722 3.89292 54.7354 0.367462 43.616 0.13704C43.2301 0.131279 42.8442 0.125519 42.4638 0.125519C31.9821 0.125519 23.156 3.54729 16.0917 8.95069C5.64917 16.9463 2.4778 28.8592 1.16339 43.105H30.8411C31.2606 36.4689 34.2138 28.8304 43.616 29.3719C43.7167 29.3719 43.8174 29.3776 43.9181 29.3891C49.6847 29.8269 54.1928 34.2338 54.5452 39.3434C54.9088 44.597 53.5552 47.2641 52.3918 49.1997C51.0662 51.406 48.1074 54.7471 43.616 59.2922C40.9145 62.0285 37.6648 65.2025 33.8838 68.8259C21.3885 80.7675 0 101.212 0 101.212V120.101H86.1806V92.8013H48.622Z" fill="#141927"/>
<path d="M262.966 33.5885H240.537V33.6058L239.905 39.9424C239.905 39.9424 231.56 31.9526 212.811 32.0332C193.56 32.1254 174.94 44.6315 173.178 73.0138C171.382 101.926 188.839 120.296 212.179 120.296C233.333 120.296 239.508 112.479 239.508 112.479L240.543 120.175L262.972 120.187V33.5885H262.966ZM218.108 94.7656C208.342 94.7656 200.422 86.6087 200.422 76.5508C200.422 66.4928 208.342 58.3417 218.108 58.3417C227.874 58.3417 235.788 66.4928 235.788 76.5508C235.788 86.6087 227.874 94.7656 218.108 94.7656Z" fill="#141927"/>
<path d="M274.577 33.5886H303.735L319.083 78.9529L334.738 33.5886H363.789V36.584L317.606 158.477H288.197V155.465L304.479 112.353L274.577 36.5207V33.5886Z" fill="#141927"/>
<path d="M141.357 48.0936C141.357 34.4296 130.602 23.3521 117.334 23.3521C104.067 23.3521 93.3115 34.4296 93.3115 48.0936C93.3115 57.8866 98.8376 66.3546 106.858 70.364V76.5162C106.858 77.749 107.826 78.7456 109.023 78.7456H125.048C126.244 78.7456 127.212 77.749 127.212 76.5162V70.652C135.552 66.7751 141.363 58.1343 141.363 48.0994L141.357 48.0936Z" fill="white"/>
<path d="M124.08 34.4584C122.486 34.4584 121.2 35.7891 121.2 37.4251C121.2 37.9954 121.362 38.5311 121.63 38.9804L117.928 42.7939L117.972 42.84H117.928V78.3538H119.589V43.5025L122.878 40.1153C123.241 40.2881 123.65 40.386 124.075 40.386C125.663 40.386 126.95 39.0553 126.95 37.4193C126.95 35.7833 125.663 34.4526 124.075 34.4526L124.08 34.4584ZM124.08 39.0035C123.23 39.0035 122.542 38.2949 122.542 37.4193C122.542 36.5437 123.23 35.8352 124.08 35.8352C124.93 35.8352 125.613 36.5437 125.613 37.4193C125.613 38.2949 124.925 39.0035 124.08 39.0035Z" fill="#00ADB5"/>
<path d="M130.261 47.506C129.198 47.506 128.337 48.3932 128.337 49.4877C128.337 49.6893 128.376 49.8736 128.426 50.058L122.615 56.0432V49.9428L126.368 46.3943C126.732 46.5671 127.14 46.665 127.565 46.665C129.154 46.665 130.44 45.3343 130.44 43.6983C130.44 42.0623 129.154 40.7316 127.565 40.7316C125.977 40.7316 124.685 42.0623 124.685 43.6983C124.685 44.2686 124.847 44.8043 125.115 45.2537L120.948 49.2284L120.993 49.2745H120.948V78.5036H122.609V58.4569L129.539 51.3195C129.763 51.4117 130.004 51.4635 130.255 51.4635C131.318 51.4635 132.179 50.5764 132.179 49.4819C132.179 48.3874 131.318 47.5003 130.255 47.5003L130.261 47.506ZM127.571 42.2927C128.32 42.2927 128.93 42.9206 128.93 43.6926C128.93 44.4645 128.32 45.0924 127.571 45.0924C126.821 45.0924 126.211 44.4645 126.211 43.6926C126.211 42.9206 126.821 42.2927 127.571 42.2927ZM130.261 50.5303C129.707 50.5303 129.249 50.0637 129.249 49.4877C129.249 48.9116 129.702 48.445 130.261 48.445C130.82 48.445 131.273 48.9116 131.273 49.4877C131.273 50.0637 130.82 50.5303 130.261 50.5303Z" fill="#00ADB5"/>
<path d="M128.952 63.4455V59.1884C129.578 58.9062 130.014 58.2667 130.014 57.5179C130.014 56.5098 129.226 55.6975 128.247 55.6975C127.268 55.6975 126.479 56.5155 126.479 57.5179C126.479 58.261 126.916 58.9004 127.542 59.1884V63.4512C126.921 63.7335 126.479 64.3729 126.479 65.1218C126.479 66.1299 127.274 66.9421 128.247 66.9421C129.22 66.9421 130.014 66.1241 130.014 65.1218C130.014 64.3729 129.578 63.7335 128.952 63.4512V63.4455ZM127.24 57.5179C127.24 56.9476 127.688 56.481 128.247 56.481C128.806 56.481 129.254 56.9418 129.254 57.5179C129.254 58.0939 128.806 58.5548 128.247 58.5548C127.688 58.5548 127.24 58.0939 127.24 57.5179ZM128.247 66.153C127.693 66.153 127.24 65.6921 127.24 65.116C127.24 64.54 127.688 64.0791 128.247 64.0791C128.806 64.0791 129.254 64.54 129.254 65.116C129.254 65.6921 128.806 66.153 128.247 66.153Z" fill="#00ADB5"/>
<path d="M138.409 46.4461C138.409 45.438 137.621 44.6258 136.642 44.6258C135.663 44.6258 134.874 45.4438 134.874 46.4461C134.874 47.2065 135.333 47.8632 135.976 48.1339V58.4569L133.655 60.8475C133.403 60.7035 133.118 60.6171 132.81 60.6171C131.832 60.6171 131.043 61.4351 131.043 62.4374C131.043 63.4397 131.837 64.2577 132.81 64.2577C133.784 64.2577 134.578 63.4397 134.578 62.4374C134.578 62.2358 134.539 62.0457 134.483 61.8671L137.257 59.0099V48.1455C137.928 47.8862 138.409 47.2238 138.409 46.4403V46.4461ZM132.81 63.4743C132.257 63.4743 131.804 63.0135 131.804 62.4374C131.804 61.8614 132.251 61.4005 132.81 61.4005C133.37 61.4005 133.817 61.8614 133.817 62.4374C133.817 63.0135 133.37 63.4743 132.81 63.4743ZM136.642 47.483C136.088 47.483 135.635 47.0222 135.635 46.4461C135.635 45.8701 136.082 45.4092 136.642 45.4092C137.201 45.4092 137.649 45.8701 137.649 46.4461C137.649 47.0222 137.201 47.483 136.642 47.483Z" fill="#00ADB5"/>
<path d="M107.715 37.425C107.715 39.061 109.001 40.3917 110.589 40.3917C111.02 40.3917 111.423 40.2938 111.786 40.121L115.075 43.5082V78.3595H116.736V42.8457H116.692L116.736 42.7996L113.034 38.9861C113.308 38.531 113.464 38.0011 113.464 37.4308C113.464 35.7948 112.178 34.4641 110.584 34.4641C108.99 34.4641 107.709 35.7948 107.709 37.4308L107.715 37.425ZM109.057 37.425C109.057 36.5494 109.745 35.8409 110.589 35.8409C111.434 35.8409 112.128 36.5494 112.128 37.425C112.128 38.3006 111.44 39.0092 110.589 39.0092C109.739 39.0092 109.057 38.3006 109.057 37.425Z" fill="#00ADB5"/>
<path d="M102.485 49.4819C102.485 50.5764 103.346 51.4635 104.409 51.4635C104.661 51.4635 104.901 51.4117 105.125 51.3195L112.055 58.4569V78.5036H113.716V49.2745H113.672L113.716 49.2284L109.549 45.2537C109.823 44.7986 109.98 44.2686 109.98 43.6983C109.98 42.0623 108.694 40.7316 107.1 40.7316C105.505 40.7316 104.225 42.0623 104.225 43.6983C104.225 45.3343 105.511 46.665 107.1 46.665C107.53 46.665 107.933 46.5671 108.296 46.3943L112.05 49.9428V56.0432L106.238 50.058C106.288 49.8794 106.328 49.6893 106.328 49.4877C106.328 48.3932 105.466 47.506 104.404 47.506C103.341 47.506 102.479 48.3932 102.479 49.4877L102.485 49.4819ZM108.459 43.6926C108.459 44.4645 107.849 45.0924 107.1 45.0924C106.35 45.0924 105.74 44.4645 105.74 43.6926C105.74 42.9206 106.35 42.2927 107.1 42.2927C107.849 42.2927 108.459 42.9206 108.459 43.6926ZM103.391 49.4819C103.391 48.9116 103.844 48.4393 104.404 48.4393C104.963 48.4393 105.416 48.9059 105.416 49.4819C105.416 50.058 104.963 50.5246 104.404 50.5246C103.844 50.5246 103.391 50.058 103.391 49.4819Z" fill="#00ADB5"/>
<path d="M104.655 65.1161C104.655 66.1242 105.444 66.9364 106.423 66.9364C107.402 66.9364 108.19 66.1184 108.19 65.1161C108.19 64.373 107.754 63.7335 107.127 63.4455V59.1827C107.748 58.9004 108.19 58.261 108.19 57.5121C108.19 56.504 107.396 55.6918 106.423 55.6918C105.45 55.6918 104.655 56.5098 104.655 57.5121C104.655 58.261 105.092 58.9004 105.718 59.1827V63.4397C105.092 63.722 104.655 64.3614 104.655 65.1103V65.1161ZM106.423 58.5548C105.869 58.5548 105.416 58.0939 105.416 57.5179C105.416 56.9476 105.863 56.481 106.423 56.481C106.982 56.481 107.43 56.9418 107.43 57.5179C107.43 58.0882 106.982 58.5548 106.423 58.5548ZM105.416 65.1161C105.416 64.5458 105.863 64.0792 106.423 64.0792C106.982 64.0792 107.43 64.54 107.43 65.1161C107.43 65.6864 106.982 66.153 106.423 66.153C105.863 66.153 105.416 65.6921 105.416 65.1161Z" fill="#00ADB5"/>
<path d="M97.412 48.1512V59.0156L100.186 61.8729C100.13 62.0514 100.091 62.2415 100.091 62.4431C100.091 63.4512 100.88 64.2635 101.859 64.2635C102.837 64.2635 103.626 63.4455 103.626 62.4431C103.626 61.4408 102.832 60.6228 101.859 60.6228C101.551 60.6228 101.266 60.7092 101.014 60.8532L98.6928 58.4626V48.1397C99.336 47.8689 99.7947 47.218 99.7947 46.4518C99.7947 45.4437 99.0004 44.6315 98.0272 44.6315C97.054 44.6315 96.2598 45.4495 96.2598 46.4518C96.2598 47.2353 96.7408 47.8977 97.412 48.157V48.1512ZM100.852 62.4374C100.852 61.8671 101.299 61.4005 101.859 61.4005C102.418 61.4005 102.865 61.8613 102.865 62.4374C102.865 63.0077 102.418 63.4743 101.859 63.4743C101.299 63.4743 100.852 63.0134 100.852 62.4374ZM97.0204 46.4461C97.0204 45.8758 97.4679 45.4092 98.0272 45.4092C98.5865 45.4092 99.034 45.87 99.034 46.4461C99.034 47.0164 98.5865 47.483 98.0272 47.483C97.4679 47.483 97.0204 47.0221 97.0204 46.4461Z" fill="#00ADB5"/>
<path d="M125.451 80.6696H109.219C107.952 80.6696 106.926 81.727 106.926 83.0314C106.926 84.3358 107.952 85.3932 109.219 85.3932H125.451C126.717 85.3932 127.744 84.3358 127.744 83.0314C127.744 81.727 126.717 80.6696 125.451 80.6696Z" fill="white"/>
<path d="M125.451 86.3668H109.219C107.952 86.3668 106.926 87.4242 106.926 88.7286C106.926 90.033 107.952 91.0904 109.219 91.0904H125.451C126.717 91.0904 127.744 90.033 127.744 88.7286C127.744 87.4242 126.717 86.3668 125.451 86.3668Z" fill="white"/>
<path d="M121.608 92.0582H113.062C111.795 92.0582 110.769 93.1156 110.769 94.42C110.769 95.7244 111.795 96.7819 113.062 96.7819H121.608C122.875 96.7819 123.901 95.7244 123.901 94.42C123.901 93.1156 122.875 92.0582 121.608 92.0582Z" fill="white"/>
<path d="M0 131.315H8.02682V158.005H0V131.315Z" fill="#141927"/>
<path d="M14.6668 131.315H39.0076V137.909H30.8393V158.011H22.8295V137.909H14.6611V131.315H14.6668Z" fill="#141927"/>
<path d="M58.7402 149.179L66.3595 148.689C66.5236 149.966 66.8576 150.933 67.3671 151.604C68.1935 152.682 69.371 153.225 70.905 153.225C72.0485 153.225 72.9315 152.951 73.5485 152.397C74.1655 151.843 74.4769 151.202 74.4769 150.479C74.4769 149.756 74.1825 149.167 73.5938 148.619C73.0051 148.071 71.6352 147.558 69.4898 147.074C65.9802 146.264 63.4726 145.179 61.9781 143.832C60.4667 142.486 59.7139 140.766 59.7139 138.679C59.7139 137.309 60.0988 136.009 60.8743 134.79C61.6442 133.572 62.8046 132.61 64.3556 131.916C65.9066 131.216 68.0294 130.867 70.7295 130.867C74.041 130.867 76.5657 131.502 78.3035 132.767C80.0413 134.038 81.0772 136.055 81.4055 138.819L73.8542 139.273C73.6561 138.072 73.2315 137.198 72.5919 136.65C71.9522 136.102 71.0635 135.828 69.9314 135.828C68.9974 135.828 68.3011 136.032 67.8256 136.44C67.3558 136.848 67.118 137.344 67.118 137.927C67.118 138.352 67.3105 138.731 67.7011 139.075C68.0803 139.425 68.9747 139.757 70.3899 140.06C73.8882 140.836 76.3958 141.623 77.9129 142.416C79.43 143.209 80.5281 144.2 81.2187 145.377C81.9093 146.555 82.2546 147.873 82.2546 149.33C82.2546 151.044 81.7961 152.618 80.8734 154.064C79.9564 155.51 78.6714 156.606 77.0185 157.352C75.3656 158.099 73.2881 158.472 70.7805 158.472C66.3708 158.472 63.3197 157.597 61.6215 155.848C59.9233 154.099 58.961 151.878 58.7402 149.184V149.179Z" fill="#141927"/>
<path d="M87.6377 148.397C87.6377 145.447 88.6057 143.016 90.536 141.104C92.4662 139.192 95.0815 138.236 98.3703 138.236C102.129 138.236 104.971 139.361 106.89 141.605C108.435 143.413 109.205 145.64 109.205 148.287C109.205 151.26 108.248 153.697 106.335 155.597C104.422 157.498 101.772 158.448 98.3873 158.448C95.3702 158.448 92.9304 157.661 91.0681 156.081C88.7811 154.128 87.6377 151.569 87.6377 148.397ZM94.8494 148.38C94.8494 150.106 95.189 151.377 95.8683 152.204C96.5476 153.032 97.3967 153.44 98.4213 153.44C99.4458 153.44 100.312 153.032 100.974 152.222C101.642 151.411 101.97 150.106 101.97 148.31C101.97 146.637 101.637 145.389 100.963 144.567C100.289 143.745 99.4628 143.337 98.4722 143.337C97.425 143.337 96.5589 143.751 95.874 144.585C95.189 145.418 94.8494 146.683 94.8494 148.38Z" fill="#141927"/>
<path d="M115.63 131.315H122.842V158.005H115.63V131.315Z" fill="#141927"/>
<path d="M149.94 158.011H143.22V154.88C142.218 156.169 141.205 157.084 140.186 157.632C139.167 158.18 137.916 158.454 136.428 158.454C134.446 158.454 132.895 157.842 131.769 156.624C130.642 155.405 130.082 153.528 130.082 150.986V138.679H137.311V149.313C137.311 150.525 137.526 151.388 137.967 151.895C138.403 152.403 139.015 152.659 139.807 152.659C140.667 152.659 141.369 152.321 141.918 151.639C142.468 150.957 142.739 149.738 142.739 147.978V138.673H149.934V158.011H149.94Z" fill="#141927"/>
<path d="M165.699 131.315V138.673H169.661V144.101H165.699V150.951C165.699 151.773 165.778 152.321 165.931 152.583C166.168 152.997 166.576 153.201 167.17 153.201C167.702 153.201 168.444 153.044 169.395 152.729L169.927 157.842C168.15 158.244 166.485 158.442 164.94 158.442C163.151 158.442 161.827 158.203 160.978 157.731C160.128 157.259 159.5 156.542 159.093 155.574C158.685 154.612 158.481 153.05 158.481 150.893V144.089H155.832V138.661H158.481V135.111L165.693 131.304L165.699 131.315Z" fill="#141927"/>
<path d="M176.069 131.315H183.264V136.358H176.069V131.315ZM176.069 138.673H183.264V158.011H176.069V138.673Z" fill="#141927"/>
<path d="M189.694 148.397C189.694 145.447 190.662 143.016 192.593 141.104C194.523 139.192 197.138 138.236 200.427 138.236C204.186 138.236 207.027 139.361 208.946 141.605C210.492 143.413 211.261 145.64 211.261 148.287C211.261 151.26 210.305 153.697 208.392 155.597C206.478 157.498 203.829 158.448 200.444 158.448C197.427 158.448 194.987 157.661 193.125 156.081C190.838 154.128 189.694 151.569 189.694 148.397ZM196.906 148.38C196.906 150.106 197.246 151.377 197.925 152.204C198.604 153.032 199.453 153.44 200.478 153.44C201.502 153.44 202.369 153.032 203.031 152.222C203.699 151.411 204.027 150.106 204.027 148.31C204.027 146.637 203.693 145.389 203.02 144.567C202.346 143.745 201.519 143.337 200.529 143.337C199.482 143.337 198.616 143.751 197.931 144.585C197.246 145.418 196.906 146.683 196.906 148.38Z" fill="#141927"/>
<path d="M217.443 138.673H224.145V141.821C225.147 140.533 226.161 139.617 227.185 139.064C228.21 138.51 229.461 138.236 230.933 138.236C232.925 138.236 234.482 138.848 235.608 140.066C236.735 141.285 237.295 143.168 237.295 145.721V158.011H230.066V147.377C230.066 146.164 229.846 145.307 229.41 144.8C228.974 144.299 228.363 144.042 227.57 144.042C226.698 144.042 225.991 144.381 225.447 145.063C224.904 145.745 224.632 146.963 224.632 148.724V158.011H217.438V138.673H217.443Z" fill="#141927"/>
<path d="M243.029 152.636L250.173 151.942C250.467 152.817 250.881 153.44 251.413 153.819C251.945 154.198 252.652 154.385 253.535 154.385C254.503 154.385 255.251 154.175 255.783 153.749C256.196 153.435 256.4 153.038 256.4 152.566C256.4 152.035 256.128 151.621 255.585 151.33C255.194 151.126 254.164 150.869 252.488 150.566C249.992 150.117 248.254 149.703 247.28 149.319C246.307 148.94 245.492 148.292 244.824 147.383C244.156 146.473 243.827 145.436 243.827 144.27C243.827 142.999 244.19 141.897 244.909 140.976C245.628 140.055 246.618 139.367 247.88 138.912C249.143 138.457 250.835 138.23 252.952 138.23C255.194 138.23 256.847 138.405 257.911 138.76C258.975 139.11 259.87 139.658 260.583 140.399C261.296 141.139 261.891 142.142 262.36 143.401L255.539 144.095C255.364 143.477 255.07 143.022 254.656 142.731C254.09 142.34 253.405 142.148 252.607 142.148C251.809 142.148 251.203 142.293 250.83 142.591C250.456 142.888 250.275 143.249 250.275 143.675C250.275 144.147 250.513 144.503 250.983 144.748C251.452 144.993 252.477 145.208 254.056 145.401C256.451 145.681 258.228 146.065 259.394 146.567C260.56 147.062 261.455 147.774 262.072 148.695C262.689 149.616 263 150.63 263 151.732C263 152.834 262.672 153.936 262.021 154.985C261.364 156.041 260.334 156.88 258.924 157.504C257.515 158.128 255.596 158.442 253.168 158.442C249.737 158.442 247.297 157.941 245.843 156.933C244.388 155.924 243.454 154.496 243.041 152.636H243.029Z" fill="#141927"/>
</svg>
