<svg width="154" height="26" viewBox="0 0 154 26" fill="none" xmlns="http://www.w3.org/2000/svg">
<g clip-path="url(#clip0_122_571)">
<path d="M25.541 7.64073C24.5232 5.00957 22.4996 2.85532 19.8867 1.62141C17.2738 0.387512 14.2704 0.167867 11.4949 1.00769C8.71931 1.84752 6.38279 3.6829 4.96627 6.13603C3.54975 8.58916 3.16102 11.4733 3.88012 14.1949C4.02823 14.756 4.22266 15.3048 4.46154 15.8359L0.814301 21.1672L8.02251 20.2159C9.98368 21.6515 12.3744 22.4336 14.8353 22.4448C17.2962 22.4559 19.6944 21.6955 21.6695 20.2778C23.6445 18.86 25.0897 16.8616 25.7879 14.5828C26.486 12.304 26.3994 9.86791 25.541 7.64073Z" fill="white"/>
<path d="M15.0517 20.9773C20.3553 20.9773 24.6546 16.8256 24.6546 11.7042C24.6546 6.5828 20.3553 2.43109 15.0517 2.43109C9.74821 2.43109 5.44885 6.5828 5.44885 11.7042C5.44885 16.8256 9.74821 20.9773 15.0517 20.9773Z" fill="#171A40"/>
<path d="M9.94618 7.2913C10.4741 7.42292 10.5 7.85775 10.519 8.33423C10.5483 9.01397 10.5966 9.69371 10.6535 10.3718C10.662 10.4648 10.6452 10.5583 10.6046 10.6431C10.5641 10.7279 10.5012 10.8009 10.4224 10.8549C10.1065 11.0758 9.77885 11.2805 9.44068 11.468C9.35813 11.5103 9.29162 11.5768 9.2507 11.658C9.20977 11.7391 9.19655 11.8307 9.21294 11.9195C9.54397 13.6466 10.4974 15.2047 11.9044 16.3178C11.9703 16.3696 12.0513 16.4001 12.136 16.4052C12.2208 16.4103 12.3051 16.3896 12.3771 16.3461L13.621 15.6048C13.7134 15.5497 13.8221 15.5258 13.9301 15.5366C14.0381 15.5475 14.1393 15.5925 14.218 15.6647C14.8425 16.2412 15.4533 16.831 16.0709 17.4141C16.1391 17.4774 16.184 17.5605 16.1986 17.6508C16.2133 17.741 16.1969 17.8335 16.152 17.9139C15.719 19.0368 14.9322 19.5066 13.4675 19.4533C12.8993 19.4199 12.3539 19.2258 11.8992 18.8952C10.3844 17.8739 9.06629 16.6993 8.23298 15.08C7.60893 13.8966 7.15502 12.6366 6.88382 11.3347C6.71129 10.5017 6.72164 9.66872 7.10638 8.87403C7.28021 8.50783 7.52731 8.17844 7.83347 7.90481C8.13963 7.63119 8.4988 7.41872 8.89031 7.27964C9.23462 7.17516 9.60444 7.17924 9.94618 7.2913Z" fill="white"/>
<path d="M15.1807 9.15724C15.9372 9.15724 16.5506 8.565 16.5506 7.83442C16.5506 7.10385 15.9372 6.5116 15.1807 6.5116C14.4241 6.5116 13.8108 7.10385 13.8108 7.83442C13.8108 8.565 14.4241 9.15724 15.1807 9.15724Z" fill="white"/>
<path d="M20.0115 9.15724C20.768 9.15724 21.3813 8.565 21.3813 7.83442C21.3813 7.10385 20.768 6.5116 20.0115 6.5116C19.2549 6.5116 18.6416 7.10385 18.6416 7.83442C18.6416 8.565 19.2549 9.15724 20.0115 9.15724Z" fill="white"/>
<path d="M42.6022 16.8043V20.7145H39.4225C36.4533 20.7145 34.6487 18.9618 34.6487 16.0812V11.1898H32.1919V10.1469L38.2062 3.96259H39.1569V7.75279H42.528V11.1898H39.2724V15.3149C39.2724 16.2429 39.8521 16.8043 40.8252 16.8043H42.6022Z" fill="white"/>
<path d="M58.4679 14.1103C58.4653 14.5063 58.433 14.9017 58.3713 15.2932H48.4044C48.708 16.7793 49.6862 17.5473 51.1458 17.5473C52.2258 17.5473 53.1282 17.0908 53.5716 16.3328H58.1729C57.2274 19.2916 54.5136 21.1393 51.1458 21.1393C46.9568 21.1393 43.8548 18.1837 43.8548 14.2236C43.8548 10.2634 46.9327 7.33624 51.1458 7.33624C55.4728 7.33624 58.4679 10.3168 58.4679 14.1186V14.1103ZM48.4872 12.8208H53.9132C53.5077 11.5246 52.5329 10.8216 51.1527 10.8216C49.7984 10.8349 48.8616 11.533 48.4872 12.8208Z" fill="white"/>
<path d="M74.858 7.73777V20.6994H71.2833L70.8864 19.7831C69.7399 20.6741 68.3088 21.1534 66.8372 21.1393C62.7328 21.1393 59.7981 18.2471 59.7981 14.2186C59.7981 10.1902 62.731 7.34792 66.8372 7.34792C68.3311 7.33314 69.7828 7.82617 70.9382 8.74071L71.4109 7.7411L74.858 7.73777ZM70.4603 14.2353C70.4603 12.5526 69.187 11.2881 67.4549 11.2881C65.7227 11.2881 64.4512 12.5526 64.4512 14.2353C64.4512 15.918 65.7227 17.1908 67.4549 17.1908C69.187 17.1908 70.4603 15.9229 70.4603 14.2303V14.2353Z" fill="white"/>
<path d="M82.9496 21.1393C79.2903 21.1393 77.0664 19.2733 77.025 16.4644H81.4745C81.4745 17.4124 82.1646 17.8489 83.0358 17.8489C83.7122 17.8489 84.3522 17.5157 84.3522 16.8492C84.3522 16.1012 83.336 15.8879 82.0473 15.683C79.9648 15.3582 77.2061 14.7517 77.2061 11.6079C77.2061 9.00227 79.499 7.33624 82.9375 7.33624C86.376 7.33624 88.5723 9.0839 88.6309 11.7096H84.2953C84.2953 10.8765 83.7191 10.4967 82.8806 10.4967C82.1404 10.4967 81.6418 10.8516 81.6418 11.453C81.6418 12.1894 82.6684 12.361 83.9433 12.5809C86.0637 12.9441 88.8828 13.3706 88.8828 16.6577C88.8828 19.3666 86.5157 21.1393 82.9479 21.1393H82.9496Z" fill="white"/>
<path d="M104.531 7.75275L98.9049 20.138C97.0969 24.1048 95.4337 25.5376 91.9676 25.5376H90.3838V21.7057H91.6553C93.4237 21.7057 93.9586 21.2609 94.5883 19.6482L89.0381 7.75275H94.0621L96.9123 14.8933L99.564 7.75275H104.531Z" fill="white"/>
<path d="M118.663 7.34791C122.795 7.34791 125.714 10.2151 125.714 14.2436C125.714 18.272 122.791 21.1393 118.663 21.1393C117.185 21.1547 115.75 20.6629 114.614 19.7515L114.177 20.7144H110.756V3.07123H115.326V8.23591C116.33 7.64285 117.486 7.33348 118.663 7.34292V7.34791ZM121.049 14.2436C121.049 12.5509 119.776 11.2864 118.043 11.2864C116.311 11.2864 115.04 12.5509 115.04 14.2436C115.04 15.9363 116.313 17.1858 118.043 17.1858C119.774 17.1858 121.049 15.9213 121.049 14.2436Z" fill="white"/>
<path d="M127.051 14.2336C127.051 10.2152 130.2 7.32794 134.577 7.32794C138.954 7.32794 142.102 10.2152 142.102 14.2336C142.102 18.2521 138.938 21.1393 134.577 21.1393C130.215 21.1393 127.051 18.2371 127.051 14.2336ZM134.577 17.1275C136.262 17.1275 137.472 15.9463 137.472 14.2336C137.472 12.5209 136.262 11.3347 134.577 11.3347C132.891 11.3347 131.682 12.5159 131.682 14.2303C131.682 15.9446 132.889 17.1242 134.577 17.1242V17.1275Z" fill="white"/>
<path d="M153.092 16.8043V20.7145H149.911C146.942 20.7145 145.139 18.9618 145.139 16.0812V11.1898H142.682V10.1469L148.695 3.96259H149.645V7.75279H153.017V11.1898H149.761V15.3149C149.761 16.2429 150.342 16.8043 151.314 16.8043H153.092Z" fill="white"/>
</g>
<defs>
<clipPath id="clip0_122_571">
<rect width="152.278" height="25.032" fill="white" transform="translate(0.814301 0.505554)"/>
</clipPath>
</defs>
</svg>
