<svg width="144" height="74" viewBox="0 0 144 74" fill="none" xmlns="http://www.w3.org/2000/svg">
<g clip-path="url(#clip0_105_433)">
<path d="M50.4421 71.8502C50.295 73.3596 49.2122 73.1949 48.1872 73.2083C47.5455 73.2172 47.2915 73.0123 47.296 72.34C47.3138 66.3113 47.3138 60.2781 47.296 54.2494C47.296 53.5949 47.5232 53.4079 48.1738 53.3634C50.5936 53.1986 50.5892 53.1719 50.5936 55.6164C50.5936 57.2371 50.607 58.8578 50.6204 60.4785C50.6204 60.5586 50.7006 60.6432 50.7986 60.8169C51.574 60.3761 52.2603 59.7839 53.1471 59.539C55.7317 58.8177 58.1426 59.8863 59.123 62.3619C60.0053 64.5971 60.0632 66.8901 59.3458 69.2054C58.1871 72.95 53.7308 74.8423 50.4466 71.8458L50.4421 71.8502ZM50.5624 66.5473C50.5624 67.1528 50.6248 67.7673 50.5491 68.3639C50.3574 69.8644 51.2086 70.4699 52.4786 70.7505C54.1765 71.1289 55.656 70.1939 56.1373 68.4084C56.5249 66.9703 56.5383 65.5188 56.1818 64.0672C55.7941 62.4955 54.6845 61.6629 53.2362 61.8499C51.6052 62.0636 50.5758 63.1678 50.5624 64.7307C50.558 65.3362 50.5624 65.9417 50.5624 66.5473Z" fill="#759EFF"/>
<path d="M95.0678 73.333C89.3147 73.3196 85.5135 69.0586 85.7808 62.9274C86.0304 57.2371 90.6694 53.212 96.3957 53.7018C98.0936 53.8487 99.68 54.2851 101.061 55.3225C101.592 55.7188 102.43 55.9949 101.636 56.9165C101.004 57.6512 100.629 58.8178 99.2923 57.8427C97.8663 56.8052 96.2264 56.587 94.5107 56.872C94.0161 56.9522 93.508 57.059 93.0535 57.2683C90.6025 58.377 89.5999 60.4652 89.4706 62.9898C89.337 65.6435 89.9475 68.1235 92.4608 69.5216C94.7112 70.7728 97.082 70.6837 99.1675 69.0764C100.411 68.1191 100.839 69.1298 101.494 69.7531C102.403 70.6258 101.427 70.9954 100.981 71.3828C99.2968 72.8566 97.2513 73.3419 95.0633 73.333H95.0678Z" fill="#E31D29"/>
<path d="M9.49394 73.3374C3.60272 73.3374 -0.122746 69.0719 0.180282 62.6781C0.438747 57.2282 5.13123 53.2388 10.715 53.7018C12.4707 53.8488 14.0973 54.3118 15.5233 55.376C16.0313 55.7544 16.7622 56.0928 16.0224 56.8898C15.4297 57.5265 15.1445 58.84 13.8299 57.9228C12.5287 57.0145 11.0759 56.6761 9.51177 56.7874C5.60359 57.0635 3.166 60.621 3.91466 64.9444C4.77472 69.9045 9.40036 71.8637 13.6561 69.0007C14.8861 68.1725 15.2247 69.1877 15.8575 69.7309C16.7131 70.4656 15.9645 70.8574 15.5189 71.2626C13.8121 72.8076 11.7399 73.333 9.49394 73.3419V73.3374Z" fill="#759EFF"/>
<path d="M111.369 66.6987C110.202 66.6987 109.039 66.7344 107.876 66.6854C107.087 66.6542 106.944 66.9837 107.029 67.6872C107.274 69.7576 109.141 71.1335 111.294 70.7817C112.207 70.6303 113 70.1851 113.816 69.7754C114.796 69.2857 115.139 70.1227 115.603 70.6971C116.222 71.4629 115.42 71.6589 115.055 71.9394C112.894 73.6002 109.159 73.8584 106.86 72.447C104.039 70.7105 103.402 67.99 103.709 64.9311C103.976 62.2418 105.737 60.2114 108.308 59.4946C112.452 58.3325 115.977 60.9194 116.066 65.1359C116.089 66.249 115.861 66.859 114.56 66.721C113.508 66.6097 112.435 66.6987 111.369 66.6987ZM110.077 64.753C110.781 64.753 111.49 64.7085 112.194 64.7619C113.067 64.8287 113.241 64.4858 112.996 63.7067C112.635 62.5312 111.904 61.801 110.661 61.663C109.364 61.5205 108.255 61.8633 107.55 63.0388C107.274 63.5018 106.851 64.0361 107.158 64.566C107.399 64.9801 107.987 64.7174 108.419 64.7441C108.972 64.7797 109.529 64.753 110.082 64.753H110.077Z" fill="#E31D29"/>
<path d="M26.4902 71.6722C25.1533 72.7943 23.6159 73.4666 21.7933 73.333C19.9127 73.195 18.7006 72.2288 18.3084 70.5146C17.943 68.9072 18.5981 67.5091 20.2157 66.6052C21.6061 65.8305 23.1391 65.5366 24.7166 65.3719C25.2736 65.314 26.2763 65.8839 26.3476 64.6729C26.41 63.5686 26.2629 62.5178 25.0419 62.037C23.9011 61.5873 22.8539 61.9524 21.8467 62.4778C21.4011 62.7093 20.9956 63.0299 20.4564 63.0299C19.6275 63.0299 19.3735 62.3575 19.0838 61.7876C18.7897 61.2043 19.3512 60.9862 19.6943 60.7413C21.5214 59.4456 23.5758 59.0182 25.7549 59.3744C27.9207 59.7306 29.4269 61.4537 29.5383 63.8848C29.6631 66.6631 29.574 69.4504 29.5784 72.2377C29.5784 72.6473 29.6185 73.1193 29.008 73.0792C28.3396 73.0347 27.5552 73.3909 27.0695 72.6072C26.8868 72.3134 26.9046 71.9037 26.4857 71.6811L26.4902 71.6722ZM26.2807 68.3017C26.2094 68.1191 26.7308 67.282 25.7683 67.3221C24.5205 67.3711 23.2416 67.4423 22.1498 68.1636C21.2496 68.7558 21.0936 70.0159 21.869 70.6036C22.8182 71.3249 23.8833 71.1157 24.8726 70.6838C25.7683 70.2919 26.615 69.7933 26.2807 68.3061V68.3017Z" fill="#759EFF"/>
<path d="M83.5615 68.1458C83.5615 69.3614 83.5971 70.5769 83.5437 71.788C83.5214 72.251 83.9313 73.0391 82.9866 73.0614C82.2781 73.0748 81.311 73.4354 80.9991 72.4603C80.6916 71.4897 80.3574 71.7034 79.7736 72.1575C78.5169 73.1416 77.0553 73.4666 75.4867 73.3018C73.8245 73.1282 72.6703 72.162 72.3182 70.6927C71.9216 69.0452 72.4296 67.7317 73.9047 66.7789C75.3441 65.8483 76.9795 65.5634 78.6551 65.3719C79.221 65.3096 80.2193 65.8439 80.2861 64.6417C80.3485 63.5419 80.2282 62.4867 78.9804 62.0192C77.8307 61.5873 76.7968 61.9613 75.7852 62.4867C75.295 62.7405 74.8494 63.1056 74.2389 63.0032C73.5259 62.883 73.2853 62.2863 73.0357 61.7476C72.7639 61.1598 73.3387 60.9595 73.6774 60.719C75.5045 59.4233 77.5588 59.0048 79.738 59.3655C81.9795 59.735 83.4545 61.6496 83.5437 64.192C83.5882 65.5055 83.5526 66.8234 83.5526 68.1369L83.5615 68.1458ZM80.2415 68.4931C80.1212 68.2126 80.7184 67.2954 79.6578 67.3266C78.4501 67.3622 77.2157 67.4646 76.1551 68.1369C75.2237 68.7291 75.0366 69.9714 75.8075 70.5814C76.7523 71.3294 77.8307 71.129 78.8244 70.6927C79.6533 70.3276 80.5223 69.8868 80.2415 68.4976V68.4931Z" fill="#759EFF"/>
<path d="M130.321 66.1734C130.321 65.363 130.326 64.5526 130.321 63.7423C130.312 62.8206 130.606 61.7208 128.993 61.8811C128.396 61.939 128.334 61.3735 128.36 60.8882C128.387 60.4652 128.196 59.8374 128.9 59.873C130.892 59.9621 130.794 58.4349 130.959 57.206C131.123 55.9682 131.382 55.051 132.959 55.2959C133.552 55.3894 133.766 55.5808 133.708 56.1418C133.695 56.2932 133.708 56.4446 133.708 56.596C133.744 59.3476 133.744 59.4055 136.453 59.548C137.5 59.6014 137.229 60.2248 137.251 60.7769C137.278 61.3869 137.367 61.9212 136.391 61.9702C133.708 62.0993 133.708 62.1572 133.708 64.8287C133.708 66.2446 133.681 67.6649 133.717 69.0808C133.748 70.4834 134.27 70.9821 135.482 70.4745C136.966 69.8556 137.041 71.1424 137.362 71.7791C137.763 72.5716 136.796 72.7007 136.315 72.9011C132.955 74.2903 130.589 72.821 130.352 69.2144C130.286 68.2082 130.344 67.1885 130.344 66.1778C130.339 66.1778 130.33 66.1778 130.326 66.1778L130.321 66.1734Z" fill="#E31D29"/>
<path d="M36.3693 63.2792C36.3693 66.111 36.2668 68.9517 36.4094 71.7746C36.4896 73.2884 35.6652 73.1237 34.7383 73.0925C33.8916 73.0658 32.9914 73.422 33.0182 71.8547C33.1162 66.0887 33.1162 60.3227 33.0182 54.5567C32.9914 53.0028 33.8693 53.3278 34.7383 53.2877C35.7053 53.2432 36.4718 53.172 36.405 54.6324C36.2757 57.5087 36.3693 60.3984 36.3693 63.2792Z" fill="#759EFF"/>
<path d="M122.002 61.5383C122.951 60.434 123.829 59.3699 125.317 59.2096C126.043 59.1294 126.948 59.0805 127.273 59.686C127.674 60.434 127.238 61.3735 126.966 62.1572C126.712 62.8785 125.994 62.4065 125.482 62.3798C123.481 62.2729 122.055 63.5374 122.033 65.5322C122.006 67.656 121.984 69.7843 122.046 71.9082C122.073 72.812 121.877 73.1326 120.896 73.1103C118.748 73.0658 118.748 73.1282 118.748 70.9197C118.748 67.6293 118.731 64.3389 118.766 61.0485C118.775 60.4073 118.321 59.4144 119.68 59.45C120.723 59.4767 121.81 59.3209 121.743 60.8971C121.734 61.0707 121.881 61.2533 122.002 61.5338V61.5383Z" fill="#E31D29"/>
<path d="M65.696 61.3468C66.5383 60.532 67.2959 59.4857 68.6327 59.263C69.4616 59.125 70.4687 58.9914 70.8654 59.7083C71.2486 60.4029 70.8475 61.3691 70.5802 62.1705C70.4108 62.6826 69.934 62.4956 69.5329 62.4599C66.877 62.2373 65.6515 63.3549 65.647 65.9863C65.647 67.9588 65.6025 69.9313 65.6649 71.8993C65.6916 72.7898 65.5178 73.1326 64.524 73.1148C62.336 73.0792 62.336 73.1415 62.336 70.9732C62.336 67.6382 62.3182 64.2988 62.3494 60.9639C62.3538 60.3628 61.9394 59.4278 63.1916 59.4589C64.1898 59.4857 65.3395 59.2185 65.344 60.8125C65.344 61.004 65.3395 61.2221 65.6916 61.3424L65.696 61.3468Z" fill="#759EFF"/>
<path d="M40.3048 66.1956C40.3048 64.321 40.3405 62.4465 40.287 60.5765C40.2647 59.7394 40.4965 59.4455 41.3833 59.4366C43.5891 59.4233 43.5891 59.3743 43.5891 61.5961C43.5891 65.0379 43.5178 68.4841 43.6203 71.9215C43.6693 73.5823 42.5731 73.0168 41.7977 73.0658C41.0357 73.1148 40.1801 73.3463 40.2737 71.9571C40.4029 70.0425 40.3048 68.1101 40.3048 66.1866V66.1956Z" fill="#759EFF"/>
<path d="M143.343 66.3559C143.343 68.2304 143.307 70.1004 143.36 71.9749C143.383 72.7897 143.213 73.1148 142.3 73.1103C140.063 73.1059 140.063 73.1593 140.063 70.8574C140.063 67.518 140.156 64.1741 140.023 60.8392C139.96 59.2452 140.86 59.5123 141.818 59.45C142.924 59.3743 143.463 59.5969 143.374 60.8971C143.244 62.7092 143.343 64.5392 143.343 66.3603V66.3559Z" fill="#E31D29"/>
<path d="M44.0302 55.5318C44.0169 56.6895 43.0499 57.6067 41.8689 57.5666C40.795 57.531 39.828 56.5692 39.8146 55.5274C39.8012 54.4187 40.8306 53.3857 41.9447 53.3902C43.0855 53.3946 44.0391 54.3742 44.0258 55.5318H44.0302Z" fill="#759EFF"/>
<path d="M143.842 55.5808C143.798 56.7073 142.768 57.6201 141.605 57.5577C140.513 57.4999 139.618 56.5559 139.631 55.474C139.644 54.3341 140.651 53.3635 141.788 53.3902C142.92 53.4214 143.887 54.4499 143.842 55.5764V55.5808Z" fill="#E31D29"/>
<path d="M82.073 35.0413H66.4893V38.158H82.073C82.63 38.158 83.0846 38.5855 83.0846 39.1153V39.7342C83.0846 40.2641 82.63 40.6915 82.073 40.6915H66.9884C66.4314 40.6915 65.9768 40.2641 65.9768 39.7342V38.6656V34.5025V8.65564H62.8574V39.7342C62.8574 41.9783 64.7112 43.8083 66.9884 43.8083H82.073C84.3501 43.8083 86.204 41.9827 86.204 39.7342V39.1153C86.204 36.8712 84.3501 35.0413 82.073 35.0413Z" fill="#E42320"/>
<path d="M61.9312 35.0413C61.3742 35.0413 60.9196 34.6139 60.9196 34.084V9.1054C60.9196 8.57555 61.3742 8.14811 61.9312 8.14811H82.0737C84.3508 8.14811 86.2047 6.32257 86.2047 4.07405C86.2047 1.82553 84.3508 0 82.0737 0H66.9668C65.8438 0 64.7966 0.436347 64.0123 1.22444C63.2414 1.99918 62.8225 3.02326 62.8358 4.10967V4.52376H65.9597V4.08296C65.9552 3.83807 66.0488 3.60209 66.2315 3.41953C66.4232 3.22362 66.6861 3.11676 66.9713 3.11676H82.0781C82.6352 3.11676 83.0897 3.5442 83.0897 4.07405C83.0897 4.6039 82.6352 5.03134 82.0781 5.03134H61.9357C59.6585 5.03134 57.8047 6.85688 57.8047 9.1054V34.0885C57.8047 36.3325 59.6585 38.1625 61.9357 38.1625H62.3546V35.0458H61.9357L61.9312 35.0413Z" fill="#759EFF"/>
</g>
<defs>
<clipPath id="clip0_105_433">
<rect width="143.68" height="73.4131" fill="white" transform="translate(0.162109)"/>
</clipPath>
</defs>
</svg>
