<svg width="38" height="38" viewBox="0 0 38 38" fill="none" xmlns="http://www.w3.org/2000/svg">
<path fill-rule="evenodd" clip-rule="evenodd" d="M30.7807 7.20672C29.2437 5.66895 27.4177 4.45039 25.4079 3.62117C23.398 2.79196 21.244 2.36846 19.0698 2.37508C9.94531 2.37508 2.5175 9.76578 2.51379 18.8516C2.50975 21.7448 3.27238 24.5873 4.72402 27.0899L2.375 35.6251L11.1514 33.3339C13.5807 34.65 16.3002 35.3388 19.0631 35.3379H19.0698C28.1935 35.3379 35.6206 27.9464 35.625 18.8613C35.6305 16.6945 35.2051 14.5483 34.3734 12.5475C33.5418 10.5466 32.3205 8.73117 30.7807 7.20672ZM19.0698 32.5569H19.0638C16.6008 32.5576 14.1825 31.8984 12.0605 30.648L11.5581 30.3511L6.35016 31.7108L7.74027 26.6572L7.41297 26.1377C6.03576 23.9573 5.30608 21.4306 5.30887 18.8516C5.30887 11.3014 11.4846 5.15828 19.075 5.15828C22.7161 5.15178 26.2108 6.59184 28.7903 9.16173C31.3698 11.7316 32.8228 15.2209 32.8299 18.862C32.827 26.413 26.6542 32.5569 19.0698 32.5569ZM26.6171 22.3006C26.2037 22.0943 24.1679 21.0982 23.7908 20.9609C23.4138 20.8236 23.1355 20.7546 22.8601 21.1673C22.5848 21.5799 21.7914 22.5032 21.5502 22.7815C21.3089 23.0598 21.0677 23.0903 20.6543 22.8839C20.2409 22.6776 18.9072 22.2434 17.3271 20.8407C16.0973 19.7489 15.2675 18.4011 15.0263 17.9892C14.7851 17.5773 15.0004 17.3539 15.2074 17.1491C15.3937 16.9643 15.6208 16.6681 15.8279 16.4277C16.035 16.1872 16.104 16.015 16.2413 15.7404C16.3786 15.4658 16.3103 15.2253 16.2072 15.0197C16.104 14.8141 15.2764 12.7872 14.9321 11.9627C14.5959 11.1596 14.2552 11.2687 14.0014 11.2561C13.7602 11.2442 13.4818 11.2412 13.208 11.2412C12.9986 11.2467 12.7926 11.2952 12.6029 11.3839C12.4131 11.4725 12.2436 11.5993 12.1051 11.7563C11.7258 12.169 10.6571 13.1665 10.6571 15.1912C10.6571 17.2159 12.1414 19.1752 12.3463 19.4498C12.5511 19.7245 15.2631 23.8829 19.4127 25.6664C20.1832 25.9964 20.9705 26.2857 21.7713 26.5333C22.7622 26.8465 23.6639 26.8027 24.3764 26.6966C25.1713 26.5786 26.8256 25.7005 27.1693 24.7387C27.5129 23.7768 27.5136 22.953 27.4105 22.7815C27.3073 22.6101 27.0312 22.5062 26.6171 22.3006Z" fill="white"/>
</svg>
