<?xml version="1.0" encoding="utf-8"?>
<!-- Generator: Adobe Illustrator 27.0.0, SVG Export Plug-In . SVG Version: 6.00 Build 0)  -->
<svg version="1.1" id="Layer_1" xmlns="http://www.w3.org/2000/svg" xmlns:xlink="http://www.w3.org/1999/xlink" x="0px" y="0px"
	 viewBox="0 0 38 38" style="enable-background:new 0 0 38 38;" xml:space="preserve">
<style type="text/css">
	.st0{clip-path:url(#SVGID_00000057150094440979495080000017664126385108828050_);}
	.st1{fill:#5252FF;}
</style>
<g>
	<defs>
		<rect id="SVGID_1_" width="38" height="38"/>
	</defs>
	<clipPath id="SVGID_00000117669892181065724710000005429700396315103679_">
		<use xlink:href="#SVGID_1_"  style="overflow:visible;"/>
	</clipPath>
	<g style="clip-path:url(#SVGID_00000117669892181065724710000005429700396315103679_);">
		<path class="st1" d="M7.6,9.5c1.6,0,2.8-1.3,2.8-2.8S9.2,3.8,7.6,3.8C6,3.8,4.8,5.1,4.8,6.7S6,9.5,7.6,9.5z M30.4,9.5
			c1.6,0,2.9-1.3,2.9-2.8S32,3.8,30.4,3.8s-2.9,1.3-2.9,2.9S28.8,9.5,30.4,9.5z M37.9,31.6l-2.6-6.5l-2.4,2.8l-0.1,1.1l1.6,4.1
			c0.3,0.7,1,1.2,1.8,1.2c0.2,0,0.5,0,0.7-0.1C37.8,33.7,38.3,32.6,37.9,31.6z M35.8,19.1l-1.1-4.8c-0.3-1.2-1.1-2.2-2.2-2.7
			c-1.1-0.5-2.3-0.4-3.3,0.2c-1.3,0.8-2.4,2-2.9,3.5l-0.7,2L24.7,18v-5.7c0-0.5-0.4-1-1-1h-9.5c-0.5,0-0.9,0.4-0.9,1V18l-1-0.6
			l-0.7-2c-0.5-1.5-1.5-2.7-2.9-3.5c-1-0.6-2.2-0.7-3.3-0.2c-1.1,0.5-2,1.5-2.2,2.7l-1.1,4.8c-0.3,1.2,0,2.4,0.9,3.4L7,27l0.6,5.5
			c0.1,1,0.9,1.7,1.9,1.7c0.1,0,0.1,0,0.2,0c1-0.1,1.8-1.1,1.7-2.1l-0.6-5.5c-0.1-0.8-0.4-1.5-0.9-2.1l-2.6-2.9l1-4.2l0.4,1.2
			c0.2,0.7,0.7,1.4,1.5,1.9l3,1.9c0.3,0.2,0.7,0.3,1,0.3h9.5c0.3,0,0.7-0.1,1-0.3l3-1.9c0.7-0.5,1.2-1.2,1.5-1.9l0.4-1.2l1,4.2
			l-2.6,2.9c-0.5,0.6-0.8,1.3-0.9,2.1l-0.6,5.5c-0.1,1,0.6,2,1.7,2.1c0.1,0,0.1,0,0.2,0c1,0,1.8-0.7,1.9-1.7L31,27l4-4.5
			C35.8,21.6,36.1,20.3,35.8,19.1z M2.7,25.1l-2.6,6.5c-0.4,1,0.1,2.1,1.1,2.5c1,0.4,2.1-0.1,2.5-1.1l1.6-4.1l-0.1-1.1L2.7,25.1z"/>
	</g>
</g>
</svg>
