<?xml version="1.0" encoding="utf-8"?>
<!-- Generator: Adobe Illustrator 27.0.0, SVG Export Plug-In . SVG Version: 6.00 Build 0)  -->
<svg version="1.1" id="Layer_1" xmlns="http://www.w3.org/2000/svg" xmlns:xlink="http://www.w3.org/1999/xlink" x="0px" y="0px"
	 viewBox="0 0 34 35" style="enable-background:new 0 0 34 35;" xml:space="preserve">
<style type="text/css">
	.st0{fill:#5252FF;}
</style>
<path class="st0" d="M28.7,2.8H5.3C3.6,2.8,2.1,4.2,2.1,6v23.4c0,1.8,1.4,3.2,3.2,3.2h23.4c1.8,0,3.2-1.4,3.2-3.2V6
	C31.9,4.2,30.4,2.8,28.7,2.8z M12.8,25.1c0,0.6-0.5,1.1-1.1,1.1H9.6c-0.6,0-1.1-0.5-1.1-1.1v-8.5c0-0.6,0.5-1.1,1.1-1.1h2.1
	c0.6,0,1.1,0.5,1.1,1.1V25.1z M19.1,25.1c0,0.6-0.5,1.1-1.1,1.1h-2.1c-0.6,0-1.1-0.5-1.1-1.1V10.3c0-0.6,0.5-1.1,1.1-1.1h2.1
	c0.6,0,1.1,0.5,1.1,1.1V25.1z M25.5,25.1c0,0.6-0.5,1.1-1.1,1.1h-2.1c-0.6,0-1.1-0.5-1.1-1.1v-4.2c0-0.6,0.5-1.1,1.1-1.1h2.1
	c0.6,0,1.1,0.5,1.1,1.1V25.1z"/>
</svg>
