<svg width="34" height="34" viewBox="0 0 34 34" fill="none" xmlns="http://www.w3.org/2000/svg">
<path d="M17 34C26.3884 34 34 26.3884 34 17C34 7.61159 26.3884 0 17 0C7.61159 0 0 7.61159 0 17C0 26.3884 7.61159 34 17 34ZM9.53308 16.62C9.65403 16.498 9.79782 16.4011 9.95623 16.3347C10.1146 16.2683 10.2846 16.2338 10.4563 16.2332C10.6281 16.2325 10.7983 16.2656 10.9572 16.3307C11.1162 16.3958 11.2607 16.4916 11.3826 16.6126L15.6923 20.8887V9.97115C15.6923 9.62433 15.8301 9.29172 16.0753 9.04648C16.3206 8.80124 16.6532 8.66346 17 8.66346C17.3468 8.66346 17.6794 8.80124 17.9247 9.04648C18.1699 9.29172 18.3077 9.62433 18.3077 9.97115V20.8887L22.6174 16.6126C22.8638 16.3683 23.1972 16.2319 23.5442 16.2335C23.8913 16.235 24.2234 16.3743 24.4677 16.6208C24.712 16.8672 24.8484 17.2006 24.8469 17.5477C24.8453 17.8947 24.706 18.2269 24.4596 18.4712L17.9211 24.9598C17.6762 25.2028 17.3451 25.3392 17 25.3392C16.6549 25.3392 16.3238 25.2028 16.0789 24.9598L9.54043 18.4712C9.41824 18.3502 9.32111 18.2063 9.2546 18.0477C9.18808 17.8892 9.1535 17.719 9.15281 17.5471C9.15213 17.3751 9.18536 17.2047 9.25061 17.0456C9.31587 16.8866 9.41185 16.7419 9.53308 16.62V16.62Z" fill="#171A40"/>
</svg>
