<?xml version="1.0" encoding="utf-8"?>
<!-- Generator: Adobe Illustrator 27.0.0, SVG Export Plug-In . SVG Version: 6.00 Build 0)  -->
<svg version="1.1" id="Layer_1" xmlns="http://www.w3.org/2000/svg" xmlns:xlink="http://www.w3.org/1999/xlink" x="0px" y="0px"
	 viewBox="0 0 33 34" style="enable-background:new 0 0 33 34;" xml:space="preserve">
<style type="text/css">
	.st0{fill:#5252FF;}
</style>
<path class="st0" d="M4.9,15.5c1.8,0,3.3-1.5,3.3-3.3c0-1.8-1.5-3.3-3.3-3.3s-3.3,1.5-3.3,3.3C1.6,14.1,3.1,15.5,4.9,15.5z M28,15.5
	c1.8,0,3.3-1.5,3.3-3.3c0-1.8-1.5-3.3-3.3-3.3s-3.3,1.5-3.3,3.3C24.8,14.1,26.2,15.5,28,15.5z M29.7,17.2h-3.3c-0.9,0-1.7,0.4-2.3,1
	c2.1,1.1,3.6,3.2,3.9,5.6h3.4c0.9,0,1.6-0.7,1.6-1.6v-1.6C33,18.7,31.5,17.2,29.7,17.2z M16.5,17.2c3.2,0,5.8-2.6,5.8-5.8
	c0-3.2-2.6-5.8-5.8-5.8s-5.8,2.6-5.8,5.8C10.7,14.6,13.3,17.2,16.5,17.2z M20.5,18.8H20c-1.1,0.5-2.3,0.8-3.5,0.8S14,19.4,13,18.8
	h-0.4c-3.3,0-5.9,2.7-5.9,5.9v1.5c0,1.4,1.1,2.5,2.5,2.5h14.8c1.4,0,2.5-1.1,2.5-2.5v-1.5C26.4,21.5,23.7,18.8,20.5,18.8z M8.9,18.2
	c-0.6-0.6-1.4-1-2.3-1H3.3c-1.8,0-3.3,1.5-3.3,3.3v1.6c0,0.9,0.7,1.6,1.6,1.6H5C5.4,21.3,6.8,19.3,8.9,18.2z"/>
</svg>
