<svg width="488" height="303" viewBox="0 0 488 303" fill="none" xmlns="http://www.w3.org/2000/svg">
<path d="M82.3342 6.75908V82.7947C82.3385 84.586 83.0514 86.3027 84.3171 87.5693C85.5827 88.836 87.2981 89.5495 89.088 89.5538H167.815C169.605 89.5495 171.32 88.836 172.586 87.5693C173.852 86.3027 174.565 84.586 174.569 82.7947V6.75908C174.565 4.96778 173.852 3.25108 172.586 1.98443C171.32 0.71779 169.605 0.00429399 167.815 0H89.088C87.2981 0.00429399 85.5827 0.71779 84.3171 1.98443C83.0514 3.25108 82.3385 4.96778 82.3342 6.75908ZM86.3312 10.0546C86.3355 8.41856 86.9869 6.85076 88.1428 5.69389C89.2988 4.53703 90.8653 3.88521 92.5001 3.88092H164.403C166.038 3.8852 167.606 4.53685 168.762 5.69356C169.919 6.85027 170.572 8.41807 170.577 10.0546V79.4775C170.573 81.115 169.921 82.6842 168.764 83.842C167.607 84.9999 166.039 85.6523 164.403 85.6566H92.5001C90.8728 85.6466 89.315 84.9953 88.1644 83.8437C87.0137 82.6921 86.3629 81.1331 86.3529 79.5046L86.3312 10.0546Z" fill="#405AAA"/>
<path d="M130.364 12.0545C130.364 11.6761 130.251 11.3062 130.041 10.9915C129.831 10.6769 129.533 10.4316 129.183 10.2868C128.834 10.142 128.45 10.1041 128.079 10.1779C127.708 10.2518 127.367 10.434 127.1 10.7016C126.832 10.9692 126.65 11.3101 126.577 11.6813C126.503 12.0524 126.541 12.4371 126.685 12.7867C126.83 13.1364 127.075 13.4352 127.39 13.6454C127.704 13.8557 128.074 13.9679 128.452 13.9679C128.959 13.9679 129.445 13.7663 129.804 13.4075C130.162 13.0487 130.364 12.562 130.364 12.0545Z" fill="#405AAA"/>
<path d="M114.944 14.7537C114.76 14.4229 114.483 14.154 114.146 13.9811C113.81 13.8083 113.43 13.7391 113.054 13.7824C112.679 13.8256 112.324 13.9794 112.036 14.2243C111.748 14.4692 111.538 14.7941 111.434 15.158C111.331 15.5219 111.337 15.9085 111.453 16.2688C111.569 16.629 111.788 16.9469 112.085 17.1821C112.381 17.4173 112.74 17.5593 113.117 17.5902C113.494 17.621 113.872 17.5393 114.202 17.3554C114.644 17.1078 114.97 16.6952 115.109 16.2077C115.248 15.7202 115.189 15.1975 114.944 14.7537Z" fill="#405AAA"/>
<path d="M101.734 25.2744C101.416 25.0699 101.045 24.9643 100.667 24.971C100.289 24.9777 99.9212 25.0965 99.6106 25.3122C99.3 25.528 99.0603 25.831 98.9218 26.1831C98.7833 26.5352 98.7522 26.9204 98.8324 27.2902C98.9127 27.6599 99.1007 27.9976 99.3726 28.2604C99.6446 28.5233 99.9883 28.6995 100.36 28.7669C100.732 28.8342 101.116 28.7897 101.463 28.6388C101.81 28.488 102.104 28.2377 102.308 27.9195C102.446 27.7086 102.54 27.4725 102.585 27.2248C102.631 26.9772 102.627 26.723 102.573 26.477C102.52 26.2309 102.418 25.9979 102.274 25.7915C102.13 25.5851 101.947 25.4093 101.734 25.2744Z" fill="#405AAA"/>
<path d="M95.1919 41.5354C94.8138 41.5354 94.4442 41.6476 94.1298 41.8579C93.8154 42.0681 93.5703 42.3669 93.4256 42.7166C93.2809 43.0662 93.243 43.4509 93.3168 43.822C93.3905 44.1932 93.5726 44.5341 93.84 44.8017C94.1074 45.0693 94.4481 45.2515 94.8189 45.3253C95.1898 45.3992 95.5742 45.3613 95.9236 45.2165C96.2729 45.0716 96.5715 44.8264 96.7816 44.5118C96.9917 44.1971 97.1038 43.8272 97.1038 43.4488C97.1038 42.9413 96.9023 42.4546 96.5438 42.0958C96.1852 41.737 95.6989 41.5354 95.1919 41.5354Z" fill="#405AAA"/>
<path d="M98.5335 60.3763C98.2668 60.6442 98.0853 60.9851 98.012 61.3561C97.9387 61.7271 97.9769 62.1115 98.1218 62.4607C98.2667 62.81 98.5118 63.1085 98.826 63.3185C99.1403 63.5284 99.5097 63.6405 99.8875 63.6405C100.265 63.6405 100.635 63.5284 100.949 63.3185C101.263 63.1085 101.508 62.81 101.653 62.4607C101.798 62.1115 101.836 61.7271 101.763 61.3561C101.69 60.9851 101.508 60.6442 101.242 60.3763C101.064 60.1974 100.853 60.0553 100.621 59.9584C100.389 59.8614 100.139 59.8115 99.8875 59.8115C99.6358 59.8115 99.3865 59.8614 99.1541 59.9584C98.9217 60.0553 98.7108 60.1974 98.5335 60.3763Z" fill="#405AAA"/>
<path d="M110.53 72.431C110.263 72.6988 110.082 73.0397 110.008 73.4107C109.935 73.7817 109.973 74.1661 110.118 74.5154C110.263 74.8647 110.508 75.1631 110.822 75.3731C111.137 75.5831 111.506 75.6951 111.884 75.6951C112.262 75.6951 112.631 75.5831 112.945 75.3731C113.26 75.1631 113.505 74.8647 113.65 74.5154C113.795 74.1661 113.833 73.7817 113.76 73.4107C113.686 73.0397 113.505 72.6988 113.238 72.431C112.879 72.0722 112.392 71.8707 111.884 71.8707C111.376 71.8707 110.889 72.0722 110.53 72.431Z" fill="#405AAA"/>
<path d="M130.364 78.621C130.364 78.2426 130.251 77.8726 130.041 77.558C129.831 77.2433 129.533 76.9981 129.183 76.8533C128.834 76.7085 128.45 76.6706 128.079 76.7444C127.708 76.8182 127.367 77.0005 127.1 77.2681C126.832 77.5356 126.65 77.8766 126.577 78.2477C126.503 78.6189 126.541 79.0036 126.685 79.3532C126.83 79.7028 127.075 80.0017 127.39 80.2119C127.704 80.4222 128.074 80.5344 128.452 80.5344C128.959 80.5344 129.445 80.3328 129.804 79.9739C130.162 79.6151 130.364 79.1285 130.364 78.621Z" fill="#405AAA"/>
<path d="M142.019 14.7537C142.203 14.4229 142.48 14.154 142.817 13.9811C143.153 13.8083 143.533 13.7391 143.909 13.7824C144.284 13.8256 144.639 13.9794 144.927 14.2243C145.215 14.4692 145.425 14.7941 145.528 15.158C145.632 15.5219 145.626 15.9085 145.51 16.2688C145.394 16.629 145.174 16.9469 144.878 17.1821C144.582 17.4173 144.223 17.5593 143.846 17.5902C143.469 17.621 143.091 17.5393 142.761 17.3554C142.319 17.1078 141.993 16.6952 141.854 16.2077C141.715 15.7202 141.774 15.1975 142.019 14.7537Z" fill="#405AAA"/>
<path d="M155.228 25.2747C155.546 25.0693 155.917 24.9628 156.296 24.9687C156.674 24.9746 157.042 25.0925 157.353 25.3076C157.664 25.5228 157.904 25.8254 158.043 26.1772C158.183 26.5291 158.214 26.9143 158.135 27.2843C158.055 27.6543 157.868 27.9923 157.597 28.2557C157.325 28.5191 156.982 28.696 156.61 28.764C156.238 28.832 155.854 28.7881 155.507 28.6379C155.16 28.4876 154.865 28.2377 154.66 27.9198C154.385 27.4935 154.29 26.9754 154.397 26.4794C154.503 25.9833 154.803 25.55 155.228 25.2747Z" fill="#405AAA"/>
<path d="M161.771 41.5354C162.149 41.5354 162.519 41.6476 162.833 41.8579C163.148 42.0681 163.393 42.3669 163.537 42.7166C163.682 43.0662 163.72 43.4509 163.646 43.822C163.572 44.1932 163.39 44.5341 163.123 44.8017C162.855 45.0693 162.515 45.2515 162.144 45.3253C161.773 45.3992 161.389 45.3613 161.039 45.2165C160.69 45.0716 160.391 44.8264 160.181 44.5118C159.971 44.1971 159.859 43.8272 159.859 43.4488C159.859 42.9413 160.061 42.4546 160.419 42.0958C160.778 41.737 161.264 41.5354 161.771 41.5354Z" fill="#405AAA"/>
<path d="M158.429 60.3763C158.696 60.6442 158.878 60.9851 158.951 61.3561C159.024 61.7271 158.986 62.1115 158.841 62.4607C158.696 62.81 158.451 63.1085 158.137 63.3185C157.823 63.5284 157.453 63.6405 157.075 63.6405C156.697 63.6405 156.328 63.5284 156.014 63.3185C155.7 63.1085 155.455 62.81 155.31 62.4607C155.165 62.1115 155.127 61.7271 155.2 61.3561C155.273 60.9851 155.455 60.6442 155.721 60.3763C155.899 60.1974 156.109 60.0553 156.342 59.9584C156.574 59.8614 156.824 59.8115 157.075 59.8115C157.327 59.8115 157.576 59.8614 157.809 59.9584C158.041 60.0553 158.252 60.1974 158.429 60.3763Z" fill="#405AAA"/>
<path d="M146.433 72.431C146.7 72.6988 146.881 73.0398 146.954 73.4108C147.028 73.7818 146.989 74.1662 146.844 74.5154C146.7 74.8647 146.455 75.1632 146.14 75.3732C145.826 75.5831 145.457 75.6952 145.079 75.6952C144.701 75.6952 144.331 75.5831 144.017 75.3732C143.703 75.1632 143.458 74.8647 143.313 74.5154C143.168 74.1662 143.13 73.7818 143.203 73.4108C143.276 73.0398 143.458 72.6988 143.725 72.431C143.902 72.2521 144.113 72.11 144.345 72.0131C144.578 71.9161 144.827 71.8662 145.079 71.8662C145.331 71.8662 145.58 71.9161 145.812 72.0131C146.045 72.11 146.256 72.2521 146.433 72.431Z" fill="#405AAA"/>
<path d="M128.966 43.4273C128.967 43.0486 128.856 42.6782 128.647 42.3628C128.437 42.0474 128.139 41.8013 127.79 41.6557C127.44 41.51 127.056 41.4714 126.685 41.5446C126.313 41.6178 125.972 41.7996 125.704 42.067C125.436 42.3344 125.254 42.6753 125.18 43.0466C125.105 43.4179 125.143 43.8029 125.288 44.1528C125.432 44.5027 125.677 44.8019 125.992 45.0124C126.306 45.2229 126.676 45.3352 127.054 45.3352C127.56 45.3352 128.046 45.1344 128.404 44.7767C128.763 44.4191 128.965 43.9338 128.966 43.4273Z" fill="#405AAA"/>
<path d="M127.314 19.5346H126.794V43.4217H127.314V19.5346Z" fill="#405AAA"/>
<path d="M115.156 32.8681L114.19 34.0999L126.839 44.0441L127.806 42.8123L115.156 32.8681Z" fill="#405AAA"/>
<path d="M469.677 157.6C469.677 157.6 423.289 135.805 359.732 150.304L461.19 157.6H469.677Z" fill="#383838"/>
<path d="M460.99 157.6H469.487L459.083 289.361H438.421L460.99 157.6Z" fill="#383838"/>
<path d="M438.421 289.361L460.99 157.6C460.99 157.6 389.91 133.713 334.764 157.6L301.964 289.784L438.421 289.361Z" fill="#C6C6C6"/>
<path d="M318.24 81.4124C318.24 81.4124 340.554 92.8329 324.289 117.36C324.289 117.36 343.462 119.577 348.282 114.059C347.911 115.318 347.383 116.525 346.712 117.652C346.712 117.652 365.283 115.213 371.94 108.167C378.596 101.121 357.858 7.4148 308.372 26.5917C308.372 26.5917 264.388 30.6082 276.872 80.2199C289.356 129.832 272.956 132.591 272.956 132.591C272.956 132.591 277.896 134.076 280.095 133.707C280.095 133.707 283.106 131.935 283.442 130.049C283.442 130.049 283.279 132.954 282.602 133.984C282.602 133.984 300.584 132.688 308.301 124.514C316.019 116.341 322.491 91.364 318.24 81.4124Z" fill="#E21E59"/>
<path d="M286.388 105.928L288.17 106.178C292.005 106.697 295.889 105.678 298.975 103.342C302.062 101.007 304.1 97.5447 304.646 93.7109L305.94 84.361C306.466 80.5229 305.451 76.6326 303.116 73.5428C300.781 70.453 297.317 68.4158 293.483 67.8779L291.696 67.634C287.861 67.1072 283.974 68.1236 280.886 70.4606C277.799 72.7975 275.763 76.2641 275.226 80.1006L273.931 89.4452C273.405 93.2832 274.421 97.1735 276.756 100.263C279.091 103.353 282.555 105.39 286.388 105.928Z" fill="#060632"/>
<path d="M281.292 180.836C287.948 185.986 292.162 204.555 302.896 207.618C343.137 219.114 364.742 171.302 371.81 147.941C367.677 145.37 363.055 143.688 358.237 143.003C355.312 142.504 352.231 142.114 349.669 141.859C345.277 138.119 339.194 123.43 338.837 101.072L336.892 101.489L304.353 108.644C304.353 108.644 305.301 118.942 305.528 128.612C305.702 136.2 305.945 138.005 305.36 138.911C302.831 139.328 299.847 145.805 299.847 145.805C299.847 145.805 299.847 145.805 299.847 145.832C292.557 156.879 286.344 168.601 281.292 180.836Z" fill="#FDA6A4"/>
<path d="M304.326 108.649C304.326 108.649 305.285 118.948 305.507 128.623C323.78 127.729 333.101 110.834 336.871 101.522L304.326 108.649Z" fill="#FC9290"/>
<path d="M138.807 278.266C138.807 278.266 157.947 278.965 178.729 279.035C181.182 279.035 183.673 279.035 186.149 279.035C203.074 278.965 219.728 278.374 226.769 276.548C233.68 274.764 260.278 256.726 281.563 234.866C283.187 238.801 284.46 241.809 284.493 242.048C285.147 246.957 286.128 251.817 287.428 256.596C290.649 268.23 295.054 279.504 300.573 290.239H311.946L400.926 290.109C400.926 290.109 384.136 264.2 388.632 197.824C388.751 196.149 373.142 142.591 373.142 142.591C373.142 142.591 361.015 140.466 346.999 139.339C345.677 140.547 342.959 175.774 325.427 177.823C322.578 178.148 304.304 206.111 304.304 206.111L298.769 177.552L305.339 139.642C296.933 142.109 292.34 142.992 285.327 145.789C280.57 147.699 276.626 151.206 274.17 155.708C261.924 178.105 222.176 250.357 218.114 252.042C214.323 253.614 199.997 256.482 184.849 259.251C164.582 262.953 142.82 266.471 142.82 266.471L138.807 278.266Z" fill="#171A40"/>
<path d="M298.905 118.438C298.905 118.438 342.173 117.587 341.231 90.6267C340.289 63.6663 345.239 45.3999 317.568 44.8037C289.898 44.2075 284.899 54.6794 283.025 63.7747C281.151 72.8699 287.623 117.961 298.905 118.438Z" fill="#FDA6A4"/>
<path d="M178.729 278.326C181.182 278.326 183.673 278.326 186.148 278.326C203.074 278.255 219.728 277.664 226.769 275.838C233.679 274.054 260.278 256.016 281.562 234.156C281.562 234.156 277.078 216.952 275.139 214.074C273.2 211.196 265.569 239.175 247.729 250.563C229.888 261.951 201.969 269.93 188.412 266.699C179.303 264.515 178.366 272.732 178.729 278.326Z" fill="#030231"/>
<path d="M305.057 114.335C329.646 106.562 335.679 83.2716 335.733 83.0331L333.112 82.3826L334.423 82.7078L333.112 82.3826C333.058 82.6049 327.35 104.454 304.245 111.761L303.779 111.901L304.564 114.487L305.057 114.335Z" fill="#060632"/>
<path d="M302.273 116.162L304.591 115.425C305.16 115.244 305.633 114.845 305.908 114.316C306.183 113.787 306.238 113.17 306.059 112.601C305.879 112.032 305.48 111.558 304.951 111.283C304.423 111.007 303.806 110.953 303.237 111.132L300.919 111.863C300.351 112.044 299.878 112.443 299.602 112.972C299.327 113.501 299.273 114.118 299.452 114.687C299.632 115.256 300.03 115.73 300.559 116.007C301.087 116.283 301.704 116.339 302.273 116.162Z" fill="#0B0754"/>
<path d="M296.446 41.2263C296.446 41.2263 307.522 74.0678 324.143 79.6398C340.765 85.2118 346.273 78.6154 346.273 78.6154C346.273 78.6154 334.027 67.3575 332.619 49.1237C332.619 49.1237 305.772 27.8003 296.446 41.2263Z" fill="#E21E59"/>
<path d="M317.135 50.8908C317.135 50.8908 294.572 49.6279 287.829 56.0564C282.954 60.6907 283.084 63.1027 282.705 69.2927C282.705 69.2927 272.837 54.0617 282.992 43.4C293.754 32.0987 317.135 50.8908 317.135 50.8908Z" fill="#E21E59"/>
<path d="M297.404 44.7009C297.404 44.7009 303.053 76.1385 323.71 87.521C323.71 87.521 303.703 67.0324 303.351 46.5275C302.999 26.0226 297.404 44.7009 297.404 44.7009Z" fill="#E21E59"/>
<path d="M371.94 108.167C365.289 115.213 346.712 117.652 346.712 117.652C347.386 116.526 347.913 115.318 348.282 114.059C338.739 121.804 315.293 116.178 315.293 116.178C333.995 112.042 327.94 85.0384 321.581 83.8893C317.871 63.5199 310.522 38.1585 307.077 26.7705C307.906 26.635 308.377 26.5916 308.377 26.5916C357.842 7.41468 378.591 101.126 371.94 108.167Z" fill="#E21E59"/>
<path d="M331.319 103.159L333.107 103.408C336.94 103.926 340.823 102.906 343.908 100.571C346.994 98.2353 349.031 94.7739 349.577 90.9412L350.871 81.5912C351.398 77.7532 350.382 73.8629 348.047 70.7731C345.712 67.6833 342.248 65.6461 338.414 65.1082L336.627 64.8589C332.793 64.3394 328.91 65.3587 325.824 67.6943C322.739 70.0299 320.701 73.4922 320.157 77.3255L318.863 86.67C318.335 90.5089 319.35 94.4006 321.685 97.4917C324.02 100.583 327.485 102.621 331.319 103.159Z" fill="#060632"/>
<path d="M343.007 69.065C344.09 67.0758 340.343 51.5955 334.883 39.5896C332.235 33.7845 325.557 26.0389 320.802 24.0171C319.079 23.2908 316.794 23.5889 314.925 24.0171C313.571 24.3207 309.769 26.0985 309.769 26.0985C325.438 30.9768 339.059 63.8507 338.068 67.2547C338.093 67.1708 338.13 67.0906 338.176 67.0162L343.007 69.065Z" fill="#060632"/>
<path d="M334.91 93.8627L335.804 93.9873C337.714 94.247 339.649 93.7394 341.187 92.5755C342.724 91.4116 343.739 89.686 344.009 87.7757L344.654 83.1197C344.915 81.2077 344.408 79.2701 343.245 77.7311C342.082 76.1921 340.356 75.177 338.447 74.908L337.559 74.7833C335.648 74.5236 333.712 75.031 332.174 76.1948C330.635 77.3586 329.619 79.0842 329.348 80.9949L328.704 85.651C328.444 87.5627 328.951 89.4995 330.114 91.0382C331.277 92.5769 333.002 93.5923 334.91 93.8627Z" fill="#0B0754"/>
<path d="M229.91 261.94C229.91 261.94 211.355 260.856 209.551 261.842C206.627 263.425 196.656 269.848 195.096 271.712C193.536 273.577 189.442 281.073 189.442 281.073C189.442 281.073 191.213 281.561 192.014 280.846C192.816 280.13 198.865 273.685 198.865 273.685L192.648 283.144C192.648 283.144 194.814 283.046 195.648 282.109C196.482 281.171 202.315 275.257 202.315 275.257L204.292 274.862C203.154 275.782 202.113 276.815 201.183 277.946C200.484 278.901 199.875 279.919 199.364 280.987C200.154 280.871 200.933 280.689 201.693 280.445C202.234 280.179 207.455 275.615 207.455 275.615L204.693 279.409C204.693 279.409 206.556 279.317 207.163 278.905C207.769 278.493 211.837 274.748 212.579 274.753C213.321 274.759 218.482 274.547 220.703 273.366C222.923 272.184 229.91 269.479 229.91 269.479V261.94Z" fill="#FDA6A4"/>
<path d="M344.491 133.431C344.491 133.431 356.899 137.051 359.727 139.908C359.727 139.908 346.728 173.096 328.048 188.587L323.049 185.037V193.108L304.326 205.369C304.326 205.369 345.45 143.474 344.491 133.431Z" fill="#030231"/>
<path d="M287.45 255.869C290.67 267.506 295.075 278.781 300.594 289.518H294.241H300.611H359.726C359.726 289.518 352.87 289.518 352.881 289.475C353.043 288.873 342.883 261.29 359.726 250.021C376.57 238.752 382.717 210.881 382.717 210.881L329.028 197.753C329.028 197.753 306.909 230.058 300.611 236.237C295.78 240.969 284.514 241.321 284.514 241.321L287.45 255.869Z" fill="#030231"/>
<path d="M305.339 138.911C305.339 138.911 299.63 184.067 304.326 205.369C304.326 205.369 296.662 191.276 295.585 188.696L296.879 180.95L291.934 182.668C291.934 182.668 296.294 146.667 300.242 140.358C304.191 134.049 305.659 133.431 305.659 133.431L305.339 138.911Z" fill="#030231"/>
<path d="M139.13 278.798C139.13 278.798 164.83 279.725 189.944 279.606C196.176 270.156 188.549 258.831 188.549 258.831C166.795 262.714 143.438 266.404 143.438 266.404L139.13 278.798Z" fill="#FDA6A4"/>
<path d="M136.538 289.545H225.003C225.003 287.677 224.261 285.884 222.941 284.563C221.62 283.241 219.829 282.499 217.962 282.499H136.538V289.545Z" fill="#163260"/>
<path d="M0 193.103L32.8102 289.546H170.491L136.792 193.103H0Z" fill="#163260"/>
<path d="M0 193.103L32.5069 288.651L32.8102 289.546H168.481L134.778 193.103H0Z" fill="#163260"/>
<path d="M71.7296 240.459C72.58 244.145 76.252 247.132 79.9349 247.132C83.6178 247.132 85.8925 244.145 85.0639 240.459C84.2352 236.774 80.5361 233.793 76.8586 233.793C73.1811 233.793 70.8847 236.752 71.7296 240.459Z" fill="#163260"/>
<path d="M0 193.103L32.5069 288.651H94.8399L18.8369 193.103H0Z" fill="#163260"/>
<path d="M229.878 269.436C229.878 269.436 275.426 273.42 300.594 272.298V247.544C284.103 252.102 229.894 261.94 229.894 261.94L229.878 269.436Z" fill="#FDA6A4"/>
<path d="M359.727 139.908C359.727 139.908 385.778 140.499 393.847 149.215C401.917 157.93 385.859 207.179 385.859 207.179C385.859 207.179 337.31 266.688 313.019 270.884C313.019 270.884 302.403 272.336 297.448 272.417C297.448 272.417 302.322 258.26 293.272 249.376C293.272 249.376 303.671 246.465 304.104 245.175C304.537 243.885 359.727 139.908 359.727 139.908Z" fill="#171A40"/>
<path d="M0.127686 295.854C0.127686 299.802 1.88638 303 4.05658 303H483.357C484.442 303 485.425 302.199 486.136 300.906C486.897 299.465 487.303 297.683 487.286 295.854C487.286 291.908 485.528 288.71 483.357 288.71H4.06052C2.9761 288.71 1.99255 289.511 1.28244 290.804C0.519348 292.243 0.111908 294.025 0.127686 295.854Z" fill="#4D58AA"/>
</svg>
