<?xml version="1.0" encoding="utf-8"?>
<!-- Generator: Adobe Illustrator 26.3.1, SVG Export Plug-In . SVG Version: 6.00 Build 0)  -->
<svg version="1.1" id="Layer_1" xmlns="http://www.w3.org/2000/svg" xmlns:xlink="http://www.w3.org/1999/xlink" x="0px" y="0px"
	 viewBox="0 0 215 124" style="enable-background:new 0 0 215 124;" xml:space="preserve">
<style type="text/css">
	.st0{clip-path:url(#SVGID_00000165233572882557231690000009570538804165092543_);}
	.st1{fill:#E4EDFF;}
	.st2{fill:#4F69B2;}
	.st3{fill:#C5E6FF;}
	.st4{fill:#1D3F70;}
	.st5{fill:#FFDE00;}
	.st6{fill:#163260;}
	.st7{fill:#234270;}
	.st8{fill:#0B274F;}
	.st9{fill:#171A40;}
	.st10{fill:#F99370;}
	.st11{fill:#E57D61;}
	.st12{fill:#030231;}
	.st13{fill:#C16256;}
	.st14{fill:#4D58AA;}
	.st15{fill:#8A9EDD;}
	.st16{fill:#3A72AA;}
	.st17{fill:#7689D6;}
	.st18{fill:#ED3159;}
	.st19{fill:#CE3932;}
	.st20{fill:#405AAA;}
	.st21{fill:#677CC1;}
	.st22{fill:#FFFFFF;}
</style>
<g>
	<defs>
		<rect id="SVGID_1_" x="11.4" y="37.7" width="192.3" height="79.5"/>
	</defs>
	<clipPath id="SVGID_00000109717033039891018300000013536501727312212132_">
		<use xlink:href="#SVGID_1_"  style="overflow:visible;"/>
	</clipPath>
	<g style="clip-path:url(#SVGID_00000109717033039891018300000013536501727312212132_);">
		<path class="st1" d="M194.9,112.7c0.4-0.8,0.7-1.6,1-2.4l-1-0.1c-0.3,0.8-0.7,1.6-1,2.4L194.9,112.7z M16.3,112.8l1-0.1
			c-0.1-0.8-0.3-1.6-0.4-2.4l-1,0.1C16,111.2,16.2,112,16.3,112.8z M196.8,107.9c0.3-0.8,0.6-1.6,0.8-2.4l-1-0.1
			c-0.3,0.8-0.5,1.6-0.8,2.4L196.8,107.9z M15.6,107.9l1,0c-0.1-0.8-0.2-1.6-0.2-2.4l-1,0C15.4,106.3,15.5,107.1,15.6,107.9z
			 M198.3,103.1c0.2-0.8,0.4-1.6,0.6-2.4l-1-0.1c-0.2,0.8-0.4,1.6-0.6,2.4L198.3,103.1z M15.2,103l1,0c0-0.8-0.1-1.6-0.1-2.4l-1,0
			C15.1,101.4,15.2,102.2,15.2,103z M199.4,98.3c0.1-0.8,0.3-1.6,0.4-2.4l-1,0c-0.1,0.8-0.2,1.6-0.4,2.4L199.4,98.3z M16.1,98.2
			c0-0.8,0-1.6,0.1-2.4l-1,0c0,0.8-0.1,1.6-0.1,2.4L16.1,98.2z M200.1,93.4c0.1-0.8,0.1-1.6,0.1-2.5l-1,0c0,0.8-0.1,1.6-0.1,2.4
			L200.1,93.4z M16.3,93.3c0.1-0.8,0.1-1.6,0.2-2.4l-1,0c-0.1,0.8-0.2,1.6-0.2,2.4L16.3,93.3z M199.1,88.5l1,0
			c0-0.8-0.1-1.6-0.2-2.4l-1,0C199,86.9,199.1,87.7,199.1,88.5z M16.9,88.4c0.1-0.8,0.3-1.6,0.4-2.4l-1-0.1
			c-0.2,0.8-0.3,1.6-0.4,2.4L16.9,88.4z M198.6,83.6l1-0.1c-0.1-0.8-0.3-1.6-0.5-2.4l-1,0.1C198.3,82,198.5,82.8,198.6,83.6z
			 M17.9,83.6c0.2-0.8,0.4-1.6,0.7-2.4l-1-0.1c-0.2,0.8-0.5,1.6-0.7,2.4L17.9,83.6z M138.8,82.7c1.4-0.1,2.4-0.5,3.9-1.2L142,81
			c-1.2,0.6-2.1,0.9-3.3,1.1L138.8,82.7z M135.2,81.3l0.9-0.3c-0.5-0.5-0.9-1.3-1.2-2.2l-1,0.1C134.3,79.9,134.7,80.7,135.2,81.3z
			 M145.6,79.7c0.8-0.5,1.7-1.2,2.6-1.9l-0.8-0.4c-1,0.7-1.8,1.3-2.6,1.9L145.6,79.7z M197.4,78.8l1-0.1c-0.3-0.8-0.6-1.6-0.9-2.4
			l-1,0.2C196.8,77.3,197.1,78.1,197.4,78.8z M19.4,78.8c0.3-0.8,0.6-1.6,1-2.4l-1-0.1c-0.3,0.8-0.7,1.6-1,2.4L19.4,78.8z
			 M133.2,76.4l1-0.1c-0.2-0.7-0.3-1.5-0.4-2.4l-1,0.1C132.9,74.9,133,75.7,133.2,76.4z M150.8,75.8c0.8-0.7,1.7-1.4,2.4-2l-0.8-0.3
			c-0.7,0.6-1.6,1.3-2.4,2L150.8,75.8z M75.9,76.3c0.8,0,1.6-0.2,2.3-0.4l-0.5-0.5c-1.1,0.4-2.2,0.4-3.4,0.1L73.9,76
			C74.5,76.2,75.2,76.3,75.9,76.3L75.9,76.3z M195.4,74.2l1-0.2c-0.4-0.8-0.9-1.6-1.3-2.3l-1,0.2C194.5,72.6,195,73.4,195.4,74.2z
			 M70.5,74.4l0.7-0.4c-0.9-0.6-1.7-1.2-2.6-1.9l-0.8,0.4C68.7,73.2,69.6,73.9,70.5,74.4L70.5,74.4z M81.1,74c0.7-0.7,1.4-1.4,2-2.2
			l-0.9-0.3c-0.6,0.8-1.2,1.5-1.9,2.1L81.1,74z M21.4,74.1c0.4-0.8,0.8-1.6,1.3-2.3l-1-0.2c-0.5,0.8-0.9,1.5-1.3,2.3L21.4,74.1z
			 M155.6,71.8c0.9-0.8,1.7-1.4,2.4-2l-0.8-0.4c-0.7,0.6-1.5,1.2-2.4,2L155.6,71.8z M132.4,71.5l1,0c-0.1-0.7-0.2-1.5-0.3-2.4l-1,0
			C132.3,70,132.3,70.8,132.4,71.5z M192.5,69.6l0.9-0.3c-0.6-0.7-1.2-1.5-1.8-2.2l-0.9,0.3C191.4,68.2,192,68.9,192.5,69.6z
			 M65.5,70.5l0.9-0.3c-0.7-0.7-1.5-1.3-2.3-2l-0.9,0.3C64,69.2,64.8,69.9,65.5,70.5L65.5,70.5z M84.8,69.5c0.5-0.7,0.9-1.4,1.4-2.3
			l-1-0.2c-0.5,0.9-1,1.6-1.4,2.3L84.8,69.5z M24.2,69.5c0.5-0.8,1.1-1.5,1.7-2.2L25,67.1c-0.6,0.7-1.2,1.5-1.7,2.2L24.2,69.5z
			 M160.6,67.9c0.9-0.7,1.8-1.3,2.6-1.9l-0.8-0.4c-0.9,0.6-1.7,1.2-2.7,1.9L160.6,67.9z M131.9,66.7l1,0c-0.1-0.8-0.1-1.6-0.2-2.4
			l-1,0C131.8,65,131.9,65.8,131.9,66.7z M61,66.4l0.9-0.3c-0.9-0.8-1.6-1.4-2.3-2l-0.8,0.4C59.4,65,60.2,65.7,61,66.4z M188.7,65.4
			l0.9-0.3c-0.8-0.7-1.6-1.4-2.5-2l-0.8,0.4C187.2,64.1,188,64.7,188.7,65.4z M87.6,64.9c0.5-0.8,0.9-1.6,1.3-2.3l-1-0.2
			c-0.4,0.7-0.8,1.5-1.3,2.3L87.6,64.9z M166,64.3c1-0.6,2.1-1.1,3-1.6l-0.6-0.5c-1,0.5-2.1,1-3.1,1.7L166,64.3z M27.9,65.2
			c0.7-0.7,1.5-1.4,2.3-2l-0.8-0.4c-0.8,0.6-1.6,1.3-2.3,2.1L27.9,65.2z M183.4,61.8l0.6-0.5c-1.2-0.5-2.5-0.9-3.8-1.2l-0.3,0.6
			C181.2,61,182.3,61.3,183.4,61.8z M56.2,62.5l0.8-0.4c-1-0.7-1.9-1.3-2.8-1.8l-0.7,0.4C54.4,61.3,55.3,61.9,56.2,62.5z
			 M131.5,61.8l1,0c-0.1-0.9-0.2-1.7-0.3-2.4l-1,0.1C131.3,60.1,131.4,60.9,131.5,61.8z M172.4,61.4c1.2-0.4,2.5-0.6,3.7-0.7L176,60
			c-1.4,0.1-2.7,0.4-4,0.8L172.4,61.4z M32.8,61.3c1-0.6,2-1.1,3-1.6l-0.6-0.5c-1.1,0.5-2.1,1-3.1,1.7L32.8,61.3z M90.2,60.2
			c0.5-0.9,0.9-1.6,1.3-2.3l-1-0.2c-0.4,0.7-0.8,1.4-1.3,2.3L90.2,60.2z M50.4,59.2l0.6-0.5c-1.2-0.5-2.5-0.9-3.8-1.1l-0.3,0.6
			C48.1,58.4,49.3,58.8,50.4,59.2L50.4,59.2z M39.3,58.6c1.2-0.3,2.5-0.5,3.8-0.6L43,57.3c-1.4,0.1-2.8,0.3-4.1,0.7L39.3,58.6z
			 M130.8,56.9l1-0.1c-0.1-0.8-0.3-1.7-0.4-2.4l-1,0.1C130.6,55.2,130.7,56.1,130.8,56.9L130.8,56.9z M92.8,55.6
			c0.5-0.8,0.9-1.6,1.4-2.3l-1-0.2c-0.5,0.7-0.9,1.5-1.4,2.3L92.8,55.6z M129.9,52.1l1-0.1c-0.2-0.8-0.4-1.7-0.7-2.4l-1,0.1
			C129.4,50.4,129.7,51.2,129.9,52.1z M95.7,51c0.5-0.8,1.1-1.5,1.6-2.2l-0.9-0.2c-0.5,0.7-1.1,1.5-1.6,2.3L95.7,51z M128.3,47.3
			l1-0.2c-0.3-0.8-0.7-1.6-1.2-2.4l-1,0.2C127.6,45.7,128,46.5,128.3,47.3L128.3,47.3z M99.1,46.6c0.7-0.8,1.3-1.5,2-2.1l-0.9-0.3
			c-0.7,0.7-1.4,1.4-2.1,2.1L99.1,46.6z M125.6,42.8l0.9-0.3c-0.7-0.8-1.4-1.5-2.2-2.1l-0.8,0.4C124.2,41.4,125,42,125.6,42.8
			L125.6,42.8z M103.5,42.5c0.9-0.7,1.8-1.2,2.7-1.8l-0.7-0.4c-1,0.5-1.9,1.2-2.8,1.8L103.5,42.5z M120.6,39.2l0.5-0.5
			c-1.2-0.5-2.6-0.7-4-0.9l-0.2,0.6C118.3,38.5,119.5,38.8,120.6,39.2L120.6,39.2z M109.4,39.3c1.2-0.4,2.4-0.7,3.7-0.8l-0.2-0.6
			c-1.4,0.2-2.7,0.4-4,0.9L109.4,39.3z"/>
		<path class="st2" d="M151.3,97.2V115c0,0.6,0.1,1.2,0.3,1.7h16c0.2-0.5,0.3-1.1,0.3-1.7V97.2c0-2.3-1.6-4.1-3.7-4.1H155
			C152.9,93.1,151.3,95,151.3,97.2z"/>
		<path class="st3" d="M135.8,114.7c0.4,0,0.9-0.1,1.2-0.3c0.4-0.2,0.7-0.5,0.9-0.9l12.3-21.3c0.3-0.6,0.4-1.2,0.2-1.9
			c-0.2-0.6-0.6-1.2-1.1-1.5c-0.6-0.3-1.2-0.4-1.9-0.2c-0.6,0.2-1.2,0.6-1.5,1.1L133.7,111c-0.2,0.4-0.3,0.8-0.3,1.2
			c0,0.4,0.1,0.9,0.3,1.2c0.2,0.4,0.5,0.7,0.9,0.9C135,114.5,135.4,114.7,135.8,114.7L135.8,114.7z"/>
		<path class="st4" d="M144.3,90.9c0,5,7.6,5,7.6,0C151.9,86,144.4,86,144.3,90.9z"/>
		<path class="st3" d="M159.2,60.4h0.9v5.5h-0.9V60.4z"/>
		<path class="st2" d="M162,66.4c0-0.5,0.2-1.7-0.7-1.7h-3.4c-0.2,0-0.3,0.1-0.5,0.2c-0.1,0.1-0.2,0.3-0.2,0.5
			c0,0.5-0.2,1.7,0.7,1.7h3.4c0.2,0,0.3-0.1,0.5-0.2C161.9,66.7,162,66.6,162,66.4z"/>
		<path class="st2" d="M171.1,79.9c0.7,0,2.2,0.2,2.2-0.9v-4.8c0-1.1-1.5-0.9-2.2-0.9c-0.2,0-0.5,0.1-0.6,0.3
			c-0.2,0.2-0.3,0.4-0.3,0.6v4.8c0,0.2,0.1,0.5,0.3,0.6C170.6,79.8,170.8,79.9,171.1,79.9z"/>
		<path class="st2" d="M146.9,79.9c0.7,0,2.2,0.2,2.2-0.9v-4.8c0-1.1-1.5-0.9-2.2-0.9c-0.2,0-0.5,0.1-0.6,0.3
			c-0.2,0.2-0.3,0.4-0.3,0.6v4.8c0,0.2,0.1,0.5,0.3,0.6C146.4,79.8,146.7,79.9,146.9,79.9z"/>
		<path class="st3" d="M163.2,68.5c0-0.8,0.3-2.6-1-2.6H157c-1.3,0-1,1.8-1,2.6c0,0.3,0.1,0.5,0.3,0.7c0.2,0.2,0.4,0.3,0.7,0.3h5.2
			c0.3,0,0.5-0.1,0.7-0.3C163.1,69,163.2,68.7,163.2,68.5z"/>
		<path class="st2" d="M160.4,82.1c-0.8,0-2.6-0.3-2.6,1v5.1c0,1.3,1.8,1,2.6,1c0.3,0,0.5-0.1,0.7-0.3c0.2-0.2,0.3-0.4,0.3-0.7v-5.1
			c0-0.3-0.1-0.5-0.3-0.7C161,82.2,160.7,82.1,160.4,82.1z"/>
		<path class="st3" d="M152.7,85.7h13.9c2.8,0,5.2-2.3,5.2-5.1c-0.2-4.4,1.6-12.7-5.2-12.9h-13.9c-2.8,0-5.2,2.3-5.2,5.1
			C147.8,77.2,145.9,85.5,152.7,85.7z"/>
		<path class="st4" d="M154,82.7h11.2c0.9,0,1.8-0.4,2.4-1c0.6-0.6,1-1.5,1-2.4c-0.2-2.9,1.1-8.5-3.4-8.6H154c-0.9,0-1.8,0.4-2.4,1
			c-0.6,0.6-1,1.5-1,2.4C150.7,77,149.5,82.6,154,82.7z"/>
		<path class="st2" d="M157.9,60.4c0,2.2,3.4,2.2,3.4,0C161.3,58.1,157.9,58.1,157.9,60.4z"/>
		<path class="st5" d="M161.9,76.7c0,1.8,2.8,1.8,2.8,0C164.7,74.9,161.9,74.9,161.9,76.7z"/>
		<path class="st5" d="M154.5,76.7c0,1.8,2.8,1.8,2.8,0C157.3,74.9,154.5,74.9,154.5,76.7z"/>
		<path class="st4" d="M151.3,96.5v10.8H168V96.5c0-1.9-1.6-3.4-3.7-3.4H155C152.9,93.1,151.3,94.7,151.3,96.5z"/>
		<path class="st3" d="M173.3,92.1v8.7c0,2.2-1.8,4-4,4H150c-2.2,0-4-1.8-4-4v-8.7c0-2.2,1.8-4,4-4h19.3
			C171.5,88.2,173.3,89.9,173.3,92.1z"/>
		<path class="st4" d="M168.7,89.8c0,5,7.6,5,7.6,0C176.3,84.9,168.7,84.9,168.7,89.8z"/>
		<path class="st3" d="M184.9,113.6c1.8,0,3.1-2.1,2.1-3.7l-12.3-21.3c-1.7-2.8-5.9-0.4-4.3,2.5l12.3,21.3c0.2,0.4,0.5,0.7,0.9,0.9
			C184,113.4,184.4,113.6,184.9,113.6z"/>
		<path class="st4" d="M181.1,111.1c0,5,7.6,5,7.6,0C188.7,106.1,181.1,106.1,181.1,111.1z"/>
		<path class="st3" d="M162.3,108.6l3.8,0l-0.8-0.9c-1.1-1.2,0.8-2.9,1.8-1.7l2.3,2.5l15.3,0c0.3,0,0.7,0.1,1,0.2
			c0.3,0.1,0.6,0.3,0.8,0.5c0.2,0.2,0.4,0.5,0.5,0.8c0.1,0.3,0.2,0.6,0.2,1s-0.1,0.6-0.2,1c-0.1,0.3-0.3,0.6-0.5,0.8
			c-0.2,0.2-0.5,0.4-0.8,0.5c-0.3,0.1-0.6,0.2-1,0.2l-22.5,0C159,113.5,159.1,108.6,162.3,108.6z"/>
		<path class="st6" d="M117.6,112.2h27.8l-5.5-20.3h-27.6L117.6,112.2z"/>
		<path class="st7" d="M117.6,112.1h27.8v1.4h-27.8V112.1z"/>
		<path class="st8" d="M139.4,91.9h1l5.4,20.2H159v1.4h-14.1v-1.2L139.4,91.9z"/>
		<path class="st9" d="M50.4,80.8c0,0,5.1,0,10.1,5c4.2,4.2,8,11,8,11L55,99C55,99,49.8,83.9,50.4,80.8z"/>
		<path class="st9" d="M27.9,113.4c0.1,1.1,0.2,2.2,0.3,3.3h33.6c0.1-0.9,0.1-2.1,0.1-3.3c-0.2-5.9-1.8-14.7-3.6-19
			c-2.3-5.9-6.5-10.7-9.7-13.6c0,0-5.1-0.3-5.1-0.3C34.9,85.4,26.9,98.2,27.9,113.4z"/>
		<path class="st9" d="M58.7,95.7c0,0-0.1,0-0.1,0c0,0-0.1-0.1-0.1-0.1c-0.5-2.4-2.3-4.5-2-4.8c0.4-0.1,1.6,2.4,2.3,4.7
			c0,0,0,0.1,0,0.1c0,0,0,0.1,0,0.1C58.9,95.6,58.8,95.7,58.7,95.7C58.8,95.7,58.8,95.7,58.7,95.7z"/>
		<path class="st10" d="M38.9,93.4c-3.5,2.8-11.3,8.7-8.6,13.4c3.4,1.9,9.4,1.8,13.9,2.5c1.3,0.1,1.5,2.1,0.2,2.4
			c-4.3,1.3-8.7,2-13.2,1.8c-2-0.1-4.3-0.6-5.8-2.1c-2.1-2.1-3.3-5.2-3.1-8.1c0.6-7.1,6.1-12.5,11.5-16.5
			C38.4,83.2,43.5,90,38.9,93.4z"/>
		<path class="st9" d="M40,92.7c-8.6,10.5-9.6,12.1,2.7,16.4c-1.3,1.6-0.4,3.1-0.4,3.1C7.8,122.3,19,79.9,43.5,80.5
			C43.3,83.1,42.1,89.9,40,92.7z"/>
		<path class="st10" d="M51.5,112c0,0-1.4-4.4-7.5-2.8l-1.2,2.8L51.5,112z"/>
		<path class="st11" d="M51.2,111.9c-0.2,0-1.6-1.5-3.8-1.8c0,0-0.1,0-0.1-0.1c0,0,0-0.1,0-0.1C48.3,109.3,52.3,111.9,51.2,111.9z"
			/>
		<path class="st11" d="M49.6,112c-1.6-0.6-1.8-0.7-3-0.9c0-0.1,0-0.2,0.1-0.3c1.3,0.3,1.3,0.3,2.9,0.9
			C49.8,111.7,49.8,112,49.6,112z"/>
		<path class="st12" d="M40.9,112.6c0.5-0.1,1-0.3,1.4-0.4c0,0-0.9-1.5,0.4-3.1c0,0-0.7-0.2-1.6-0.5
			C41.1,108.5,39.5,110.6,40.9,112.6z"/>
		<path class="st12" d="M41.2,108.9c0.3,0-8.1-2.7-8-6.2c0-4.1,6.8-10.1,7-10.4c0.2-0.1,0.4,0.1,0.2,0.3c0,0.1-9.8,8.5-6,12.1
			C37.2,107.4,42.2,108.5,41.2,108.9z"/>
		<path class="st12" d="M38.2,113.4c-0.2,0-0.2-0.3,0-0.4c1-0.2,1.9-0.5,2.9-0.8C42,112.5,39.7,113,38.2,113.4z"/>
		<path class="st12" d="M50.6,84.1c-1.4,3.5-8.5,1.4-9.6-3.5c1.6-0.2,2.6-0.2,2.6-0.2s5.1,0.3,5.1,0.4c0.6,0,1.2,0,1.8,0
			C51.1,81.7,50.8,83.4,50.6,84.1z"/>
		<path class="st10" d="M48.6,80.8c0.6-2.7,0.6-6.7,0.4-8.4c-0.3-3.3-5.6-2.6-5.1,0.7c0.2-0.1,0.1,5.8-0.5,7.3
			C42.8,82.8,50.6,85.9,48.6,80.8z"/>
		<path class="st11" d="M43.9,72.8c0,0.1,0,0.2,0,0.3c0.1-0.1,0.1,3.2-0.1,5.5c2.1,1.2,4.6,1,5,1c0.4-2.9,0.4-5.6,0.1-7.4
			C48.3,69.3,43.8,69.8,43.9,72.8z"/>
		<path class="st4" d="M52.4,68.9c0,0,0-2.6-0.9-4.5l-1.5,0.7L52.4,68.9z"/>
		<path class="st10" d="M52.5,76.6c-1.8,1.8-4.6,2.3-6.8,1.9c-0.7-0.1-1.3-0.4-1.9-0.8c-0.2-0.1-0.4-0.3-0.6-0.4h0
			c-8.5-8.5,3.1-22.4,8.3-10.3C53.2,70.5,56.3,72.3,52.5,76.6z"/>
		<path class="st11" d="M51.1,66.2c-1.8-1-5.2-0.1-6.8-0.1c0,0,0.3,2.8-2.5,4.8c-0.2,2.6-0.7,3.7,2,6.8c-0.2-0.1-0.4-0.3-0.6-0.4h0
			C35,69.2,45.7,55.4,51.1,66.2z"/>
		<path class="st4" d="M52.5,60.7c-1.1-2.1-4.2-3.2-6.9-0.7c-2.1,2-4.3,2-4.3,4c-4.2,1.9-2.1,6.5-2.1,6.5l2.1-0.2
			c2.4-1.9,2.3-4.8,2.3-4.8c0.5,0,1.1,0,1.6-0.1c1.5-0.4,3.8-0.6,5.6,0.1C52.5,66.1,53.6,63,52.5,60.7z"/>
		<path class="st10" d="M38.8,72.2c0.2,1.1,1.1,1.8,2,1.6c0.9-0.2,1.4-1.2,1.2-2.3c-0.2-1.1-1.1-1.8-2-1.6
			C39.1,70.1,38.6,71.1,38.8,72.2z"/>
		<path class="st13" d="M40.9,70.8c0,0-0.8-0.3-1.3,0.1c-0.1,0.1-0.2,0.3-0.2,0.4c0,0,0,0,0,0c-0.1,0.3,0,0.8,0.1,1.3
			c0,0,0,0.1,0.1,0.1c0,0,0.1,0,0.1,0l0,0c0,0,0,0,0,0c0,0,0,0,0,0c0,0,0,0,0,0c0,0,0,0,0,0c-0.1-0.4-0.2-0.8-0.2-1.1
			c0.7,0.1,1.1,1,1.1,1c0,0,0,0.1,0.1,0.1c0,0,0.1,0,0.1,0c0,0,0.1,0,0.1-0.1c0,0,0-0.1,0-0.1c0,0-0.4-1-1.3-1.1
			c0-0.1,0.1-0.1,0.1-0.2c0.3-0.3,1,0,1,0c0,0,0.1,0,0.1,0c0,0,0.1,0,0.1-0.1C41,70.9,41,70.9,40.9,70.8
			C41,70.8,40.9,70.8,40.9,70.8L40.9,70.8z"/>
		<path class="st6" d="M82.5,112.1H54.6l5.6-20.4h27.7L82.5,112.1z"/>
		<path class="st7" d="M54.6,112h27.9v1.4H54.6V112z"/>
		<path class="st8" d="M60.6,91.7h-1L54.1,112H40.9v1.4h14.2v-1.2L60.6,91.7z"/>
		<path class="st14" d="M11.4,115.3c0,1.1,0.7,1.9,1.6,1.9h189.2c0.4,0,0.8-0.2,1.1-0.6c0.3-0.4,0.5-0.9,0.5-1.3
			c0-1.1-0.7-1.9-1.6-1.9H12.9c-0.4,0-0.8,0.2-1.1,0.6C11.5,114.3,11.4,114.8,11.4,115.3z"/>
		<path class="st15" d="M97.7,103.6h2.5C107.3,77.7,90.3,83,97.7,103.6z"/>
		<path class="st16" d="M97.7,103.6c0,0,1.9,0.4,1.8,0c-1.9-11.3-0.1-17.5-0.1-17.5C92.5,85.6,97.7,103.6,97.7,103.6z"/>
		<path class="st17" d="M90.7,92.3c0.4,4.2,3,7.9,5.1,11.3h2.9c-0.3-3.9-0.9-8.2-3.1-11.6C94.6,89.5,90.7,88.9,90.7,92.3z"/>
		<path class="st15" d="M90.7,92.3c0,0.2,0,0.5,0,0.5c2-0.3,3.2-1.3,3.9-2.1c-0.1-0.1-0.2-0.2-0.4-0.3C93.7,91.1,92.5,92,90.7,92.3z
			"/>
		<path class="st15" d="M91.1,94.7c0,0.1,0.1,0.3,0.2,0.5c2.9-0.4,4.2-2,4.6-2.7c-0.1-0.2-0.2-0.3-0.3-0.5
			C95.3,92.5,94,94.4,91.1,94.7z"/>
		<path class="st15" d="M91.9,96.7c0.1,0.1,0.1,0.3,0.2,0.5c2.8-0.1,4.3-1.5,4.9-2.3c-0.1-0.2-0.1-0.4-0.2-0.5
			C96.3,95.1,94.6,96.6,91.9,96.7z"/>
		<path class="st15" d="M93.2,99.2l0.2,0.4c2.3-0.2,3.7-1.1,4.5-2c0-0.2-0.1-0.3-0.2-0.5C96.9,98,95.6,99.1,93.2,99.2z"/>
		<path class="st15" d="M94.6,101.7c0.1,0.1,0.2,0.3,0.3,0.4c1.7-0.3,2.8-1,3.5-1.7c0-0.2-0.1-0.4-0.1-0.6
			C97.7,100.5,96.4,101.5,94.6,101.7z"/>
		<path class="st17" d="M102.7,103.6h2.8C114.5,91.7,103.4,89.4,102.7,103.6z"/>
		<path class="st15" d="M102.7,103.6h1.7c3.1-4.3,3.8-7.9,3.8-9.6C104.2,91.8,102.7,103.6,102.7,103.6z"/>
		<path class="st16" d="M99.7,103.6h3.5c-0.1,0.1,1.1-2.1,1.6-3.1c1-2.3,2.2-5.3,1.7-7.8c-0.3-1.9-3.1-2.7-4.4-1.4
			C99.5,93.6,99.6,101.2,99.7,103.6z"/>
		<path class="st17" d="M99.7,99.4c0-0.2,0-0.5,0.1-0.7l1.9,2.7l0.8-3l-2.2-3.2c0.1-0.2,0.1-0.4,0.2-0.7l2.2,3.3l0.9-3.6l-1.7-2.4
			c0.1-0.1,0.2-0.2,0.3-0.3l1.6,2.1l0.7-2.8c0.2,0,0.3,0.1,0.5,0.1l-0.7,2.8l2.3-0.9c0,0.1,0.1,0.3,0.1,0.4l-2.6,1l-0.9,3.7l3.1-1.3
			c-0.1,0.2-0.1,0.4-0.2,0.6l-3.1,1.3l-0.8,3.1l2.6-1c-0.1,0.2-0.2,0.4-0.3,0.6l-2.5,1c-0.1,0.2-0.3,1.8-0.6,1.7
			c-0.6,0,0.2-1.6,0.2-1.9L99.7,99.4L99.7,99.4z"/>
		<path class="st18" d="M95.8,103.6h9.8v9.8h-9.8V103.6z"/>
		<path class="st19" d="M95.8,103.6v9.8h9.8C105.6,113.4,95.8,113.2,95.8,103.6z"/>
		<path class="st20" d="M80,66.3l1.1-5.1l2.9,0.7c0.4-0.8,1-1.6,1.6-2.3L84.1,57l4.4-2.8l1.5,2.4c1-0.4,2.1-0.6,3.2-0.6l0.7-3
			l5.1,1.1l-0.7,3c0.9,0.5,1.8,1.1,2.5,1.8l2.3-1.5l2.8,4.4l-2.3,1.5c0.3,1,0.5,2,0.5,3L107,67l-1.1,5.1l-2.9-0.7
			c-0.5,1-1.1,1.9-1.9,2.6l1.5,2.4l-4.4,2.8l-1.6-2.5c-0.9,0.3-1.8,0.4-2.8,0.4l-0.7,3L88,79l0.7-3c-0.9-0.5-1.8-1.1-2.5-1.8
			L83.5,76l-2.8-4.4l2.7-1.7c-0.3-1-0.5-2-0.5-3L80,66.3z M92.1,71.2c6,1.7,8.6-7.3,2.7-9.1C88.9,60.4,86.2,69.4,92.1,71.2
			L92.1,71.2z"/>
		<path class="st20" d="M110.6,64.6l0.3-1.3l1.1,0.3c0.3-0.8,0.7-1.6,1.2-2.3l-0.8-0.8l0.9-0.9l0.8,0.8c0.7-0.6,1.4-1.1,2.2-1.4
			l-0.3-1.1l1.2-0.4l0.3,1.1c0.9-0.2,1.8-0.2,2.6-0.1l0.3-1.1l1.3,0.3l-0.3,1.1c0.8,0.3,1.6,0.7,2.3,1.2l0.8-0.8l0.9,0.9l-0.8,0.8
			c0.6,0.7,1.1,1.4,1.4,2.2l1.1-0.3l0.4,1.2l-1.1,0.3c0.2,0.9,0.2,1.8,0.1,2.6l1.1,0.3l-0.3,1.3l-1.1-0.3c-0.3,0.8-0.7,1.6-1.2,2.3
			l0.8,0.8l-0.9,0.9l-0.8-0.8c-0.7,0.6-1.4,1.1-2.2,1.4l0.3,1.1l-1.2,0.4l-0.3-1.1c-0.9,0.2-1.8,0.2-2.6,0.1l-0.3,1.1l-1.3-0.3
			l0.3-1.1c-0.8-0.3-1.6-0.7-2.3-1.2l-0.8,0.8l-0.9-0.9l0.8-0.8c-0.6-0.7-1.1-1.4-1.4-2.2l-1.1,0.3l-0.4-1.2l1.1-0.3
			c-0.2-0.9-0.2-1.8-0.1-2.6L110.6,64.6z M118.1,70.6c6.3,1.3,8.4-8,2.2-9.5C114,59.8,111.8,69.1,118.1,70.6z"/>
		<path class="st18" d="M102.1,47.4l0.4-1.9l1.5,0.3c0.1-0.3,0.3-0.6,0.4-0.8l-1.1-1l1.3-1.4l1.1,1c0.2-0.2,0.5-0.3,0.8-0.5
			l-0.4-1.4l1.9-0.6l0.4,1.4c0.3,0,0.6,0,0.9,0l0.3-1.5l1.9,0.4l-0.3,1.5c0.3,0.1,0.6,0.3,0.8,0.4l1-1.1l1.4,1.3l-1,1.1
			c0.2,0.2,0.3,0.5,0.5,0.8l1.4-0.4l0.6,1.9l-1.4,0.4c0,0.3,0,0.6,0,0.9l1.5,0.3l-0.4,1.9l-1.5-0.3c-0.1,0.3-0.3,0.6-0.4,0.8l1.1,1
			l-1.3,1.4l-1.1-1c-0.2,0.2-0.5,0.3-0.8,0.5l0.4,1.4l-1.9,0.6l-0.4-1.4c-0.3,0-0.6,0-0.9,0l-0.3,1.5l-1.9-0.4l0.3-1.4
			c-0.3-0.1-0.6-0.3-0.8-0.4l-1,1.1l-1.4-1.3l1-1.1c-0.2-0.2-0.3-0.5-0.5-0.8l-1.4,0.4l-0.6-1.9l1.4-0.4c0-0.3,0-0.6,0-0.9
			L102.1,47.4z M108.4,50.6c3.5,0.7,4.7-4.5,1.2-5.3C106.1,44.5,104.9,49.7,108.4,50.6L108.4,50.6z"/>
		<path class="st17" d="M125.4,42.5v9.3c0,0.7,0.3,1.5,0.8,2c0.5,0.5,1.2,0.8,2,0.8h22.5c0.7,0,1.5-0.3,2-0.8c0.5-0.5,0.8-1.2,0.8-2
			v-9.3c0-0.7-0.3-1.5-0.8-2c-0.5-0.5-1.2-0.8-2-0.8h-22.5c-0.7,0-1.5,0.3-2,0.8C125.7,41,125.4,41.7,125.4,42.5z"/>
		<path class="st21" d="M153.5,51.8c0,0.7-0.3,1.5-0.8,2c-0.5,0.5-1.2,0.8-2,0.8h-1.1v4l-5.4-4h-15.9c-0.7,0-1.5-0.3-2-0.8
			c-0.5-0.5-0.8-1.2-0.8-2v-9.3C136,53.1,153.5,51.8,153.5,51.8z"/>
		<path class="st22" d="M135.6,44.2h15c0.2,0,0.4-0.1,0.6-0.2c0.1-0.1,0.2-0.3,0.2-0.5c0-0.2-0.1-0.4-0.2-0.6
			c-0.1-0.1-0.3-0.2-0.6-0.2h-15C134.6,42.7,134.6,44.2,135.6,44.2z"/>
		<path class="st22" d="M144.6,47.9h6c1,0,1-1.6,0-1.6h-6C143.6,46.4,143.6,47.9,144.6,47.9z"/>
		<path class="st22" d="M128.2,47.9h12.7c0.2,0,0.4-0.1,0.5-0.2c0.1-0.1,0.2-0.3,0.2-0.5s-0.1-0.4-0.2-0.5c-0.1-0.1-0.3-0.2-0.5-0.2
			h-12.7C127.2,46.4,127.2,47.9,128.2,47.9z"/>
		<path class="st22" d="M138.3,51.6h12.3c1,0,1-1.6,0-1.6h-12.3C137.3,50.1,137.2,51.6,138.3,51.6z"/>
		<path class="st15" d="M129.5,39.7c18.9,0,23.3,3.1,24,3.7c0.2-1.9-0.8-3.7-2.8-3.7H129.5z"/>
		<path class="st17" d="M80.2,40.5v9.3c0,0.7-0.3,1.5-0.8,2c-0.5,0.5-1.2,0.8-2,0.8H54.9c-0.7,0-1.5-0.3-2-0.8
			c-0.5-0.5-0.8-1.2-0.8-2v-9.3c0-0.7,0.3-1.5,0.8-2c0.5-0.5,1.2-0.8,2-0.8h22.5c0.7,0,1.5,0.3,2,0.8C79.9,39,80.2,39.7,80.2,40.5z"
			/>
		<path class="st21" d="M52.1,49.8c0,0.4,0.1,0.7,0.2,1.1c0.1,0.3,0.3,0.7,0.6,0.9c0.3,0.3,0.6,0.5,0.9,0.6c0.3,0.1,0.7,0.2,1.1,0.2
			h1.1v4l5.4-4h15.9c0.7,0,1.5-0.3,2-0.8c0.5-0.5,0.8-1.2,0.8-2v-9.3C69.6,51.1,52.1,49.8,52.1,49.8z"/>
		<path class="st22" d="M69.9,42.2h-15c-0.2,0-0.4-0.1-0.5-0.2c-0.1-0.1-0.2-0.3-0.2-0.5c0-0.2,0.1-0.4,0.2-0.5
			c0.1-0.1,0.3-0.2,0.5-0.2h15C70.9,40.7,70.9,42.2,69.9,42.2z"/>
		<path class="st22" d="M61,45.9h-6c-1,0-1-1.6,0-1.6h6C62,44.4,62,45.9,61,45.9z"/>
		<path class="st22" d="M77.3,45.9H64.6c-0.2,0-0.4-0.1-0.6-0.2c-0.1-0.1-0.2-0.3-0.2-0.6c0-0.2,0.1-0.4,0.2-0.5
			c0.1-0.1,0.3-0.2,0.6-0.2h12.7C78.4,44.4,78.4,45.9,77.3,45.9z"/>
		<path class="st22" d="M67.3,49.6H54.9c-1,0-1-1.6,0-1.6h12.3C68.3,48.1,68.3,49.6,67.3,49.6z"/>
		<path class="st15" d="M76.1,37.7c-18.9,0-23.3,3.1-24,3.7c-0.2-1.9,0.8-3.7,2.8-3.7H76.1z"/>
	</g>
</g>
<g>
	<g>
		<path class="st9" d="M11.4,17.6c0.1-6.2,5.1-10.8,10.9-10.8c6,0.1,10.8,5,10.7,10.9c-0.1,5.9-4.9,10.7-10.8,10.7
			C16.2,28.4,11.4,23.6,11.4,17.6z M23.6,18.2L23.6,18.2c0-0.1,0-0.3-0.1-0.5c-0.2-0.7-0.4-1.3-0.6-2c-0.1-0.3-0.1-0.7-0.1-1
			c0-1.8,0-3.6,0-5.3c0-0.2,0-0.4,0-0.6c-1.1-0.1-2.2,0-3.2,0.4c0,0.2,0,0.4,0,0.5c0,1.4,0,2.9,0,4.3c0,0.3,0,0.5-0.1,0.8
			c-0.4,1.5-0.9,3-1.3,4.6c-0.5,1.7-1,3.3-1.4,5c-0.3,0.9,0.3,1.8,1.2,2c0.2,0,0.4,0,0.6,0c2.1,0,4.1,0,6.2,0c0.4,0,0.8,0,1.3,0
			c1.1,0,1.8-0.9,1.6-2c0-0.2-0.1-0.3-0.1-0.5c-0.9-3.1-1.8-6.1-2.7-9.2c-0.1-0.3-0.1-0.5-0.1-0.8c0-1.4,0-2.9,0-4.3
			c0-0.2,0-0.3,0-0.5c-0.5-0.1-0.9-0.2-1.3-0.3c0,0.2,0,0.3,0,0.5c0,1.9,0,3.8,0,5.7c0,0.2,0.1,0.5,0.1,0.7c0.2,0.8,0.5,1.7,0.7,2.5
			l0,0C24,18.2,23.8,18.2,23.6,18.2z"/>
		<path class="st9" d="M70.5,14.3c0.1-0.3,0.3-0.6,0.4-0.8c1,0,2,0,3,0c0,3.9,0,7.8,0,11.7c-0.3,0.1-2.1,0.1-3.1,0.1
			c-0.1-0.2-0.2-0.5-0.4-0.8c-0.6,0.4-1.3,0.8-2,1c-3.3,0.9-7.1-0.8-7.7-5c-0.2-1.6,0-3.1,0.8-4.5c1-1.7,2.5-2.6,4.5-2.8
			c1.6-0.2,3.1,0.1,4.3,1.1C70.4,14.2,70.4,14.2,70.5,14.3z M67.4,22c1.5,0,2.7-1.1,2.7-2.7c0-1.6-1.1-2.7-2.7-2.7
			c-1.5,0-2.7,1.1-2.7,2.7C64.7,20.9,65.9,22,67.4,22z"/>
		<path class="st9" d="M171.8,25.7c-1.9,0-3.5-0.5-4.9-1.8c-1.5-1.4-2-3.2-1.8-5.2c0.3-3.4,3-5.3,5.7-5.6c1.6-0.2,3.1,0,4.5,0.8
			c2,1.1,3,2.8,3.1,5.1c0.1,1.9-0.5,3.5-1.8,4.9c-1.1,1.1-2.4,1.6-4,1.8C172.3,25.6,172,25.6,171.8,25.7z M174.3,19.3
			c0-1.2-0.6-2.1-1.6-2.5c-1.5-0.6-3.6,0.3-3.5,2.7c0.1,1.1,0.6,1.9,1.6,2.3C172.4,22.4,174.3,21.5,174.3,19.3z"/>
		<path class="st9" d="M121.7,25.7c-0.9,0-1.8-0.1-2.7-0.5c-2.5-0.9-4-3.2-4-5.9c0-3.3,2.3-5.8,5.7-6.2c1.6-0.2,3.1,0,4.5,0.8
			c2.4,1.3,3.4,3.8,3.1,6.1c-0.3,3.3-3,5.4-6,5.6C122.1,25.6,121.9,25.7,121.7,25.7z M119.2,19.4c0,1.3,0.8,2.4,2,2.6
			c1.7,0.3,3.1-0.8,3.1-2.6c0-1.3-0.7-2.3-1.8-2.6C120.7,16.3,119.2,17.5,119.2,19.4z"/>
		<path class="st9" d="M59.8,19.1c0,0.8-0.1,1.5-0.3,2.2c-0.7,2.1-2.3,3.4-4.4,4.1c-2.4,0.7-4.6,0.3-6.4-1.5c-3-3-2.7-8.4,2.1-10.4
			c1.9-0.8,3.8-0.8,5.6,0.2c1.6,0.8,2.8,2.5,3.1,4.4c-2.7,1-5.5,2-8.2,3c0.5,1,1.4,1.4,2.4,1.3c1-0.2,1.8-0.7,2.2-1.7
			c0.1-0.1,0.1-0.2,0.3-0.3c1.1-0.4,2.3-0.8,3.4-1.2C59.7,19.1,59.7,19.1,59.8,19.1z M55.1,17.3c-0.6-1-1.8-1.4-3.1-0.8
			c-1,0.5-1.5,1.5-1.3,2.4C52.2,18.4,53.6,17.9,55.1,17.3z"/>
		<path class="st9" d="M85.9,13.5c1.5,0,2.9,0,4.4,0c0.8,2.1,1.6,4.2,2.5,6.3c0,0,0.1,0,0.1,0c0.3-0.7,0.5-1.4,0.8-2.1
			c0.3-0.7,0.5-1.4,0.8-2.1c0.3-0.7,0.5-1.4,0.8-2.1c1.5,0,2.9,0,4.3,0c-0.1,0.2-0.1,0.3-0.2,0.4c-1.6,3.7-3.2,7.4-4.9,11
			c-0.4,0.9-0.8,1.7-1.3,2.5c-1,1.5-2.4,2.3-4.2,2.3c-0.6,0-1.2,0-1.8,0c0-1.2,0-2.3,0-3.5c0.2,0,0.4,0,0.5,0c0.5,0,0.9,0,1.4-0.1
			c0.6-0.1,1.1-0.4,1.4-0.9c0.1-0.1,0.1-0.2,0.2-0.3c0.2-0.4,0.2-0.7,0-1.1c-1.5-3.2-2.9-6.5-4.4-9.7C86,13.8,85.9,13.7,85.9,13.5z"
			/>
		<path class="st9" d="M187.6,25.2c0-0.2,0-0.4,0-0.6c0-2,0-4,0-6c0-0.4-0.1-0.8-0.2-1.2c-0.2-0.5-0.6-0.8-1.1-0.9
			c-1.1-0.1-1.9,0.5-2.2,1.6c-0.1,0.3-0.1,0.7-0.1,1c0,1.8,0,3.6,0,5.5c0,0.2,0,0.3,0,0.6c-1.4,0-2.7,0-4,0c0-3.9,0-7.8,0-11.8
			c1,0,1.9,0,2.8,0c0.2,0.4,0.4,0.7,0.6,1.2c0.1-0.1,0.2-0.2,0.4-0.3c1.6-1.3,3.4-1.6,5.3-0.9c1.5,0.6,2.3,1.8,2.6,3.3
			c0.1,0.4,0.1,0.7,0.1,1.1c0,2.3,0,4.6,0,6.9c0,0.1,0,0.3,0,0.5C190.3,25.2,189,25.2,187.6,25.2z"/>
		<path class="st9" d="M136.1,13.5c1.4,0,2.7,0,4,0c0,0.2,0,0.4,0,0.6c0,1.9,0,3.9,0,5.8c0,0.4,0,0.7,0.1,1c0.2,0.7,0.8,1.1,1.6,1.1
			c0.8,0,1.4-0.4,1.6-1.1c0.1-0.3,0.1-0.7,0.1-1c0-1.9,0-3.9,0-5.8c0-0.2,0-0.3,0-0.5c1.4,0,2.7,0,4,0c0,0.2,0,0.3,0,0.4
			c0,2.1,0,4.2,0,6.2c0,0.6-0.1,1.2-0.2,1.8c-0.5,1.7-1.6,2.8-3.3,3.4c-1.6,0.5-3.2,0.5-4.8,0c-2-0.7-3.1-2.2-3.4-4.4
			c0-0.4,0-0.8,0-1.2c0-1.9,0-3.8,0-5.7C136.1,13.8,136.1,13.7,136.1,13.5z"/>
		<path class="st9" d="M110.2,17c-0.3-0.9-0.9-1.2-1.7-1c-0.4,0.1-0.7,0.4-0.7,0.7c0,0.4,0.1,0.6,0.6,0.8c0.5,0.2,1.1,0.3,1.6,0.4
			c0.6,0.1,1.2,0.2,1.7,0.4c1.2,0.4,2.1,1.1,2.4,2.4c0.3,1.4,0,2.7-1.1,3.7c-0.8,0.8-1.8,1.1-2.9,1.3c-1.2,0.2-2.3,0.1-3.5-0.3
			c-1.5-0.5-2.5-1.5-2.9-3.1c-0.1-0.3-0.1-0.5-0.1-0.8c1.3,0,2.6,0,3.9,0c0,0.1,0.1,0.2,0.1,0.3c0.3,0.9,1.5,1.3,2.2,0.7
			c0.4-0.4,0.4-1-0.2-1.3c-0.5-0.2-1-0.3-1.6-0.4c-0.8-0.2-1.6-0.3-2.3-0.6c-1-0.4-1.6-1.1-1.9-2.1c-0.4-1.8,0.3-3.4,1.9-4.2
			c1.2-0.6,2.4-0.7,3.7-0.6c0.8,0.1,1.6,0.2,2.3,0.6c1.1,0.6,1.8,1.5,2,2.7c0,0.2,0,0.4,0.1,0.6C113.6,17.1,110.8,17.1,110.2,17z"/>
		<path class="st9" d="M193.2,21.4c1.3,0,2.6,0,3.9,0c0,0.1,0.1,0.1,0.1,0.1c0.2,0.9,1.1,1.4,2,1c0.3-0.2,0.5-0.4,0.5-0.8
			c0-0.3-0.2-0.6-0.5-0.7c-0.5-0.2-1-0.3-1.5-0.4c-0.7-0.2-1.4-0.3-2-0.5c-0.5-0.2-1-0.4-1.4-0.8c-0.4-0.4-0.7-0.9-0.8-1.5
			c-0.4-1.7,0.3-3.3,1.9-4.2c1.2-0.6,2.4-0.7,3.7-0.6c0.9,0.1,1.7,0.3,2.4,0.7c1.2,0.7,1.8,1.7,1.9,3.1c0,0,0,0.1,0,0.2
			c-1.2,0-2.5,0-3.7,0c0,0-0.1-0.1-0.1-0.1c-0.2-0.9-1.1-1.3-1.9-0.9c-0.3,0.2-0.5,0.4-0.5,0.7c0,0.3,0.2,0.5,0.4,0.6
			c0.6,0.2,1.2,0.3,1.7,0.4c0.6,0.1,1.1,0.2,1.7,0.4c0.2,0.1,0.5,0.2,0.7,0.3c1.1,0.5,1.7,1.4,1.8,2.6c0.1,1.8-0.7,3.2-2.4,4
			c-0.9,0.4-1.9,0.5-2.9,0.5c-0.8,0-1.6-0.1-2.4-0.4c-1.5-0.6-2.4-1.7-2.6-3.3C193.2,21.8,193.2,21.6,193.2,21.4z"/>
		<path class="st9" d="M85.8,17c-1.3,0-2.5,0-3.8,0c0-0.1-0.1-0.1-0.1-0.2c-0.1-0.9-1.4-1.1-2-0.6c-0.5,0.4-0.4,1,0.1,1.3
			c0.4,0.2,0.8,0.3,1.2,0.4c0.6,0.1,1.2,0.2,1.9,0.4c0.1,0,0.3,0.1,0.4,0.1c1.2,0.4,2.1,1,2.4,2.4c0.3,1.4,0,2.6-1,3.7
			c-0.4,0.4-1,0.8-1.6,1c-1.6,0.6-3.3,0.6-4.9,0c-1.4-0.5-2.4-1.4-2.7-2.9c-0.1-0.3-0.1-0.6-0.1-0.8c0.4-0.1,3-0.1,3.9-0.1
			c0,0.1,0,0.2,0.1,0.3c0.3,0.9,1.5,1.3,2.2,0.7c0.4-0.4,0.4-1-0.1-1.3c-0.5-0.2-1-0.3-1.6-0.4c-0.8-0.2-1.7-0.3-2.5-0.7
			c-0.8-0.4-1.4-1-1.7-1.9c-0.5-1.7,0.2-3.4,1.7-4.3c1.2-0.7,2.5-0.8,3.8-0.7c0.7,0.1,1.5,0.2,2.1,0.5c1.2,0.6,2,1.5,2.2,2.8
			C85.8,16.6,85.8,16.8,85.8,17z"/>
		<path class="st9" d="M150.9,16.6c-0.7,0-1.4,0-2.2,0c0-0.3,0-0.4,0-0.6c0-0.2,0.1-0.4,0.2-0.6c1.6-1.7,3.2-3.4,4.8-5.1
			c0.3-0.3,0.7-0.3,1.1-0.3c0.1,1.1,0,2.2,0,3.4c1,0,2,0,2.9,0c0,1.1,0,2.1,0,3.2c-0.9,0-1.9,0-2.8,0c0,0.2,0,0.3,0,0.5c0,1,0,2,0,3
			c0,1.2,0.4,1.6,1.7,1.7c0.4,0,0.8,0,1.2,0c0,1.2,0,2.3,0,3.5c-0.1,0-0.2,0.1-0.3,0.1c-0.9,0-1.9,0-2.8,0c-2,0-3.9-1.3-3.9-4.1
			c0-1.3,0-2.7,0-4C150.9,17,150.9,16.8,150.9,16.6z"/>
		<path class="st9" d="M46,21.7c0,1.2,0,2.3,0,3.5c-0.1,0-0.2,0-0.3,0c-1,0-2,0-3.1,0c-2.1-0.1-3.6-1.6-3.6-3.7
			c-0.1-1.4,0-2.9,0-4.3c0-0.2,0-0.4,0-0.6c-0.7-0.1-1.4,0-2.1-0.1c-0.1-0.5-0.1-0.9,0.3-1.3c1.5-1.6,3.1-3.2,4.6-4.8
			C42.2,10,42.5,9.9,43,10c0,1.1,0,2.2,0,3.4c1,0,2,0,3,0c0,1.1,0,2.1,0,3.1c-0.9,0-1.9,0-2.8,0c0,0.1,0,0.2,0,0.3
			c0,1.2,0,2.4,0,3.5c0,0.8,0.4,1.2,1.1,1.3c0.2,0,0.4,0,0.6,0C45.3,21.7,45.6,21.7,46,21.7z"/>
		<path class="st9" d="M134,9.2c0,5.3,0,10.7,0,16c-0.4,0.1-3.3,0.1-4,0c-0.1-0.4-0.1-14.8-0.1-16C130.3,9.1,133.3,9.1,134,9.2z"/>
		<path class="st9" d="M163.5,25.2c-1.3,0-2.7,0-4,0c0-3.9,0-7.8,0-11.8c1.3,0,2.7,0,4,0C163.5,17.4,163.5,21.3,163.5,25.2z"/>
		<path class="st9" d="M163.5,8.5c0,1.1,0,2.2,0,3.4c-1.3,0-2.6,0-4,0c-0.1-1.1,0-2.3,0-3.4C159.9,8.5,162.7,8.4,163.5,8.5z"/>
		<path class="st9" d="M23.6,18.2c0,0.1,0.1,0.2,0.1,0.3c0.6,2.2,1.3,4.3,1.9,6.5c0,0.1,0.1,0.2,0.1,0.4c-0.2,0-0.4,0-0.5,0
			c-2.2,0-4.4,0-6.6,0c-0.1,0-0.2,0-0.3,0c-0.4,0-0.7-0.3-0.5-0.7c0.6-2.1,1.2-4.2,1.9-6.4c0,0,0,0,0.1-0.1c0.2,0,0.4,0,0.6,0
			c1,0,2,0,3,0C23.3,18.3,23.4,18.2,23.6,18.2C23.6,18.2,23.6,18.2,23.6,18.2z M19.9,20.8c0-0.1-0.1-0.2-0.2-0.3
			c-0.1,0-0.2,0.1-0.3,0.2c-0.1,0.1-0.1,0.2-0.1,0.3c-0.2,0.6-0.4,1.3-0.6,1.9c-0.1,0.3-0.2,0.6-0.2,0.9c-0.1,0.2-0.1,0.4,0.1,0.4
			c0.2,0.1,0.3,0,0.4-0.3c0,0,0-0.1,0-0.1c0.3-0.9,0.5-1.8,0.8-2.7C19.9,21.1,19.9,21,19.9,20.8z"/>
		<path class="st9" d="M24.2,18.3c0.2,0,0.4,0,0.6,0c0.2,0.8,0.5,1.6,0.7,2.4c0.4,1.3,0.7,2.5,1.1,3.8c0.1,0.5,0.1,0.6-0.3,0.8
			C25.6,22.9,24.9,20.6,24.2,18.3C24.2,18.2,24.2,18.3,24.2,18.3z"/>
	</g>
</g>
</svg>
