<svg width="38" height="38" viewBox="0 0 38 38" fill="none" xmlns="http://www.w3.org/2000/svg">
<path d="M35.6879 10.1649C35.4999 9.41348 35.1168 8.72499 34.5775 8.16898C34.0381 7.61297 33.3616 7.20913 32.6163 6.99825C29.8929 6.33325 18.9996 6.33325 18.9996 6.33325C18.9996 6.33325 8.10627 6.33325 5.38294 7.06159C4.63758 7.27246 3.96107 7.6763 3.42174 8.23231C2.8824 8.78832 2.49935 9.47682 2.31127 10.2283C1.81286 12.992 1.56906 15.7957 1.58294 18.6041C1.56517 21.4336 1.80899 24.2586 2.31127 27.0433C2.51862 27.7713 2.91026 28.4336 3.44833 28.9662C3.98641 29.4987 4.65274 29.8835 5.38294 30.0833C8.10627 30.8116 18.9996 30.8116 18.9996 30.8116C18.9996 30.8116 29.8929 30.8116 32.6163 30.0833C33.3616 29.8724 34.0381 29.4685 34.5775 28.9125C35.1168 28.3565 35.4999 27.668 35.6879 26.9166C36.1825 24.1736 36.4263 21.3913 36.4163 18.6041C36.434 15.7746 36.1902 12.9495 35.6879 10.1649V10.1649Z" stroke="white" stroke-width="1.5" stroke-linecap="round" stroke-linejoin="round"/>
<path d="M15.4375 23.7818L24.5417 18.6043L15.4375 13.4268V23.7818Z" stroke="white" stroke-width="1.5" stroke-linecap="round" stroke-linejoin="round"/>
</svg>
